  0
SECTION
  2
HEADER
  9
$ACADVER
  1
AC1009
  9
$DWGCODEPAGE
  3
ansi_1252
  9
$INSBASE
 10
0.0
 20
0.0
 30
0.0
  9
$EXTMIN
 10
1.000000000000000E+20
 20
1.000000000000000E+20
 30
1.000000000000000E+20
  9
$EXTMAX
 10
-1.000000000000000E+20
 20
-1.000000000000000E+20
 30
-1.000000000000000E+20
  9
$LIMMIN
 10
0.0
 20
0.0
  9
$LIMMAX
 10
12.0
 20
9.0
  9
$ORTHOMODE
 70
     0
  9
$REGENMODE
 70
     1
  9
$FILLMODE
 70
     1
  9
$QTEXTMODE
 70
     0
  9
$MIRRTEXT
 70
     1
  9
$DRAGMODE
 70
     2
  9
$LTSCALE
 40
1.0
  9
$OSMODE
 70
    37
  9
$ATTMODE
 70
     1
  9
$TEXTSIZE
 40
0.2
  9
$TRACEWID
 40
0.05
  9
$TEXTSTYLE
  7
STANDARD
  9
$CLAYER
  8
POCKET_15_5MM
  9
$CELTYPE
  6
BYLAYER
  9
$CECOLOR
 62
   256
  9
$DIMSCALE
 40
1.0
  9
$DIMASZ
 40
0.18
  9
$DIMEXO
 40
0.0625
  9
$DIMDLI
 40
0.38
  9
$DIMRND
 40
0.0
  9
$DIMDLE
 40
0.0
  9
$DIMEXE
 40
0.18
  9
$DIMTP
 40
0.0
  9
$DIMTM
 40
0.0
  9
$DIMTXT
 40
0.18
  9
$DIMCEN
 40
0.09
  9
$DIMTSZ
 40
0.0
  9
$DIMTOL
 70
     0
  9
$DIMLIM
 70
     0
  9
$DIMTIH
 70
     1
  9
$DIMTOH
 70
     1
  9
$DIMSE1
 70
     0
  9
$DIMSE2
 70
     0
  9
$DIMTAD
 70
     0
  9
$DIMZIN
 70
     0
  9
$DIMBLK
  1

  9
$DIMASO
 70
     1
  9
$DIMSHO
 70
     1
  9
$DIMPOST
  1

  9
$DIMAPOST
  1

  9
$DIMALT
 70
     0
  9
$DIMALTD
 70
     2
  9
$DIMALTF
 40
25.4
  9
$DIMLFAC
 40
1.0
  9
$DIMTOFL
 70
     0
  9
$DIMTVP
 40
0.0
  9
$DIMTIX
 70
     0
  9
$DIMSOXD
 70
     0
  9
$DIMSAH
 70
     0
  9
$DIMBLK1
  1

  9
$DIMBLK2
  1

  9
$DIMSTYLE
  2
STANDARD_ACAD
  9
$DIMCLRD
 70
     0
  9
$DIMCLRE
 70
     0
  9
$DIMCLRT
 70
     0
  9
$DIMTFAC
 40
1.0
  9
$DIMGAP
 40
0.09
  9
$LUNITS
 70
     2
  9
$LUPREC
 70
     3
  9
$SKETCHINC
 40
0.1
  9
$FILLETRAD
 40
0.5
  9
$AUNITS
 70
     0
  9
$AUPREC
 70
     0
  9
$MENU
  1
.
  9
$ELEVATION
 40
0.0
  9
$PELEVATION
 40
0.0
  9
$THICKNESS
 40
0.0
  9
$LIMCHECK
 70
     0
  9
$CHAMFERA
 40
0.0
  9
$CHAMFERB
 40
0.0
  9
$SKPOLY
 70
     0
  9
$TDCREATE
 40
2459115.636532558
  9
$TDUPDATE
 40
2459115.636546273
  9
$TDINDWG
 40
0.0000000116
  9
$TDUSRTIMER
 40
0.0000000116
  9
$USRTIMER
 70
     1
  9
$ANGBASE
 50
0.0
  9
$ANGDIR
 70
     0
  9
$PDMODE
 70
     0
  9
$PDSIZE
 40
0.0
  9
$PLINEWID
 40
0.0
  9
$COORDS
 70
     1
  9
$SPLFRAME
 70
     0
  9
$SPLINETYPE
 70
     6
  9
$SPLINESEGS
 70
     8
  9
$ATTDIA
 70
     0
  9
$ATTREQ
 70
     1
  9
$HANDLING
 70
     1
  9
$HANDSEED
  5
858
  9
$SURFTAB1
 70
     6
  9
$SURFTAB2
 70
     6
  9
$SURFTYPE
 70
     6
  9
$SURFU
 70
     6
  9
$SURFV
 70
     6
  9
$UCSNAME
  2

  9
$UCSORG
 10
0.0
 20
0.0
 30
0.0
  9
$UCSXDIR
 10
1.0
 20
0.0
 30
0.0
  9
$UCSYDIR
 10
0.0
 20
1.0
 30
0.0
  9
$PUCSNAME
  2

  9
$PUCSORG
 10
0.0
 20
0.0
 30
0.0
  9
$PUCSXDIR
 10
1.0
 20
0.0
 30
0.0
  9
$PUCSYDIR
 10
0.0
 20
1.0
 30
0.0
  9
$USERI1
 70
     0
  9
$USERI2
 70
     0
  9
$USERI3
 70
     0
  9
$USERI4
 70
     0
  9
$USERI5
 70
     0
  9
$USERR1
 40
0.0
  9
$USERR2
 40
0.0
  9
$USERR3
 40
0.0
  9
$USERR4
 40
0.0
  9
$USERR5
 40
0.0
  9
$WORLDVIEW
 70
     1
  9
$SHADEDGE
 70
     3
  9
$SHADEDIF
 70
    70
  9
$TILEMODE
 70
     1
  9
$MAXACTVP
 70
    64
  9
$PLIMCHECK
 70
     0
  9
$PEXTMIN
 10
1.000000000000000E+20
 20
1.000000000000000E+20
 30
1.000000000000000E+20
  9
$PEXTMAX
 10
-1.000000000000000E+20
 20
-1.000000000000000E+20
 30
-1.000000000000000E+20
  9
$PLIMMIN
 10
0.0
 20
0.0
  9
$PLIMMAX
 10
12.0
 20
9.0
  9
$UNITMODE
 70
     0
  9
$VISRETAIN
 70
     1
  9
$PLINEGEN
 70
     0
  9
$PSLTSCALE
 70
     1
  0
ENDSEC
  0
SECTION
  2
TABLES
  0
TABLE
  2
VPORT
 70
     1
  0
VPORT
  2
*ACTIVE
 70
     0
 10
0.0
 20
0.0
 11
1.0
 21
1.0
 12
10.42990654205607
 22
4.5
 13
0.0
 23
0.0
 14
0.5
 24
0.5
 15
0.5
 25
0.5
 16
0.0
 26
0.0
 36
1.0
 17
0.0
 27
0.0
 37
0.0
 40
9.0
 41
1.972972972850329
 42
50.0
 43
0.0
 44
0.0
 50
0.0
 51
0.0
 71
     0
 72
   100
 73
     1
 74
     3
 75
     0
 76
     0
 77
     0
 78
     0
  0
ENDTAB
  0
TABLE
  2
LTYPE
 70
     1
  0
LTYPE
  2
CONTINUOUS
 70
     0
  3
Solid line
 72
    65
 73
     0
 40
0.0
  0
ENDTAB
  0
TABLE
  2
LAYER
 70
     7
  0
LAYER
  2
0
 70
     0
 62
     7
  6
CONTINUOUS
  0
LAYER
  2
POCKET_15_5MM
 70
     0
 62
    34
  6
CONTINUOUS
  0
LAYER
  2
DRILL_DOWN__SCREWS_
 70
     0
 62
    70
  6
CONTINUOUS
  0
LAYER
  2
POCKET_7_5MM_DOGBONE
 70
     0
 62
   220
  6
CONTINUOUS
  0
LAYER
  2
CUT_15_5MM
 70
     0
 62
   140
  6
CONTINUOUS
  0
LAYER
  2
LOGO_VCARVE
 70
     0
 62
   160
  6
CONTINUOUS
  0
LAYER
  2
MATERIAL
 70
     0
 62
   254
  6
CONTINUOUS
  0
ENDTAB
  0
TABLE
  2
STYLE
 70
     1
  0
STYLE
  2
STANDARD
 70
     0
 40
0.0
 41
1.0
 50
0.0
 71
     0
 42
0.2
  3
txt
  4

  0
ENDTAB
  0
TABLE
  2
VIEW
 70
     0
  0
ENDTAB
  0
TABLE
  2
UCS
 70
     0
  0
ENDTAB
  0
TABLE
  2
APPID
 70
     1
  0
APPID
  2
ACAD
 70
     0
  0
ENDTAB
  0
TABLE
  2
DIMSTYLE
 70
     1
  0
DIMSTYLE
  2
STANDARD_ACAD
 70
     0
  3

  4

  5

  6

  7

 40
1.0
 41
0.18
 42
0.0625
 43
0.38
 44
0.18
 45
0.0
 46
0.0
 47
0.0
 48
0.0
140
0.18
141
0.09
142
0.0
143
25.4
144
1.0
145
0.0
146
1.0
147
0.09
 71
     0
 72
     0
 73
     1
 74
     1
 75
     0
 76
     0
 77
     0
 78
     0
170
     0
171
     2
172
     0
173
     0
174
     0
175
     0
176
     0
177
     0
178
     0
  0
ENDTAB
  0
ENDSEC
  0
SECTION
  2
BLOCKS
  0
BLOCK
  8
0
  2
$MODEL_SPACE
 70
     0
 10
0.0
 20
0.0
 30
0.0
  3
$MODEL_SPACE
  1

  0
ENDBLK
  5
21
  8
0
  0
BLOCK
 67
     1
  8
0
  2
$PAPER_SPACE
 70
     0
 10
0.0
 20
0.0
 30
0.0
  3
$PAPER_SPACE
  1

  0
ENDBLK
  5
1D
 67
     1
  8
0
  0
ENDSEC
  0
SECTION
  2
ENTITIES
  0
CIRCLE
  5
6F
  8
POCKET_15_5MM
 10
-2188.498134641646
 20
363.2500000000036
 30
0.0
 40
4.75
210
0.0
220
0.0
230
-1.0
  0
CIRCLE
  5
70
  8
POCKET_15_5MM
 10
-2188.498134641646
 20
484.2500000000036
 30
0.0
 40
4.75
210
0.0
220
0.0
230
-1.0
  0
CIRCLE
  5
71
  8
POCKET_15_5MM
 10
-2210.498134641646
 20
383.0000000000073
 30
0.0
 40
10.0
210
0.0
220
0.0
230
-1.0
  0
CIRCLE
  5
72
  8
POCKET_15_5MM
 10
-2166.498134641646
 20
383.0000000000073
 30
0.0
 40
10.0
210
0.0
220
0.0
230
-1.0
  0
CIRCLE
  5
73
  8
POCKET_15_5MM
 10
-2210.498134641646
 20
464.4999999999982
 30
0.0
 40
9.999999999998181
210
0.0
220
0.0
230
-1.0
  0
CIRCLE
  5
74
  8
POCKET_15_5MM
 10
-2166.498134641646
 20
464.5000000000018
 30
0.0
 40
10.00000000000182
210
0.0
220
0.0
230
-1.0
  0
CIRCLE
  5
75
  8
POCKET_15_5MM
 10
-2312.498134641646
 20
409.7500000000036
 30
0.0
 40
4.75
210
0.0
220
0.0
230
-1.0
  0
CIRCLE
  5
76
  8
POCKET_15_5MM
 10
-2312.498134641646
 20
530.7500000000036
 30
0.0
 40
4.75
210
0.0
220
0.0
230
-1.0
  0
CIRCLE
  5
77
  8
POCKET_15_5MM
 10
-2064.498134648355
 20
409.7500000000036
 30
0.0
 40
4.75
210
0.0
220
0.0
230
-1.0
  0
CIRCLE
  5
78
  8
POCKET_15_5MM
 10
-2064.498134648355
 20
530.7500000000036
 30
0.0
 40
4.75
210
0.0
220
0.0
230
-1.0
  0
CIRCLE
  5
7A
  8
DRILL_DOWN__SCREWS_
 10
-2192.092361094998
 20
966.9875604332774
 30
0.0
 40
12.5
210
0.0
220
0.0
230
-1.0
  0
CIRCLE
  5
7B
  8
DRILL_DOWN__SCREWS_
 10
-2192.092361094998
 20
1038.429977512955
 30
0.0
 40
12.5
210
0.0
220
0.0
230
-1.0
  0
CIRCLE
  5
7C
  8
DRILL_DOWN__SCREWS_
 10
-2156.961842666271
 20
1038.429977512955
 30
0.0
 40
12.5
210
0.0
220
0.0
230
-1.0
  0
CIRCLE
  5
7D
  8
DRILL_DOWN__SCREWS_
 10
-2156.961842666271
 20
966.9875604332774
 30
0.0
 40
12.5
210
0.0
220
0.0
230
-1.0
  0
CIRCLE
  5
7E
  8
DRILL_DOWN__SCREWS_
 10
-2284.539302041841
 20
1040.403152044459
 30
0.0
 40
12.5
210
0.0
220
0.0
230
-1.0
  0
CIRCLE
  5
7F
  8
DRILL_DOWN__SCREWS_
 10
2064.038573094782
 20
1040.403152044459
 30
0.0
 40
12.5
  0
CIRCLE
  5
80
  8
DRILL_DOWN__SCREWS_
 10
-2284.539302041841
 20
1094.448852006437
 30
0.0
 40
12.5
210
0.0
220
0.0
230
-1.0
  0
CIRCLE
  5
81
  8
DRILL_DOWN__SCREWS_
 10
2064.038573094782
 20
1094.448852006437
 30
0.0
 40
12.5
  0
CIRCLE
  5
82
  8
DRILL_DOWN__SCREWS_
 10
2284.539302041841
 20
914.9677638115099
 30
0.0
 40
12.5
  0
CIRCLE
  5
83
  8
DRILL_DOWN__SCREWS_
 10
-2064.038573094782
 20
914.9677638115099
 30
0.0
 40
12.5
210
0.0
220
0.0
230
-1.0
  0
CIRCLE
  5
84
  8
DRILL_DOWN__SCREWS_
 10
-2064.038573094782
 20
956.2071238273602
 30
0.0
 40
12.5
210
0.0
220
0.0
230
-1.0
  0
CIRCLE
  5
85
  8
DRILL_DOWN__SCREWS_
 10
2284.539302041841
 20
956.2071238273584
 30
0.0
 40
12.5
  0
POLYLINE
  5
87
  8
POCKET_7_5MM_DOGBONE
 66
     1
 10
0.0
 20
0.0
 30
0.0
 70
     1
  0
VERTEX
  5
88
  8
POCKET_7_5MM_DOGBONE
 10
393.7498177480629
 20
933.8330952366205
 30
0.0
 42
1.000000005956756
  0
VERTEX
  5
89
  8
POCKET_7_5MM_DOGBONE
 10
389.0829130023394
 20
938.5000000076152
 30
0.0
  0
VERTEX
  5
8A
  8
POCKET_7_5MM_DOGBONE
 10
358.4167225241109
 20
938.5000000202509
 30
0.0
 42
1.000000000003946
  0
VERTEX
  5
8B
  8
POCKET_7_5MM_DOGBONE
 10
353.7498177682879
 20
933.8330952644168
 30
0.0
  0
VERTEX
  5
8C
  8
POCKET_7_5MM_DOGBONE
 10
353.7498177278467
 20
928.1669047760861
 30
0.0
 42
0.9999999999978807
  0
VERTEX
  5
8D
  8
POCKET_7_5MM_DOGBONE
 10
358.4167224836742
 20
923.5000000202568
 30
0.0
  0
VERTEX
  5
8E
  8
POCKET_7_5MM_DOGBONE
 10
389.0829129720075
 20
923.4999999798126
 30
0.0
 42
0.9999999999981851
  0
VERTEX
  5
8F
  8
POCKET_7_5MM_DOGBONE
 10
393.7498177278263
 20
928.1669047356396
 30
0.0
  0
SEQEND
  5
90
  8
POCKET_7_5MM_DOGBONE
  0
POLYLINE
  5
91
  8
POCKET_7_5MM_DOGBONE
 66
     1
 10
0.0
 20
0.0
 30
0.0
 70
     1
  0
VERTEX
  5
92
  8
POCKET_7_5MM_DOGBONE
 10
203.750000010099
 20
1184.666904776077
 30
0.0
  0
VERTEX
  5
93
  8
POCKET_7_5MM_DOGBONE
 10
203.7500000202126
 20
1198.700000000026
 30
0.0
 42
-0.4142135623726068
  0
VERTEX
  5
94
  8
POCKET_7_5MM_DOGBONE
 10
207.0500000202119
 20
1202.000000000027
 30
0.0
  0
VERTEX
  5
95
  8
POCKET_7_5MM_DOGBONE
 10
240.450000020217
 20
1202.000000000011
 30
0.0
 42
-0.4142135623747853
  0
VERTEX
  5
96
  8
POCKET_7_5MM_DOGBONE
 10
243.7500000202199
 20
1198.700000000004
 30
0.0
  0
VERTEX
  5
97
  8
POCKET_7_5MM_DOGBONE
 10
243.750000010099
 20
1184.666904735612
 30
0.0
 42
-1.000000000001169
  0
VERTEX
  5
98
  8
POCKET_7_5MM_DOGBONE
 10
239.0830952441556
 20
1179.999999989899
 30
0.0
  0
VERTEX
  5
99
  8
POCKET_7_5MM_DOGBONE
 10
208.4169047558244
 20
1180.000000010132
 30
0.0
 42
-0.999999999994933
  0
SEQEND
  5
9A
  8
POCKET_7_5MM_DOGBONE
  0
POLYLINE
  5
9B
  8
POCKET_7_5MM_DOGBONE
 66
     1
 10
0.0
 20
0.0
 30
0.0
 70
     1
  0
VERTEX
  5
9C
  8
POCKET_7_5MM_DOGBONE
 10
576.250000010099
 20
1184.666904776106
 30
0.0
  0
VERTEX
  5
9D
  8
POCKET_7_5MM_DOGBONE
 10
576.2500000202125
 20
1198.700000000055
 30
0.0
 42
-0.4142135623729254
  0
VERTEX
  5
9E
  8
POCKET_7_5MM_DOGBONE
 10
579.5500000202192
 20
1202.000000000053
 30
0.0
  0
VERTEX
  5
9F
  8
POCKET_7_5MM_DOGBONE
 10
612.950000020217
 20
1202.00000000004
 30
0.0
 42
-0.4142135623746789
  0
VERTEX
  5
A0
  8
POCKET_7_5MM_DOGBONE
 10
616.2500000202208
 20
1198.700000000034
 30
0.0
  0
VERTEX
  5
A1
  8
POCKET_7_5MM_DOGBONE
 10
616.250000010099
 20
1184.666904735641
 30
0.0
 42
-1.000000000001169
  0
VERTEX
  5
A2
  8
POCKET_7_5MM_DOGBONE
 10
611.5830952441556
 20
1179.999999989928
 30
0.0
  0
VERTEX
  5
A3
  8
POCKET_7_5MM_DOGBONE
 10
580.9169047558244
 20
1180.000000010161
 30
0.0
 42
-0.999999999994933
  0
SEQEND
  5
A4
  8
POCKET_7_5MM_DOGBONE
  0
POLYLINE
  5
A5
  8
POCKET_7_5MM_DOGBONE
 66
     1
 10
0.0
 20
0.0
 30
0.0
 70
     1
  0
VERTEX
  5
A6
  8
POCKET_7_5MM_DOGBONE
 10
784.6669047760515
 20
1083.472202922303
 30
0.0
  0
VERTEX
  5
A7
  8
POCKET_7_5MM_DOGBONE
 10
798.7000000000044
 20
1083.47220291219
 30
0.0
 42
-0.4142135623746248
  0
VERTEX
  5
A8
  8
POCKET_7_5MM_DOGBONE
 10
802.0000000000023
 20
1080.172202912191
 30
0.0
  0
VERTEX
  5
A9
  8
POCKET_7_5MM_DOGBONE
 10
801.9999999999854
 20
1046.772202912189
 30
0.0
 42
-0.4142135623747351
  0
VERTEX
  5
AA
  8
POCKET_7_5MM_DOGBONE
 10
798.6999999999862
 20
1043.472202912193
 30
0.0
  0
VERTEX
  5
AB
  8
POCKET_7_5MM_DOGBONE
 10
784.6669047355899
 20
1043.472202922303
 30
0.0
 42
-1.00000000000078
  0
VERTEX
  5
AC
  8
POCKET_7_5MM_DOGBONE
 10
779.9999999898828
 20
1048.139107688241
 30
0.0
  0
VERTEX
  5
AD
  8
POCKET_7_5MM_DOGBONE
 10
780.0000000101136
 20
1078.805298176581
 30
0.0
 42
-0.9999999999953227
  0
SEQEND
  5
AE
  8
POCKET_7_5MM_DOGBONE
  0
POLYLINE
  5
AF
  8
POCKET_7_5MM_DOGBONE
 66
     1
 10
0.0
 20
0.0
 30
0.0
 70
     1
  0
VERTEX
  5
B0
  8
POCKET_7_5MM_DOGBONE
 10
784.6669047760515
 20
816.2502571502955
 30
0.0
  0
VERTEX
  5
B1
  8
POCKET_7_5MM_DOGBONE
 10
798.7000000000044
 20
816.2502571401819
 30
0.0
 42
-0.414213562374375
  0
VERTEX
  5
B2
  8
POCKET_7_5MM_DOGBONE
 10
802.0000000000027
 20
812.9502571401817
 30
0.0
  0
VERTEX
  5
B3
  8
POCKET_7_5MM_DOGBONE
 10
801.9999999999854
 20
779.5502571401812
 30
0.0
 42
-0.4142135623730951
  0
VERTEX
  5
B4
  8
POCKET_7_5MM_DOGBONE
 10
798.6999999999825
 20
776.2502571401783
 30
0.0
  0
VERTEX
  5
B5
  8
POCKET_7_5MM_DOGBONE
 10
784.6669047355899
 20
776.2502571502955
 30
0.0
 42
-1.000000000002022
  0
VERTEX
  5
B6
  8
POCKET_7_5MM_DOGBONE
 10
779.9999999898755
 20
780.9171619162371
 30
0.0
  0
VERTEX
  5
B7
  8
POCKET_7_5MM_DOGBONE
 10
780.0000000101136
 20
811.5833524045738
 30
0.0
 42
-0.9999999999953227
  0
SEQEND
  5
B8
  8
POCKET_7_5MM_DOGBONE
  0
POLYLINE
  5
B9
  8
POCKET_7_5MM_DOGBONE
 66
     1
 10
0.0
 20
0.0
 30
0.0
 70
     1
  0
VERTEX
  5
BA
  8
POCKET_7_5MM_DOGBONE
 10
784.6669047760515
 20
443.7502571501464
 30
0.0
  0
VERTEX
  5
BB
  8
POCKET_7_5MM_DOGBONE
 10
798.7000000000044
 20
443.7502571400328
 30
0.0
 42
-0.4142135623743726
  0
VERTEX
  5
BC
  8
POCKET_7_5MM_DOGBONE
 10
802.0000000000027
 20
440.4502571400326
 30
0.0
  0
VERTEX
  5
BD
  8
POCKET_7_5MM_DOGBONE
 10
801.9999999999854
 20
407.050257140032
 30
0.0
 42
-0.4142135623740245
  0
VERTEX
  5
BE
  8
POCKET_7_5MM_DOGBONE
 10
798.6999999999825
 20
403.7502571400328
 30
0.0
  0
VERTEX
  5
BF
  8
POCKET_7_5MM_DOGBONE
 10
784.6669047355899
 20
403.7502571501464
 30
0.0
 42
-1.00000000000078
  0
VERTEX
  5
C0
  8
POCKET_7_5MM_DOGBONE
 10
779.9999999898828
 20
408.4171619160843
 30
0.0
  0
VERTEX
  5
C1
  8
POCKET_7_5MM_DOGBONE
 10
780.0000000101136
 20
439.0833524044247
 30
0.0
 42
-0.999999999994933
  0
SEQEND
  5
C2
  8
POCKET_7_5MM_DOGBONE
  0
POLYLINE
  5
C3
  8
POCKET_7_5MM_DOGBONE
 66
     1
 10
0.0
 20
0.0
 30
0.0
 70
     1
  0
VERTEX
  5
C4
  8
POCKET_7_5MM_DOGBONE
 10
784.6669047760515
 20
176.5283113779897
 30
0.0
  0
VERTEX
  5
C5
  8
POCKET_7_5MM_DOGBONE
 10
798.7000000000044
 20
176.5283113678761
 30
0.0
 42
-0.4142135623745411
  0
VERTEX
  5
C6
  8
POCKET_7_5MM_DOGBONE
 10
802.0000000000005
 20
173.2283113678755
 30
0.0
  0
VERTEX
  5
C7
  8
POCKET_7_5MM_DOGBONE
 10
801.9999999999854
 20
139.8283113678754
 30
0.0
 42
-0.4142135623732539
  0
VERTEX
  5
C8
  8
POCKET_7_5MM_DOGBONE
 10
798.6999999999825
 20
136.5283113678706
 30
0.0
  0
VERTEX
  5
C9
  8
POCKET_7_5MM_DOGBONE
 10
784.6669047355899
 20
136.5283113779896
 30
0.0
 42
-1.000000000001949
  0
VERTEX
  5
CA
  8
POCKET_7_5MM_DOGBONE
 10
779.9999999898755
 20
141.1952161439312
 30
0.0
  0
VERTEX
  5
CB
  8
POCKET_7_5MM_DOGBONE
 10
780.0000000101136
 20
171.861406632268
 30
0.0
 42
-0.9999999999953227
  0
SEQEND
  5
CC
  8
POCKET_7_5MM_DOGBONE
  0
POLYLINE
  5
CD
  8
POCKET_7_5MM_DOGBONE
 66
     1
 10
0.0
 20
0.0
 30
0.0
 70
     1
  0
VERTEX
  5
CE
  8
POCKET_7_5MM_DOGBONE
 10
616.2499999898864
 20
35.33309522399213
 30
0.0
  0
VERTEX
  5
CF
  8
POCKET_7_5MM_DOGBONE
 10
616.2499999797728
 20
21.30000000004293
 30
0.0
 42
-0.4142135623730987
  0
VERTEX
  5
D0
  8
POCKET_7_5MM_DOGBONE
 10
612.9499999797699
 20
18.00000000004002
 30
0.0
  0
VERTEX
  5
D1
  8
POCKET_7_5MM_DOGBONE
 10
579.5499999797757
 20
18.00000000005094
 30
0.0
 42
-0.4142135623737485
  0
VERTEX
  5
D2
  8
POCKET_7_5MM_DOGBONE
 10
576.2499999797783
 20
21.30000000005933
 30
0.0
  0
VERTEX
  5
D3
  8
POCKET_7_5MM_DOGBONE
 10
576.2499999898864
 20
35.33309526445009
 30
0.0
 42
-1.000000000001169
  0
VERTEX
  5
D4
  8
POCKET_7_5MM_DOGBONE
 10
580.9169047558298
 20
40.00000001016269
 30
0.0
  0
VERTEX
  5
D5
  8
POCKET_7_5MM_DOGBONE
 10
611.5830952441611
 20
39.99999998993375
 30
0.0
 42
-0.9999999999964463
  0
SEQEND
  5
D6
  8
POCKET_7_5MM_DOGBONE
  0
POLYLINE
  5
D7
  8
POCKET_7_5MM_DOGBONE
 66
     1
 10
0.0
 20
0.0
 30
0.0
 70
     1
  0
VERTEX
  5
D8
  8
POCKET_7_5MM_DOGBONE
 10
243.7499999898864
 20
35.33309522396485
 30
0.0
  0
VERTEX
  5
D9
  8
POCKET_7_5MM_DOGBONE
 10
243.7499999797729
 20
21.30000000001564
 30
0.0
 42
-0.4142135623751881
  0
VERTEX
  5
DA
  8
POCKET_7_5MM_DOGBONE
 10
240.4499999797736
 20
18.00000000001455
 30
0.0
  0
VERTEX
  5
DB
  8
POCKET_7_5MM_DOGBONE
 10
207.0499999797757
 20
18.00000000002365
 30
0.0
 42
-0.4142135623735814
  0
VERTEX
  5
DC
  8
POCKET_7_5MM_DOGBONE
 10
203.7499999797738
 20
21.30000000002931
 30
0.0
  0
VERTEX
  5
DD
  8
POCKET_7_5MM_DOGBONE
 10
203.7499999898864
 20
35.33309526442281
 30
0.0
 42
-1.000000000001169
  0
VERTEX
  5
DE
  8
POCKET_7_5MM_DOGBONE
 10
208.4169047558298
 20
40.00000001013541
 30
0.0
  0
VERTEX
  5
DF
  8
POCKET_7_5MM_DOGBONE
 10
239.0830952441611
 20
39.99999998990642
 30
0.0
 42
-0.9999999999965042
  0
SEQEND
  5
E0
  8
POCKET_7_5MM_DOGBONE
  0
POLYLINE
  5
E1
  8
POCKET_7_5MM_DOGBONE
 66
     1
 10
0.0
 20
0.0
 30
0.0
 70
     1
  0
VERTEX
  5
E2
  8
POCKET_7_5MM_DOGBONE
 10
35.3330952239412
 20
136.5283113981532
 30
0.0
  0
VERTEX
  5
E3
  8
POCKET_7_5MM_DOGBONE
 10
21.29999999998836
 20
136.5283114082613
 30
0.0
 42
-0.4142135623730266
  0
VERTEX
  5
E4
  8
POCKET_7_5MM_DOGBONE
 10
17.99999999998693
 20
139.8283114082612
 30
0.0
  0
VERTEX
  5
E5
  8
POCKET_7_5MM_DOGBONE
 10
17.99999999999273
 20
173.2283114082602
 30
0.0
 42
-0.4142135623730924
  0
VERTEX
  5
E6
  8
POCKET_7_5MM_DOGBONE
 10
21.29999999999927
 20
176.5283114082595
 30
0.0
  0
VERTEX
  5
E7
  8
POCKET_7_5MM_DOGBONE
 10
35.33309526438825
 20
176.5283113981532
 30
0.0
 42
-1.000000000001803
  0
VERTEX
  5
E8
  8
POCKET_7_5MM_DOGBONE
 10
40.00000001010221
 20
171.8614066322098
 30
0.0
  0
VERTEX
  5
E9
  8
POCKET_7_5MM_DOGBONE
 10
39.9999999898864
 20
141.1952161438748
 30
0.0
 42
-0.9999999999961359
  0
SEQEND
  5
EA
  8
POCKET_7_5MM_DOGBONE
  0
POLYLINE
  5
EB
  8
POCKET_7_5MM_DOGBONE
 66
     1
 10
0.0
 20
0.0
 30
0.0
 70
     1
  0
VERTEX
  5
EC
  8
POCKET_7_5MM_DOGBONE
 10
35.3330952239412
 20
403.750257170308
 30
0.0
  0
VERTEX
  5
ED
  8
POCKET_7_5MM_DOGBONE
 10
21.29999999998836
 20
403.750257180418
 30
0.0
 42
-0.4142135623726954
  0
VERTEX
  5
EE
  8
POCKET_7_5MM_DOGBONE
 10
17.9999999999836
 20
407.0502571804183
 30
0.0
  0
VERTEX
  5
EF
  8
POCKET_7_5MM_DOGBONE
 10
17.99999999999272
 20
440.4502571804187
 30
0.0
 42
-0.4142135623739031
  0
VERTEX
  5
F0
  8
POCKET_7_5MM_DOGBONE
 10
21.29999999999563
 20
443.7502571804162
 30
0.0
  0
VERTEX
  5
F1
  8
POCKET_7_5MM_DOGBONE
 10
35.33309526438822
 20
443.7502571703081
 30
0.0
 42
-1.000000000003382
  0
VERTEX
  5
F2
  8
POCKET_7_5MM_DOGBONE
 10
40.00000001010949
 20
439.0833524043646
 30
0.0
  0
VERTEX
  5
F3
  8
POCKET_7_5MM_DOGBONE
 10
39.99999998988638
 20
408.4171619160297
 30
0.0
 42
-0.9999999999961237
  0
SEQEND
  5
F4
  8
POCKET_7_5MM_DOGBONE
  0
POLYLINE
  5
F5
  8
POCKET_7_5MM_DOGBONE
 66
     1
 10
0.0
 20
0.0
 30
0.0
 70
     1
  0
VERTEX
  5
F6
  8
POCKET_7_5MM_DOGBONE
 10
35.3330952239412
 20
776.2502571704572
 30
0.0
  0
VERTEX
  5
F7
  8
POCKET_7_5MM_DOGBONE
 10
21.29999999998836
 20
776.2502571805672
 30
0.0
 42
-0.4142135623729995
  0
VERTEX
  5
F8
  8
POCKET_7_5MM_DOGBONE
 10
17.9999999999871
 20
779.5502571805672
 30
0.0
  0
VERTEX
  5
F9
  8
POCKET_7_5MM_DOGBONE
 10
17.99999999999272
 20
812.9502571805679
 30
0.0
 42
-0.4142135623740594
  0
VERTEX
  5
FA
  8
POCKET_7_5MM_DOGBONE
 10
21.29999999999563
 20
816.2502571805671
 30
0.0
  0
VERTEX
  5
FB
  8
POCKET_7_5MM_DOGBONE
 10
35.33309526438829
 20
816.2502571704572
 30
0.0
 42
-1.000000000003316
  0
VERTEX
  5
FC
  8
POCKET_7_5MM_DOGBONE
 10
40.00000001010949
 20
811.5833524045138
 30
0.0
  0
VERTEX
  5
FD
  8
POCKET_7_5MM_DOGBONE
 10
39.99999998988635
 20
780.9171619161788
 30
0.0
 42
-0.9999999999957613
  0
SEQEND
  5
FE
  8
POCKET_7_5MM_DOGBONE
  0
POLYLINE
  5
FF
  8
POCKET_7_5MM_DOGBONE
 66
     1
 10
0.0
 20
0.0
 30
0.0
 70
     1
  0
VERTEX
  5
100
  8
POCKET_7_5MM_DOGBONE
 10
35.33309522394848
 20
1043.472202922247
 30
0.0
  0
VERTEX
  5
101
  8
POCKET_7_5MM_DOGBONE
 10
21.29999999999563
 20
1043.472202932355
 30
0.0
 42
-0.4142135623717271
  0
VERTEX
  5
102
  8
POCKET_7_5MM_DOGBONE
 10
17.99999999999443
 20
1046.772202932355
 30
0.0
  0
VERTEX
  5
103
  8
POCKET_7_5MM_DOGBONE
 10
18.0
 20
1080.172202932356
 30
0.0
 42
-0.4142135623735901
  0
VERTEX
  5
104
  8
POCKET_7_5MM_DOGBONE
 10
21.30000000000291
 20
1083.472202932349
 30
0.0
  0
VERTEX
  5
105
  8
POCKET_7_5MM_DOGBONE
 10
35.33309526439546
 20
1083.472202922247
 30
0.0
 42
-1.000000000000874
  0
VERTEX
  5
106
  8
POCKET_7_5MM_DOGBONE
 10
40.00000001010221
 20
1078.805298156309
 30
0.0
  0
VERTEX
  5
107
  8
POCKET_7_5MM_DOGBONE
 10
39.99999998988662
 20
1048.139107667969
 30
0.0
 42
-0.999999999995676
  0
SEQEND
  5
108
  8
POCKET_7_5MM_DOGBONE
  0
POLYLINE
  5
109
  8
POCKET_7_5MM_DOGBONE
 66
     1
 10
0.0
 20
0.0
 30
0.0
 70
     1
  0
VERTEX
  5
10A
  8
POCKET_7_5MM_DOGBONE
 10
243.7499999999927
 20
612.8330952366052
 30
0.0
 42
1.000000005957256
  0
VERTEX
  5
10B
  8
POCKET_7_5MM_DOGBONE
 10
239.0830952593236
 20
617.5000000075989
 30
0.0
  0
VERTEX
  5
10C
  8
POCKET_7_5MM_DOGBONE
 10
208.4169047760515
 20
617.5000000202381
 30
0.0
 42
1.000000000001535
  0
VERTEX
  5
10D
  8
POCKET_7_5MM_DOGBONE
 10
203.7500000202201
 20
612.8330952644064
 30
0.0
  0
VERTEX
  5
10E
  8
POCKET_7_5MM_DOGBONE
 10
203.7499999797802
 20
607.1669047760678
 30
0.0
 42
1.00000000000218
  0
VERTEX
  5
10F
  8
POCKET_7_5MM_DOGBONE
 10
208.4169047356006
 20
602.5000000202422
 30
0.0
  0
VERTEX
  5
110
  8
POCKET_7_5MM_DOGBONE
 10
239.0830952239484
 20
602.4999999797983
 30
0.0
 42
0.9999999999969306
  0
VERTEX
  5
111
  8
POCKET_7_5MM_DOGBONE
 10
243.7499999797751
 20
607.1669047356252
 30
0.0
  0
SEQEND
  5
112
  8
POCKET_7_5MM_DOGBONE
  0
POLYLINE
  5
113
  8
POCKET_7_5MM_DOGBONE
 66
     1
 10
0.0
 20
0.0
 30
0.0
 70
     1
  0
VERTEX
  5
114
  8
POCKET_7_5MM_DOGBONE
 10
616.2499999999927
 20
612.8330952366327
 30
0.0
 42
1.000000005956781
  0
VERTEX
  5
115
  8
POCKET_7_5MM_DOGBONE
 10
611.5830952593258
 20
617.5000000076245
 30
0.0
  0
VERTEX
  5
116
  8
POCKET_7_5MM_DOGBONE
 10
580.9169047760367
 20
617.5000000202634
 30
0.0
 42
1.000000000001559
  0
VERTEX
  5
117
  8
POCKET_7_5MM_DOGBONE
 10
576.2500000202053
 20
612.8330952644316
 30
0.0
  0
VERTEX
  5
118
  8
POCKET_7_5MM_DOGBONE
 10
576.2499999797802
 20
607.1669047760951
 30
0.0
 42
1.000000000003045
  0
VERTEX
  5
119
  8
POCKET_7_5MM_DOGBONE
 10
580.9169047356166
 20
602.5000000202646
 30
0.0
  0
VERTEX
  5
11A
  8
POCKET_7_5MM_DOGBONE
 10
611.5830952239487
 20
602.4999999798275
 30
0.0
 42
0.9999999999992205
  0
VERTEX
  5
11B
  8
POCKET_7_5MM_DOGBONE
 10
616.2499999797873
 20
607.1669047356597
 30
0.0
  0
SEQEND
  5
11C
  8
POCKET_7_5MM_DOGBONE
  0
POLYLINE
  5
11D
  8
POCKET_7_5MM_DOGBONE
 66
     1
 10
0.0
 20
0.0
 30
0.0
 70
     1
  0
VERTEX
  5
11E
  8
POCKET_7_5MM_DOGBONE
 10
417.5000000101063
 20
171.8614066120201
 30
0.0
 42
1.000000000002436
  0
VERTEX
  5
11F
  8
POCKET_7_5MM_DOGBONE
 10
412.8330952643842
 20
176.5283113779626
 30
0.0
  0
VERTEX
  5
120
  8
POCKET_7_5MM_DOGBONE
 10
407.1669047760443
 20
176.5283114082886
 30
0.0
 42
0.9999999999968209
  0
VERTEX
  5
121
  8
POCKET_7_5MM_DOGBONE
 10
402.5000000202197
 20
171.8614066524644
 30
0.0
  0
VERTEX
  5
122
  8
POCKET_7_5MM_DOGBONE
 10
402.4999999797801
 20
141.195216164122
 30
0.0
 42
1.000000000003124
  0
VERTEX
  5
123
  8
POCKET_7_5MM_DOGBONE
 10
407.1669047356187
 20
136.5283114082874
 30
0.0
  0
VERTEX
  5
124
  8
POCKET_7_5MM_DOGBONE
 10
412.8330952239485
 20
136.5283113678543
 30
0.0
 42
0.9999999999996833
  0
VERTEX
  5
125
  8
POCKET_7_5MM_DOGBONE
 10
417.4999999797748
 20
141.1952161236886
 30
0.0
  0
SEQEND
  5
126
  8
POCKET_7_5MM_DOGBONE
  0
POLYLINE
  5
127
  8
POCKET_7_5MM_DOGBONE
 66
     1
 10
0.0
 20
0.0
 30
0.0
 70
     1
  0
VERTEX
  5
128
  8
POCKET_7_5MM_DOGBONE
 10
417.5000000101099
 20
439.0833523841779
 30
0.0
 42
1.000000000002972
  0
VERTEX
  5
129
  8
POCKET_7_5MM_DOGBONE
 10
412.8330952643926
 20
443.7502571501193
 30
0.0
  0
VERTEX
  5
12A
  8
POCKET_7_5MM_DOGBONE
 10
407.1669047760442
 20
443.750257180447
 30
0.0
 42
0.9999999999978685
  0
VERTEX
  5
12B
  8
POCKET_7_5MM_DOGBONE
 10
402.500000020209
 20
439.0833524246098
 30
0.0
  0
VERTEX
  5
12C
  8
POCKET_7_5MM_DOGBONE
 10
402.4999999797728
 20
408.4171619362805
 30
0.0
 42
1.000000000000499
  0
VERTEX
  5
12D
  8
POCKET_7_5MM_DOGBONE
 10
407.1669047356105
 20
403.750257180444
 30
0.0
  0
VERTEX
  5
12E
  8
POCKET_7_5MM_DOGBONE
 10
412.8330952239339
 20
403.7502571400109
 30
0.0
 42
1.000000000000682
  0
VERTEX
  5
12F
  8
POCKET_7_5MM_DOGBONE
 10
417.4999999797696
 20
408.4171618958385
 30
0.0
  0
SEQEND
  5
130
  8
POCKET_7_5MM_DOGBONE
  0
POLYLINE
  5
131
  8
POCKET_7_5MM_DOGBONE
 66
     1
 10
0.0
 20
0.0
 30
0.0
 70
     1
  0
VERTEX
  5
132
  8
POCKET_7_5MM_DOGBONE
 10
94.99999999999636
 20
933.8330952365932
 30
0.0
 42
1.000000005957439
  0
VERTEX
  5
133
  8
POCKET_7_5MM_DOGBONE
 10
90.33309525933373
 20
938.5000000075847
 30
0.0
  0
VERTEX
  5
134
  8
POCKET_7_5MM_DOGBONE
 10
59.66690477604423
 20
938.5000000202217
 30
0.0
 42
1.000000000002754
  0
VERTEX
  5
135
  8
POCKET_7_5MM_DOGBONE
 10
55.00000002020374
 20
933.8330952643814
 30
0.0
  0
VERTEX
  5
136
  8
POCKET_7_5MM_DOGBONE
 10
54.99999997977997
 20
928.1669047760589
 30
0.0
 42
1.000000000007004
  0
VERTEX
  5
137
  8
POCKET_7_5MM_DOGBONE
 10
59.66690473560766
 20
923.500000020224
 30
0.0
  0
VERTEX
  5
138
  8
POCKET_7_5MM_DOGBONE
 10
90.33309522394843
 20
923.4999999797947
 30
0.0
 42
0.9999999999984986
  0
VERTEX
  5
139
  8
POCKET_7_5MM_DOGBONE
 10
94.99999997979091
 20
928.166904735627
 30
0.0
  0
SEQEND
  5
13A
  8
POCKET_7_5MM_DOGBONE
  0
POLYLINE
  5
13B
  8
POCKET_7_5MM_DOGBONE
 66
     1
 10
0.0
 20
0.0
 30
0.0
 70
     1
  0
VERTEX
  5
13C
  8
POCKET_7_5MM_DOGBONE
 10
94.99999999999272
 20
291.8330952365822
 30
0.0
 42
1.000000005956756
  0
VERTEX
  5
13D
  8
POCKET_7_5MM_DOGBONE
 10
90.333095259326
 20
296.5000000075735
 30
0.0
  0
VERTEX
  5
13E
  8
POCKET_7_5MM_DOGBONE
 10
59.66690477604425
 20
296.5000000202126
 30
0.0
 42
1.000000000001334
  0
VERTEX
  5
13F
  8
POCKET_7_5MM_DOGBONE
 10
55.00000002022448
 20
291.8330952643873
 30
0.0
  0
VERTEX
  5
140
  8
POCKET_7_5MM_DOGBONE
 10
54.99999997978738
 20
286.1669047760479
 30
0.0
 42
1.000000000003179
  0
VERTEX
  5
141
  8
POCKET_7_5MM_DOGBONE
 10
59.66690473561391
 20
281.5000000202149
 30
0.0
  0
VERTEX
  5
142
  8
POCKET_7_5MM_DOGBONE
 10
90.33309522394849
 20
281.4999999797801
 30
0.0
 42
0.9999999999964403
  0
VERTEX
  5
143
  8
POCKET_7_5MM_DOGBONE
 10
94.9999999797761
 20
286.166904735611
 30
0.0
  0
SEQEND
  5
144
  8
POCKET_7_5MM_DOGBONE
  0
POLYLINE
  5
145
  8
POCKET_7_5MM_DOGBONE
 66
     1
 10
0.0
 20
0.0
 30
0.0
 70
     1
  0
VERTEX
  5
146
  8
POCKET_7_5MM_DOGBONE
 10
764.9999999999927
 20
933.8330952366546
 30
0.0
 42
1.000000005956464
  0
VERTEX
  5
147
  8
POCKET_7_5MM_DOGBONE
 10
760.3330952542633
 20
938.5000000076479
 30
0.0
  0
VERTEX
  5
148
  8
POCKET_7_5MM_DOGBONE
 10
729.6669047760371
 20
938.5000000202854
 30
0.0
 42
0.9999999999977102
  0
VERTEX
  5
149
  8
POCKET_7_5MM_DOGBONE
 10
725.0000000202128
 20
933.8330952644534
 30
0.0
  0
VERTEX
  5
14A
  8
POCKET_7_5MM_DOGBONE
 10
724.9999999797728
 20
928.1669047761188
 30
0.0
 42
1.000000000006309
  0
VERTEX
  5
14B
  8
POCKET_7_5MM_DOGBONE
 10
729.666904735595
 20
923.5000000202932
 30
0.0
  0
VERTEX
  5
14C
  8
POCKET_7_5MM_DOGBONE
 10
760.3330952239484
 20
923.4999999798491
 30
0.0
 42
0.9999999999977832
  0
VERTEX
  5
14D
  8
POCKET_7_5MM_DOGBONE
 10
764.9999999797705
 20
928.1669047356801
 30
0.0
  0
SEQEND
  5
14E
  8
POCKET_7_5MM_DOGBONE
  0
POLYLINE
  5
14F
  8
POCKET_7_5MM_DOGBONE
 66
     1
 10
0.0
 20
0.0
 30
0.0
 70
     1
  0
VERTEX
  5
150
  8
POCKET_7_5MM_DOGBONE
 10
764.9999999999927
 20
291.8330952366438
 30
0.0
 42
1.000000005956805
  0
VERTEX
  5
151
  8
POCKET_7_5MM_DOGBONE
 10
760.3330952593258
 20
296.5000000076353
 30
0.0
  0
VERTEX
  5
152
  8
POCKET_7_5MM_DOGBONE
 10
729.666904776037
 20
296.5000000202744
 30
0.0
 42
0.9999999999977344
  0
VERTEX
  5
153
  8
POCKET_7_5MM_DOGBONE
 10
725.000000020213
 20
291.8330952644428
 30
0.0
  0
VERTEX
  5
154
  8
POCKET_7_5MM_DOGBONE
 10
724.9999999797802
 20
286.166904776106
 30
0.0
 42
1.000000000009488
  0
VERTEX
  5
155
  8
POCKET_7_5MM_DOGBONE
 10
729.666904735617
 20
281.5000000202737
 30
0.0
  0
VERTEX
  5
156
  8
POCKET_7_5MM_DOGBONE
 10
760.3330952239482
 20
281.4999999798382
 30
0.0
 42
0.9999999999995858
  0
VERTEX
  5
157
  8
POCKET_7_5MM_DOGBONE
 10
764.9999999797857
 20
286.1669047356714
 30
0.0
  0
SEQEND
  5
158
  8
POCKET_7_5MM_DOGBONE
  0
POLYLINE
  5
159
  8
POCKET_7_5MM_DOGBONE
 66
     1
 10
0.0
 20
0.0
 30
0.0
 70
     1
  0
VERTEX
  5
15A
  8
POCKET_7_5MM_DOGBONE
 10
466.2501822215927
 20
933.8330952366275
 30
0.0
 42
1.000000005956367
  0
VERTEX
  5
15B
  8
POCKET_7_5MM_DOGBONE
 10
461.5832774809278
 20
938.5000000076245
 30
0.0
  0
VERTEX
  5
15C
  8
POCKET_7_5MM_DOGBONE
 10
430.9170869976514
 20
938.5000000202563
 30
0.0
 42
1.00000000000246
  0
VERTEX
  5
15D
  8
POCKET_7_5MM_DOGBONE
 10
426.2501822418251
 20
933.8330952644288
 30
0.0
  0
VERTEX
  5
15E
  8
POCKET_7_5MM_DOGBONE
 10
426.2501822013728
 20
928.1669047760897
 30
0.0
 42
1.000000000000853
  0
VERTEX
  5
15F
  8
POCKET_7_5MM_DOGBONE
 10
430.9170869572123
 20
923.5000000202583
 30
0.0
  0
VERTEX
  5
160
  8
POCKET_7_5MM_DOGBONE
 10
461.5832774455485
 20
923.4999999798239
 30
0.0
 42
0.9999999999987089
  0
VERTEX
  5
161
  8
POCKET_7_5MM_DOGBONE
 10
466.2501822013909
 20
928.166904735662
 30
0.0
  0
SEQEND
  5
162
  8
POCKET_7_5MM_DOGBONE
  0
POLYLINE
  5
163
  8
POCKET_7_5MM_DOGBONE
 66
     1
 10
0.0
 20
0.0
 30
0.0
 70
     1
  0
VERTEX
  5
164
  8
POCKET_7_5MM_DOGBONE
 10
417.5000000101027
 20
1078.805298156333
 30
0.0
 42
1.00000000000285
  0
VERTEX
  5
165
  8
POCKET_7_5MM_DOGBONE
 10
412.8330952643857
 20
1083.472202922274
 30
0.0
  0
VERTEX
  5
166
  8
POCKET_7_5MM_DOGBONE
 10
407.1669047760444
 20
1083.472202952602
 30
0.0
 42
0.9999999999978685
  0
VERTEX
  5
167
  8
POCKET_7_5MM_DOGBONE
 10
402.5000000202114
 20
1078.805298196775
 30
0.0
  0
VERTEX
  5
168
  8
POCKET_7_5MM_DOGBONE
 10
402.4999999797802
 20
1048.139107708437
 30
0.0
 42
1.000000000001876
  0
VERTEX
  5
169
  8
POCKET_7_5MM_DOGBONE
 10
407.1669047356114
 20
1043.472202952609
 30
0.0
  0
VERTEX
  5
16A
  8
POCKET_7_5MM_DOGBONE
 10
412.8330952239412
 20
1043.472202912169
 30
0.0
 42
0.9999999999984653
  0
VERTEX
  5
16B
  8
POCKET_7_5MM_DOGBONE
 10
417.4999999797727
 20
1048.139107668001
 30
0.0
  0
SEQEND
  5
16C
  8
POCKET_7_5MM_DOGBONE
  0
POLYLINE
  5
16D
  8
POCKET_7_5MM_DOGBONE
 66
     1
 10
0.0
 20
0.0
 30
0.0
 70
     1
  0
VERTEX
  5
16E
  8
POCKET_7_5MM_DOGBONE
 10
417.5000000101027
 20
811.5833523843276
 30
0.0
 42
1.000000000002923
  0
VERTEX
  5
16F
  8
POCKET_7_5MM_DOGBONE
 10
412.8330952643855
 20
816.2502571502682
 30
0.0
  0
VERTEX
  5
170
  8
POCKET_7_5MM_DOGBONE
 10
407.1669047760443
 20
816.2502571805945
 30
0.0
 42
0.9999999999985384
  0
VERTEX
  5
171
  8
POCKET_7_5MM_DOGBONE
 10
402.5000000202132
 20
811.5833524247621
 30
0.0
  0
VERTEX
  5
172
  8
POCKET_7_5MM_DOGBONE
 10
402.4999999797728
 20
780.9171619364315
 30
0.0
 42
1.000000000001803
  0
VERTEX
  5
173
  8
POCKET_7_5MM_DOGBONE
 10
407.1669047356042
 20
776.2502571806024
 30
0.0
  0
VERTEX
  5
174
  8
POCKET_7_5MM_DOGBONE
 10
412.8330952239485
 20
776.2502571401637
 30
0.0
 42
0.9999999999983556
  0
VERTEX
  5
175
  8
POCKET_7_5MM_DOGBONE
 10
417.4999999797805
 20
780.917161895995
 30
0.0
  0
SEQEND
  5
176
  8
POCKET_7_5MM_DOGBONE
  0
CIRCLE
  5
177
  8
POCKET_15_5MM
 10
-460.0
 20
1060.000000000011
 30
0.0
 40
9.999999999993179
210
0.0
220
0.0
230
-1.0
  0
CIRCLE
  5
178
  8
POCKET_15_5MM
 10
-460.0
 20
960.0000000000109
 30
0.0
 40
9.999999999993179
210
0.0
220
0.0
230
-1.0
  0
CIRCLE
  5
179
  8
POCKET_15_5MM
 10
-460.0
 20
860.0000000000109
 30
0.0
 40
9.999999999993179
210
0.0
220
0.0
230
-1.0
  0
CIRCLE
  5
17A
  8
POCKET_15_5MM
 10
-460.0
 20
760.0000000000146
 30
0.0
 40
9.99999999998954
210
0.0
220
0.0
230
-1.0
  0
CIRCLE
  5
17B
  8
DRILL_DOWN__SCREWS_
 10
417.4987684715015
 20
1207.500000000004
 30
0.0
 40
12.5
  0
CIRCLE
  5
17C
  8
DRILL_DOWN__SCREWS_
 10
12.5
 20
952.7729011935935
 30
0.0
 40
12.5
  0
CIRCLE
  5
17D
  8
DRILL_DOWN__SCREWS_
 10
12.5
 20
271.4160723191235
 30
0.0
 40
12.5
  0
CIRCLE
  5
17E
  8
DRILL_DOWN__SCREWS_
 10
12.5
 20
608.8859731425437
 30
0.0
 40
12.5
  0
CIRCLE
  5
17F
  8
DRILL_DOWN__SCREWS_
 10
807.5
 20
608.8859731425437
 30
0.0
 40
12.5
  0
CIRCLE
  5
180
  8
DRILL_DOWN__SCREWS_
 10
807.5
 20
271.4160723191235
 30
0.0
 40
12.5
  0
CIRCLE
  5
181
  8
DRILL_DOWN__SCREWS_
 10
807.5
 20
952.7729011935935
 30
0.0
 40
12.5
  0
CIRCLE
  5
182
  8
DRILL_DOWN__SCREWS_
 10
808.0084020983923
 20
12.50000000000364
 30
0.0
 40
12.5
  0
CIRCLE
  5
183
  8
DRILL_DOWN__SCREWS_
 10
1603.998768471502
 20
608.8859731425455
 30
0.0
 40
12.5
  0
CIRCLE
  5
184
  8
DRILL_DOWN__SCREWS_
 10
1603.998768471502
 20
271.4160723191235
 30
0.0
 40
12.5
  0
CIRCLE
  5
185
  8
DRILL_DOWN__SCREWS_
 10
1603.998768471502
 20
952.7729011935953
 30
0.0
 40
12.5
  0
CIRCLE
  5
186
  8
DRILL_DOWN__SCREWS_
 10
1212.498768471502
 20
1207.500000000004
 30
0.0
 40
12.5
  0
CIRCLE
  5
187
  8
DRILL_DOWN__SCREWS_
 10
1212.498768471502
 20
12.50000000000364
 30
0.0
 40
12.5
  0
CIRCLE
  5
188
  8
POCKET_15_5MM
 10
-1254.999999999993
 20
760.0000000000146
 30
0.0
 40
9.99999999998954
210
0.0
220
0.0
230
-1.0
  0
CIRCLE
  5
189
  8
POCKET_15_5MM
 10
-1255.0
 20
860.0000000000109
 30
0.0
 40
9.999999999993179
210
0.0
220
0.0
230
-1.0
  0
CIRCLE
  5
18A
  8
POCKET_15_5MM
 10
-1255.0
 20
960.0000000000109
 30
0.0
 40
9.999999999993179
210
0.0
220
0.0
230
-1.0
  0
CIRCLE
  5
18B
  8
POCKET_15_5MM
 10
-1255.0
 20
1060.000000000011
 30
0.0
 40
9.999999999993179
210
0.0
220
0.0
230
-1.0
  0
POLYLINE
  5
18C
  8
POCKET_7_5MM_DOGBONE
 66
     1
 10
0.0
 20
0.0
 30
0.0
 70
     1
  0
VERTEX
  5
18D
  8
POCKET_7_5MM_DOGBONE
 10
1212.500000010095
 20
811.5833523843276
 30
0.0
 42
1.000000000002923
  0
VERTEX
  5
18E
  8
POCKET_7_5MM_DOGBONE
 10
1207.833095264378
 20
816.2502571502682
 30
0.0
  0
VERTEX
  5
18F
  8
POCKET_7_5MM_DOGBONE
 10
1202.166904776037
 20
816.2502571805943
 30
0.0
 42
0.9999999999979049
  0
VERTEX
  5
190
  8
POCKET_7_5MM_DOGBONE
 10
1197.500000020213
 20
811.5833524247621
 30
0.0
  0
VERTEX
  5
191
  8
POCKET_7_5MM_DOGBONE
 10
1197.499999979773
 20
780.9171619364313
 30
0.0
 42
1.000000000002631
  0
VERTEX
  5
192
  8
POCKET_7_5MM_DOGBONE
 10
1202.166904735597
 20
776.2502571806024
 30
0.0
  0
VERTEX
  5
193
  8
POCKET_7_5MM_DOGBONE
 10
1207.833095223948
 20
776.2502571401637
 30
0.0
 42
0.9999999999975152
  0
VERTEX
  5
194
  8
POCKET_7_5MM_DOGBONE
 10
1212.499999979773
 20
780.917161895995
 30
0.0
  0
SEQEND
  5
195
  8
POCKET_7_5MM_DOGBONE
  0
POLYLINE
  5
196
  8
POCKET_7_5MM_DOGBONE
 66
     1
 10
0.0
 20
0.0
 30
0.0
 70
     1
  0
VERTEX
  5
197
  8
POCKET_7_5MM_DOGBONE
 10
1212.500000010095
 20
1078.805298156333
 30
0.0
 42
1.000000000002826
  0
VERTEX
  5
198
  8
POCKET_7_5MM_DOGBONE
 10
1207.833095264378
 20
1083.472202922274
 30
0.0
  0
VERTEX
  5
199
  8
POCKET_7_5MM_DOGBONE
 10
1202.166904776037
 20
1083.472202952602
 30
0.0
 42
0.9999999999971741
  0
VERTEX
  5
19A
  8
POCKET_7_5MM_DOGBONE
 10
1197.500000020211
 20
1078.805298196775
 30
0.0
  0
VERTEX
  5
19B
  8
POCKET_7_5MM_DOGBONE
 10
1197.499999979773
 20
1048.139107708437
 30
0.0
 42
1.0000000000019
  0
VERTEX
  5
19C
  8
POCKET_7_5MM_DOGBONE
 10
1202.166904735604
 20
1043.472202952609
 30
0.0
  0
VERTEX
  5
19D
  8
POCKET_7_5MM_DOGBONE
 10
1207.833095223934
 20
1043.472202912169
 30
0.0
 42
0.9999999999992205
  0
VERTEX
  5
19E
  8
POCKET_7_5MM_DOGBONE
 10
1212.499999979773
 20
1048.139107668001
 30
0.0
  0
SEQEND
  5
19F
  8
POCKET_7_5MM_DOGBONE
  0
POLYLINE
  5
1A0
  8
POCKET_7_5MM_DOGBONE
 66
     1
 10
0.0
 20
0.0
 30
0.0
 70
     1
  0
VERTEX
  5
1A1
  8
POCKET_7_5MM_DOGBONE
 10
1261.250182221593
 20
933.8330952366275
 30
0.0
 42
1.000000005956415
  0
VERTEX
  5
1A2
  8
POCKET_7_5MM_DOGBONE
 10
1256.583277480928
 20
938.5000000076245
 30
0.0
  0
VERTEX
  5
1A3
  8
POCKET_7_5MM_DOGBONE
 10
1225.917086997645
 20
938.5000000202567
 30
0.0
 42
1.000000000001608
  0
VERTEX
  5
1A4
  8
POCKET_7_5MM_DOGBONE
 10
1221.250182241825
 20
933.8330952644288
 30
0.0
  0
VERTEX
  5
1A5
  8
POCKET_7_5MM_DOGBONE
 10
1221.250182201373
 20
928.1669047760896
 30
0.0
 42
1.000000000001632
  0
VERTEX
  5
1A6
  8
POCKET_7_5MM_DOGBONE
 10
1225.917086957205
 20
923.5000000202583
 30
0.0
  0
VERTEX
  5
1A7
  8
POCKET_7_5MM_DOGBONE
 10
1256.583277445549
 20
923.4999999798241
 30
0.0
 42
0.9999999999979537
  0
VERTEX
  5
1A8
  8
POCKET_7_5MM_DOGBONE
 10
1261.250182201383
 20
928.166904735662
 30
0.0
  0
SEQEND
  5
1A9
  8
POCKET_7_5MM_DOGBONE
  0
POLYLINE
  5
1AB
  8
CUT_15_5MM
 66
     1
 10
0.0
 20
0.0
 30
0.0
 70
     1
  0
VERTEX
  5
1AC
  8
CUT_15_5MM
 10
1717.497540732722
 20
99.22919338251268
 30
0.0
  0
VERTEX
  5
1AD
  8
CUT_15_5MM
 10
1717.49753702389
 20
99.05610845563751
 30
0.0
 42
-0.4076762814087733
  0
VERTEX
  5
1AE
  8
CUT_15_5MM
 10
1697.500000020207
 20
79.49999999997098
 30
0.0
  0
VERTEX
  5
1AF
  8
CUT_15_5MM
 10
1657.772525792127
 20
79.4999999999727
 30
0.0
 42
-0.4115880212727134
  0
VERTEX
  5
1B0
  8
CUT_15_5MM
 10
1637.502463016524
 20
99.0561084556339
 30
0.0
  0
VERTEX
  5
1B1
  8
CUT_15_5MM
 10
1637.50000586042
 20
213.7274470562843
 30
0.0
 42
-0.4181453792870845
  0
VERTEX
  5
1B2
  8
CUT_15_5MM
 10
1657.500000020208
 20
234.0000000000583
 30
0.0
  0
VERTEX
  5
1B3
  8
CUT_15_5MM
 10
1697.227517702515
 20
234.0000000000656
 30
0.0
 42
-0.4181441696276383
  0
VERTEX
  5
1B4
  8
CUT_15_5MM
 10
1717.500000020199
 20
214.0000000000618
 30
0.0
  0
SEQEND
  5
1B5
  8
CUT_15_5MM
  0
POLYLINE
  5
1B6
  8
CUT_15_5MM
 66
     1
 10
0.0
 20
0.0
 30
0.0
 70
     1
  0
VERTEX
  5
1B7
  8
CUT_15_5MM
 10
1717.499997101642
 20
1006.136205772709
 30
0.0
 42
-0.4161933855454757
  0
VERTEX
  5
1B8
  8
CUT_15_5MM
 10
1697.500000020225
 20
985.9999999999455
 30
0.0
  0
VERTEX
  5
1B9
  8
CUT_15_5MM
 10
1657.772482337925
 20
985.9999999999452
 30
0.0
 42
-0.4181441696294501
  0
VERTEX
  5
1BA
  8
CUT_15_5MM
 10
1637.500000020221
 20
1005.999999999945
 30
0.0
  0
VERTEX
  5
1BB
  8
CUT_15_5MM
 10
1637.502463016535
 20
1120.943891544375
 30
0.0
 42
-0.4076762814077073
  0
VERTEX
  5
1BC
  8
CUT_15_5MM
 10
1657.50000002022
 20
1140.500000000035
 30
0.0
  0
VERTEX
  5
1BD
  8
CUT_15_5MM
 10
1697.227474248298
 20
1140.500000000042
 30
0.0
 42
-0.4115880212729962
  0
VERTEX
  5
1BE
  8
CUT_15_5MM
 10
1717.497537023901
 20
1120.943891544371
 30
0.0
  0
SEQEND
  5
1BF
  8
CUT_15_5MM
  0
POLYLINE
  5
1C0
  8
CUT_15_5MM
 66
     1
 10
0.0
 20
0.0
 30
0.0
 70
     1
  0
VERTEX
  5
1C1
  8
CUT_15_5MM
 10
1717.500000020212
 20
702.6362411588489
 30
0.0
 42
-0.4161937928405822
  0
VERTEX
  5
1C2
  8
CUT_15_5MM
 10
1697.500000020214
 20
682.5000000000051
 30
0.0
  0
VERTEX
  5
1C3
  8
CUT_15_5MM
 10
1657.500000020213
 20
682.5000000000073
 30
0.0
 42
-0.414213562373679
  0
VERTEX
  5
1C4
  8
CUT_15_5MM
 10
1637.500000020213
 20
702.5000000000036
 30
0.0
  0
VERTEX
  5
1C5
  8
CUT_15_5MM
 10
1637.500000020212
 20
889.7275177076954
 30
0.0
 42
-0.4181441692687579
  0
VERTEX
  5
1C6
  8
CUT_15_5MM
 10
1657.500000020218
 20
910.000000000004
 30
0.0
  0
VERTEX
  5
1C7
  8
CUT_15_5MM
 10
1697.227517702515
 20
910.0000000000036
 30
0.0
 42
-0.4181441696285466
  0
VERTEX
  5
1C8
  8
CUT_15_5MM
 10
1717.500000020222
 20
890.0000000000036
 30
0.0
  0
SEQEND
  5
1C9
  8
CUT_15_5MM
  0
POLYLINE
  5
1CA
  8
CUT_15_5MM
 66
     1
 10
0.0
 20
0.0
 30
0.0
 70
     1
  0
VERTEX
  5
1CB
  8
CUT_15_5MM
 10
1717.500000020203
 20
330.1362411588561
 30
0.0
 42
-0.4161937928404594
  0
VERTEX
  5
1CC
  8
CUT_15_5MM
 10
1697.500000020205
 20
310.0000000000102
 30
0.0
  0
VERTEX
  5
1CD
  8
CUT_15_5MM
 10
1657.772482337896
 20
310.0000000000002
 30
0.0
 42
-0.4181441696280584
  0
VERTEX
  5
1CE
  8
CUT_15_5MM
 10
1637.500000020211
 20
330.0000000000036
 30
0.0
  0
VERTEX
  5
1CF
  8
CUT_15_5MM
 10
1637.500000020212
 20
517.2275177077316
 30
0.0
 42
-0.4181441692672333
  0
VERTEX
  5
1D0
  8
CUT_15_5MM
 10
1657.500000020206
 20
537.5000000000056
 30
0.0
  0
VERTEX
  5
1D1
  8
CUT_15_5MM
 10
1697.227517702529
 20
537.5000000000035
 30
0.0
 42
-0.4181441696282606
  0
VERTEX
  5
1D2
  8
CUT_15_5MM
 10
1717.500000020211
 20
517.5000000000036
 30
0.0
  0
SEQEND
  5
1D3
  8
CUT_15_5MM
  0
CIRCLE
  5
1D4
  8
DRILL_DOWN__SCREWS_
 10
1679.851045553703
 20
1059.000000000036
 30
0.0
 40
12.5
  0
CIRCLE
  5
1D5
  8
DRILL_DOWN__SCREWS_
 10
-1679.851045553703
 20
797.4438915443316
 30
0.0
 40
12.5
210
0.0
220
0.0
230
-1.0
  0
CIRCLE
  5
1D6
  8
DRILL_DOWN__SCREWS_
 10
-1679.851045553696
 20
423.9438915443316
 30
0.0
 40
12.5
210
0.0
220
0.0
230
-1.0
  0
CIRCLE
  5
1D7
  8
DRILL_DOWN__SCREWS_
 10
-1679.851045553776
 20
173.4438915442915
 30
0.0
 40
12.5
210
0.0
220
0.0
230
-1.0
  0
CIRCLE
  5
1D8
  8
POCKET_15_5MM
 10
-1655.500000020227
 20
257.0000000000109
 30
0.0
 40
9.999999999996362
210
0.0
220
0.0
230
-1.0
  0
CIRCLE
  5
1D9
  8
POCKET_15_5MM
 10
-1699.500000020227
 20
257.0000000000073
 30
0.0
 40
10.00000000000091
210
0.0
220
0.0
230
-1.0
  0
CIRCLE
  5
1DA
  8
POCKET_15_5MM
 10
-1655.500000020242
 20
963.0000000000036
 30
0.0
 40
10.0
210
0.0
220
0.0
230
-1.0
  0
CIRCLE
  5
1DB
  8
POCKET_15_5MM
 10
-1699.500000020242
 20
963.0
 30
0.0
 40
9.999999999998181
210
0.0
220
0.0
230
-1.0
  0
CIRCLE
  5
1DC
  8
POCKET_15_5MM
 10
-1699.500000020213
 20
650.7499999999964
 30
0.0
 40
9.999999999996362
210
0.0
220
0.0
230
-1.0
  0
CIRCLE
  5
1DD
  8
POCKET_15_5MM
 10
-1655.500000020213
 20
650.7499999999964
 30
0.0
 40
9.999999999996362
210
0.0
220
0.0
230
-1.0
  0
CIRCLE
  5
1DE
  8
POCKET_15_5MM
 10
-1699.500000020213
 20
569.2500000000073
 30
0.0
 40
10.0
210
0.0
220
0.0
230
-1.0
  0
CIRCLE
  5
1DF
  8
POCKET_15_5MM
 10
-1655.500000020213
 20
569.2500000000073
 30
0.0
 40
9.999999999998181
210
0.0
220
0.0
230
-1.0
  0
CIRCLE
  5
1E0
  8
POCKET_15_5MM
 10
-1704.500000020213
 20
1158.75000000002
 30
0.0
 40
4.75
210
0.0
220
0.0
230
-1.0
  0
CIRCLE
  5
1E1
  8
POCKET_15_5MM
 10
-1650.500000020213
 20
1158.75000000002
 30
0.0
 40
4.75
210
0.0
220
0.0
230
-1.0
  0
CIRCLE
  5
1E2
  8
POCKET_15_5MM
 10
-1677.500000020213
 20
670.5000000000036
 30
0.0
 40
4.75
210
0.0
220
0.0
230
-1.0
  0
CIRCLE
  5
1E3
  8
POCKET_15_5MM
 10
-1677.500000020213
 20
549.5000000000036
 30
0.0
 40
4.75
210
0.0
220
0.0
230
-1.0
  0
CIRCLE
  5
1E4
  8
POCKET_15_5MM
 10
-1704.500000020198
 20
61.24999999998363
 30
0.0
 40
4.75
210
0.0
220
0.0
230
-1.0
  0
CIRCLE
  5
1E5
  8
POCKET_15_5MM
 10
-1650.500000020198
 20
61.24999999998727
 30
0.0
 40
4.75
210
0.0
220
0.0
230
-1.0
  0
CIRCLE
  5
1E6
  8
POCKET_15_5MM
 10
-1913.497537008559
 20
61.24999999998909
 30
0.0
 40
4.75
210
0.0
220
0.0
230
-1.0
  0
CIRCLE
  5
1E7
  8
POCKET_15_5MM
 10
-1967.497537008559
 20
61.24999999998545
 30
0.0
 40
4.75
210
0.0
220
0.0
230
-1.0
  0
CIRCLE
  5
1E8
  8
POCKET_15_5MM
 10
-1940.497537008574
 20
549.5000000000073
 30
0.0
 40
4.75
210
0.0
220
0.0
230
-1.0
  0
CIRCLE
  5
1E9
  8
POCKET_15_5MM
 10
-1940.497537008574
 20
670.5000000000073
 30
0.0
 40
4.75
210
0.0
220
0.0
230
-1.0
  0
CIRCLE
  5
1EA
  8
POCKET_15_5MM
 10
-1913.497537008574
 20
1158.750000000022
 30
0.0
 40
4.75
210
0.0
220
0.0
230
-1.0
  0
CIRCLE
  5
1EB
  8
POCKET_15_5MM
 10
-1967.497537008574
 20
1158.750000000022
 30
0.0
 40
4.75
210
0.0
220
0.0
230
-1.0
  0
CIRCLE
  5
1EC
  8
POCKET_15_5MM
 10
-1918.497537008574
 20
569.2500000000109
 30
0.0
 40
9.999999999998181
210
0.0
220
0.0
230
-1.0
  0
CIRCLE
  5
1ED
  8
POCKET_15_5MM
 10
-1962.497537008574
 20
569.2500000000109
 30
0.0
 40
10.0
210
0.0
220
0.0
230
-1.0
  0
CIRCLE
  5
1EE
  8
POCKET_15_5MM
 10
-1918.497537008574
 20
650.75
 30
0.0
 40
9.999999999996362
210
0.0
220
0.0
230
-1.0
  0
CIRCLE
  5
1EF
  8
POCKET_15_5MM
 10
-1962.497537008574
 20
650.75
 30
0.0
 40
9.999999999996362
210
0.0
220
0.0
230
-1.0
  0
CIRCLE
  5
1F0
  8
POCKET_15_5MM
 10
-1962.497537008603
 20
963.0000000000036
 30
0.0
 40
9.999999999998181
210
0.0
220
0.0
230
-1.0
  0
CIRCLE
  5
1F1
  8
POCKET_15_5MM
 10
-1918.497537008603
 20
963.0000000000073
 30
0.0
 40
10.0
210
0.0
220
0.0
230
-1.0
  0
CIRCLE
  5
1F2
  8
POCKET_15_5MM
 10
-1962.497537008581
 20
257.0000000000109
 30
0.0
 40
10.00000000000091
210
0.0
220
0.0
230
-1.0
  0
CIRCLE
  5
1F3
  8
POCKET_15_5MM
 10
-1918.497537008589
 20
257.0000000000146
 30
0.0
 40
9.999999999996362
210
0.0
220
0.0
230
-1.0
  0
CIRCLE
  5
1F4
  8
DRILL_DOWN__SCREWS_
 10
-1942.848582542138
 20
173.4438915442952
 30
0.0
 40
12.5
210
0.0
220
0.0
230
-1.0
  0
CIRCLE
  5
1F5
  8
DRILL_DOWN__SCREWS_
 10
-1942.84858254205
 20
423.9438915443352
 30
0.0
 40
12.5
210
0.0
220
0.0
230
-1.0
  0
CIRCLE
  5
1F6
  8
DRILL_DOWN__SCREWS_
 10
-1942.848582542058
 20
797.4438915443352
 30
0.0
 40
12.5
210
0.0
220
0.0
230
-1.0
  0
CIRCLE
  5
1F7
  8
DRILL_DOWN__SCREWS_
 10
1942.848582542065
 20
1059.00000000004
 30
0.0
 40
12.5
  0
POLYLINE
  5
1F8
  8
CUT_15_5MM
 66
     1
 10
0.0
 20
0.0
 30
0.0
 70
     1
  0
VERTEX
  5
1F9
  8
CUT_15_5MM
 10
1980.497537008564
 20
330.1362411588597
 30
0.0
 42
-0.4161937928404594
  0
VERTEX
  5
1FA
  8
CUT_15_5MM
 10
1960.497537008566
 20
310.0000000000139
 30
0.0
  0
VERTEX
  5
1FB
  8
CUT_15_5MM
 10
1920.77001932625
 20
310.0000000000039
 30
0.0
 42
-0.4181441696280584
  0
VERTEX
  5
1FC
  8
CUT_15_5MM
 10
1900.497537008565
 20
330.0000000000073
 30
0.0
  0
VERTEX
  5
1FD
  8
CUT_15_5MM
 10
1900.497537008567
 20
517.2275177077354
 30
0.0
 42
-0.4181441692671544
  0
VERTEX
  5
1FE
  8
CUT_15_5MM
 10
1920.497537008567
 20
537.5000000000092
 30
0.0
  0
VERTEX
  5
1FF
  8
CUT_15_5MM
 10
1960.225054690891
 20
537.5000000000073
 30
0.0
 42
-0.4181441696281522
  0
VERTEX
  5
200
  8
CUT_15_5MM
 10
1980.497537008565
 20
517.5000000000073
 30
0.0
  0
SEQEND
  5
201
  8
CUT_15_5MM
  0
POLYLINE
  5
202
  8
CUT_15_5MM
 66
     1
 10
0.0
 20
0.0
 30
0.0
 70
     1
  0
VERTEX
  5
203
  8
CUT_15_5MM
 10
1980.497537008573
 20
702.6362411588525
 30
0.0
 42
-0.4161937928405822
  0
VERTEX
  5
204
  8
CUT_15_5MM
 10
1960.497537008576
 20
682.5000000000088
 30
0.0
  0
VERTEX
  5
205
  8
CUT_15_5MM
 10
1920.497537008574
 20
682.5000000000109
 30
0.0
 42
-0.4142135623737919
  0
VERTEX
  5
206
  8
CUT_15_5MM
 10
1900.497537008567
 20
702.5000000000073
 30
0.0
  0
VERTEX
  5
207
  8
CUT_15_5MM
 10
1900.497537008574
 20
889.727517707699
 30
0.0
 42
-0.4181441692688648
  0
VERTEX
  5
208
  8
CUT_15_5MM
 10
1920.497537008572
 20
910.0000000000076
 30
0.0
  0
VERTEX
  5
209
  8
CUT_15_5MM
 10
1960.225054690869
 20
910.0000000000073
 30
0.0
 42
-0.4181441696285466
  0
VERTEX
  5
20A
  8
CUT_15_5MM
 10
1980.497537008576
 20
890.0000000000073
 30
0.0
  0
SEQEND
  5
20B
  8
CUT_15_5MM
  0
POLYLINE
  5
20C
  8
CUT_15_5MM
 66
     1
 10
0.0
 20
0.0
 30
0.0
 70
     1
  0
VERTEX
  5
20D
  8
CUT_15_5MM
 10
1980.497534089996
 20
1006.136205772713
 30
0.0
 42
-0.4161933855454757
  0
VERTEX
  5
20E
  8
CUT_15_5MM
 10
1960.497537008579
 20
985.9999999999492
 30
0.0
  0
VERTEX
  5
20F
  8
CUT_15_5MM
 10
1920.770019326279
 20
985.9999999999491
 30
0.0
 42
-0.4181441696293479
  0
VERTEX
  5
210
  8
CUT_15_5MM
 10
1900.497537008583
 20
1005.999999999949
 30
0.0
  0
VERTEX
  5
211
  8
CUT_15_5MM
 10
1900.500000004889
 20
1120.943891544379
 30
0.0
 42
-0.4076762814077073
  0
VERTEX
  5
212
  8
CUT_15_5MM
 10
1920.497537008574
 20
1140.500000000038
 30
0.0
  0
VERTEX
  5
213
  8
CUT_15_5MM
 10
1960.225011236653
 20
1140.500000000044
 30
0.0
 42
-0.4115880212731203
  0
VERTEX
  5
214
  8
CUT_15_5MM
 10
1980.495074012262
 20
1120.943891544375
 30
0.0
  0
SEQEND
  5
215
  8
CUT_15_5MM
  0
POLYLINE
  5
216
  8
CUT_15_5MM
 66
     1
 10
0.0
 20
0.0
 30
0.0
 70
     1
  0
VERTEX
  5
217
  8
CUT_15_5MM
 10
1980.495077721076
 20
99.2291933825145
 30
0.0
  0
VERTEX
  5
218
  8
CUT_15_5MM
 10
1980.495074012244
 20
99.05610845563933
 30
0.0
 42
-0.4076762814087733
  0
VERTEX
  5
219
  8
CUT_15_5MM
 10
1960.497537008561
 20
79.4999999999728
 30
0.0
  0
VERTEX
  5
21A
  8
CUT_15_5MM
 10
1920.770062780488
 20
79.49999999997463
 30
0.0
 42
-0.4115880212728215
  0
VERTEX
  5
21B
  8
CUT_15_5MM
 10
1900.500000004879
 20
99.05610845563572
 30
0.0
  0
VERTEX
  5
21C
  8
CUT_15_5MM
 10
1900.497542848781
 20
213.7274470562879
 30
0.0
 42
-0.418145379287188
  0
VERTEX
  5
21D
  8
CUT_15_5MM
 10
1920.497537008562
 20
234.0000000000619
 30
0.0
  0
VERTEX
  5
21E
  8
CUT_15_5MM
 10
1960.225054690869
 20
234.0000000000692
 30
0.0
 42
-0.4181441696277424
  0
VERTEX
  5
21F
  8
CUT_15_5MM
 10
1980.497537008561
 20
214.0000000000655
 30
0.0
  0
SEQEND
  5
220
  8
CUT_15_5MM
  0
CIRCLE
  5
221
  8
DRILL_DOWN__SCREWS_
 10
1918.274932030559
 20
16.49546256043141
 30
0.0
 40
12.5
  0
CIRCLE
  5
222
  8
DRILL_DOWN__SCREWS_
 10
1916.277527088001
 20
1202.102926371317
 30
0.0
 40
12.5
  0
CIRCLE
  5
223
  8
DRILL_DOWN__SCREWS_
 10
2418.478805431972
 20
470.2500000000036
 30
0.0
 40
12.5
  0
CIRCLE
  5
224
  8
DRILL_DOWN__SCREWS_
 10
2053.278345538267
 20
43.57727158458329
 30
0.0
 40
12.5
  0
CIRCLE
  5
225
  8
DRILL_DOWN__SCREWS_
 10
2409.875368167377
 20
52.77977539436688
 30
0.0
 40
12.5
  0
CIRCLE
  5
226
  8
DRILL_DOWN__SCREWS_
 10
2179.261473695631
 20
836.2091086240071
 30
0.0
 40
12.5
  0
CIRCLE
  5
227
  8
DRILL_DOWN__SCREWS_
 10
2384.232006972787
 20
895.8428868284063
 30
0.0
 40
12.5
  0
CIRCLE
  5
228
  8
DRILL_DOWN__SCREWS_
 10
2201.034014463206
 20
1169.929805854365
 30
0.0
 40
12.5
  0
CIRCLE
  5
229
  8
DRILL_DOWN__SCREWS_
 10
-2066.849180067969
 20
656.6885774464954
 30
0.0
 40
12.5
210
0.0
220
0.0
230
-1.0
  0
CIRCLE
  5
22A
  8
DRILL_DOWN__SCREWS_
 10
-2066.849180067962
 20
284.1885774465518
 30
0.0
 40
12.5
210
0.0
220
0.0
230
-1.0
  0
CIRCLE
  5
22B
  8
DRILL_DOWN__SCREWS_
 10
-2190.849180061261
 20
237.6885774465518
 30
0.0
 40
12.5
210
0.0
220
0.0
230
-1.0
  0
CIRCLE
  5
22C
  8
DRILL_DOWN__SCREWS_
 10
-2190.849180061268
 20
610.1885774464954
 30
0.0
 40
12.5
210
0.0
220
0.0
230
-1.0
  0
CIRCLE
  5
22D
  8
DRILL_DOWN__SCREWS_
 10
-2314.849180061268
 20
656.6885774464954
 30
0.0
 40
12.5
210
0.0
220
0.0
230
-1.0
  0
CIRCLE
  5
22E
  8
DRILL_DOWN__SCREWS_
 10
-2314.849180061254
 20
284.1885774465518
 30
0.0
 40
12.5
210
0.0
220
0.0
230
-1.0
  0
POLYLINE
  5
22F
  8
CUT_15_5MM
 66
     1
 10
0.0
 20
0.0
 30
0.0
 70
     1
  0
VERTEX
  5
230
  8
CUT_15_5MM
 10
2352.498134641646
 20
562.8862411588525
 30
0.0
  0
VERTEX
  5
231
  8
CUT_15_5MM
 10
2352.498134641654
 20
750.2500000000036
 30
0.0
 42
0.4181441696279872
  0
VERTEX
  5
232
  8
CUT_15_5MM
 10
2332.225652323963
 20
770.2499999999984
 30
0.0
  0
VERTEX
  5
233
  8
CUT_15_5MM
 10
2292.498134641653
 20
770.2500000000055
 30
0.0
 42
0.4181441692670905
  0
VERTEX
  5
234
  8
CUT_15_5MM
 10
2272.498134641653
 20
749.9775177077379
 30
0.0
  0
VERTEX
  5
235
  8
CUT_15_5MM
 10
2272.498134641646
 20
562.7500000000036
 30
0.0
 42
0.4181441696289901
  0
VERTEX
  5
236
  8
CUT_15_5MM
 10
2292.770616959344
 20
542.7500000000058
 30
0.0
  0
VERTEX
  5
237
  8
CUT_15_5MM
 10
2332.498134641646
 20
542.7500000000039
 30
0.0
 42
0.4142135623730246
  0
VERTEX
  5
238
  8
CUT_15_5MM
 10
2352.498134641654
 20
562.7500000000034
 30
0.0
  0
SEQEND
  5
239
  8
CUT_15_5MM
  0
POLYLINE
  5
23A
  8
CUT_15_5MM
 66
     1
 10
0.0
 20
0.0
 30
0.0
 70
     1
  0
VERTEX
  5
23B
  8
CUT_15_5MM
 10
2352.498134641646
 20
190.3862411588525
 30
0.0
  0
VERTEX
  5
23C
  8
CUT_15_5MM
 10
2352.498134641639
 20
377.7500000000036
 30
0.0
 42
0.4181441696284627
  0
VERTEX
  5
23D
  8
CUT_15_5MM
 10
2332.225652323952
 20
397.7500000000092
 30
0.0
  0
VERTEX
  5
23E
  8
CUT_15_5MM
 10
2292.498134641646
 20
397.7500000000073
 30
0.0
 42
0.4181441692654667
  0
VERTEX
  5
23F
  8
CUT_15_5MM
 10
2272.498134641631
 20
377.4775177078475
 30
0.0
  0
VERTEX
  5
240
  8
CUT_15_5MM
 10
2272.498134641646
 20
190.2500000000036
 30
0.0
 42
0.4181441696278431
  0
VERTEX
  5
241
  8
CUT_15_5MM
 10
2292.770616959348
 20
170.2500000000071
 30
0.0
  0
VERTEX
  5
242
  8
CUT_15_5MM
 10
2332.498134641646
 20
170.2500000000036
 30
0.0
 42
0.4161937928403075
  0
SEQEND
  5
243
  8
CUT_15_5MM
  0
CIRCLE
  5
244
  8
POCKET_15_5MM
 10
-2334.498134641646
 20
429.5000000000073
 30
0.0
 40
10.0
210
0.0
220
0.0
230
-1.0
  0
CIRCLE
  5
245
  8
POCKET_15_5MM
 10
-2290.498134641646
 20
429.5000000000073
 30
0.0
 40
10.0
210
0.0
220
0.0
230
-1.0
  0
CIRCLE
  5
246
  8
POCKET_15_5MM
 10
-2334.498134641646
 20
510.9999999999982
 30
0.0
 40
9.999999999998181
210
0.0
220
0.0
230
-1.0
  0
CIRCLE
  5
247
  8
POCKET_15_5MM
 10
-2290.498134641646
 20
511.0000000000018
 30
0.0
 40
10.00000000000182
210
0.0
220
0.0
230
-1.0
  0
CIRCLE
  5
248
  8
POCKET_15_5MM
 10
-2285.498134641646
 20
819.0000000000218
 30
0.0
 40
4.75
210
0.0
220
0.0
230
-1.0
  0
CIRCLE
  5
249
  8
POCKET_15_5MM
 10
-2339.498134641646
 20
819.0000000000218
 30
0.0
 40
4.75
210
0.0
220
0.0
230
-1.0
  0
CIRCLE
  5
24A
  8
POCKET_15_5MM
 10
2285.498134641646
 20
121.4999999999854
 30
0.0
 40
4.75
  0
CIRCLE
  5
24B
  8
POCKET_15_5MM
 10
2339.498134641646
 20
121.4999999999854
 30
0.0
 40
4.75
  0
CIRCLE
  5
24C
  8
POCKET_15_5MM
 10
2215.498134641653
 20
74.99999999998545
 30
0.0
 40
4.75
  0
CIRCLE
  5
24D
  8
POCKET_15_5MM
 10
2161.498134641653
 20
74.99999999998545
 30
0.0
 40
4.75
  0
CIRCLE
  5
24E
  8
POCKET_15_5MM
 10
-2215.498134641653
 20
772.5000000000218
 30
0.0
 40
4.75
210
0.0
220
0.0
230
-1.0
  0
CIRCLE
  5
24F
  8
POCKET_15_5MM
 10
-2161.498134641653
 20
772.5000000000218
 30
0.0
 40
4.75
210
0.0
220
0.0
230
-1.0
  0
POLYLINE
  5
250
  8
CUT_15_5MM
 66
     1
 10
0.0
 20
0.0
 30
0.0
 70
     1
  0
VERTEX
  5
251
  8
CUT_15_5MM
 10
2228.498134641646
 20
143.8862411588525
 30
0.0
  0
VERTEX
  5
252
  8
CUT_15_5MM
 10
2228.498134641647
 20
331.2500000000036
 30
0.0
 42
0.4181441696284627
  0
VERTEX
  5
253
  8
CUT_15_5MM
 10
2208.225652323959
 20
351.2500000000092
 30
0.0
  0
VERTEX
  5
254
  8
CUT_15_5MM
 10
2168.498134641646
 20
351.2500000000056
 30
0.0
 42
0.4181441692653855
  0
VERTEX
  5
255
  8
CUT_15_5MM
 10
2148.498134641638
 20
330.9775177078475
 30
0.0
  0
VERTEX
  5
256
  8
CUT_15_5MM
 10
2148.498134641646
 20
143.7500000000036
 30
0.0
 42
0.4181441696278424
  0
VERTEX
  5
257
  8
CUT_15_5MM
 10
2168.770616959348
 20
123.7500000000071
 30
0.0
  0
VERTEX
  5
258
  8
CUT_15_5MM
 10
2208.498134641646
 20
123.7500000000035
 30
0.0
 42
0.4161937928404102
  0
SEQEND
  5
259
  8
CUT_15_5MM
  0
POLYLINE
  5
25A
  8
CUT_15_5MM
 66
     1
 10
0.0
 20
0.0
 30
0.0
 70
     1
  0
VERTEX
  5
25B
  8
CUT_15_5MM
 10
2228.498134641653
 20
516.3862411588525
 30
0.0
  0
VERTEX
  5
25C
  8
CUT_15_5MM
 10
2228.498134641661
 20
703.7500000000036
 30
0.0
 42
0.4181441696279872
  0
VERTEX
  5
25D
  8
CUT_15_5MM
 10
2208.22565232397
 20
723.7499999999984
 30
0.0
  0
VERTEX
  5
25E
  8
CUT_15_5MM
 10
2168.498134641661
 20
723.7500000000056
 30
0.0
 42
0.4181441692672019
  0
VERTEX
  5
25F
  8
CUT_15_5MM
 10
2148.498134641653
 20
703.4775177077379
 30
0.0
  0
VERTEX
  5
260
  8
CUT_15_5MM
 10
2148.498134641646
 20
516.2500000000036
 30
0.0
 42
0.4181441696289916
  0
VERTEX
  5
261
  8
CUT_15_5MM
 10
2168.770616959344
 20
496.2500000000057
 30
0.0
  0
VERTEX
  5
262
  8
CUT_15_5MM
 10
2208.498134641646
 20
496.2500000000039
 30
0.0
 42
0.4142135623730218
  0
VERTEX
  5
263
  8
CUT_15_5MM
 10
2228.498134641654
 20
516.2500000000034
 30
0.0
  0
SEQEND
  5
264
  8
CUT_15_5MM
  0
POLYLINE
  5
265
  8
CUT_15_5MM
 66
     1
 10
0.0
 20
0.0
 30
0.0
 70
     1
  0
VERTEX
  5
266
  8
CUT_15_5MM
 10
2104.498134648355
 20
562.8862411588525
 30
0.0
  0
VERTEX
  5
267
  8
CUT_15_5MM
 10
2104.498134648355
 20
750.2500000000036
 30
0.0
 42
0.4181441696279872
  0
VERTEX
  5
268
  8
CUT_15_5MM
 10
2084.225652330664
 20
770.2499999999984
 30
0.0
  0
VERTEX
  5
269
  8
CUT_15_5MM
 10
2044.498134648355
 20
770.2500000000052
 30
0.0
 42
0.4181441692670982
  0
VERTEX
  5
26A
  8
CUT_15_5MM
 10
2024.498134648354
 20
749.9775177077379
 30
0.0
  0
VERTEX
  5
26B
  8
CUT_15_5MM
 10
2024.498134648348
 20
562.7500000000036
 30
0.0
 42
0.4181441696291109
  0
VERTEX
  5
26C
  8
CUT_15_5MM
 10
2044.770616966045
 20
542.7500000000058
 30
0.0
  0
VERTEX
  5
26D
  8
CUT_15_5MM
 10
2084.498134648355
 20
542.7500000000039
 30
0.0
 42
0.4142135623729176
  0
VERTEX
  5
26E
  8
CUT_15_5MM
 10
2104.498134648356
 20
562.7500000000034
 30
0.0
  0
SEQEND
  5
26F
  8
CUT_15_5MM
  0
POLYLINE
  5
270
  8
CUT_15_5MM
 66
     1
 10
0.0
 20
0.0
 30
0.0
 70
     1
  0
VERTEX
  5
271
  8
CUT_15_5MM
 10
2104.498134648347
 20
190.3862411588525
 30
0.0
  0
VERTEX
  5
272
  8
CUT_15_5MM
 10
2104.49813464834
 20
377.7500000000036
 30
0.0
 42
0.4181441696285684
  0
VERTEX
  5
273
  8
CUT_15_5MM
 10
2084.225652330661
 20
397.7500000000092
 30
0.0
  0
VERTEX
  5
274
  8
CUT_15_5MM
 10
2044.498134648347
 20
397.7500000000056
 30
0.0
 42
0.4181441692653855
  0
VERTEX
  5
275
  8
CUT_15_5MM
 10
2024.49813464834
 20
377.4775177078475
 30
0.0
  0
VERTEX
  5
276
  8
CUT_15_5MM
 10
2024.498134648347
 20
190.2500000000036
 30
0.0
 42
0.4181441696278469
  0
VERTEX
  5
277
  8
CUT_15_5MM
 10
2044.770616966049
 20
170.2500000000071
 30
0.0
  0
VERTEX
  5
278
  8
CUT_15_5MM
 10
2084.498134648347
 20
170.2500000000036
 30
0.0
 42
0.416193792840411
  0
SEQEND
  5
279
  8
CUT_15_5MM
  0
CIRCLE
  5
27A
  8
POCKET_15_5MM
 10
-2086.498134648355
 20
429.5000000000073
 30
0.0
 40
10.0
210
0.0
220
0.0
230
-1.0
  0
CIRCLE
  5
27B
  8
POCKET_15_5MM
 10
-2042.498134648355
 20
429.5000000000073
 30
0.0
 40
10.0
210
0.0
220
0.0
230
-1.0
  0
CIRCLE
  5
27C
  8
POCKET_15_5MM
 10
-2086.498134648347
 20
510.9999999999982
 30
0.0
 40
9.999999999998181
210
0.0
220
0.0
230
-1.0
  0
CIRCLE
  5
27D
  8
POCKET_15_5MM
 10
-2042.498134648355
 20
511.0000000000018
 30
0.0
 40
10.00000000000182
210
0.0
220
0.0
230
-1.0
  0
CIRCLE
  5
27E
  8
POCKET_15_5MM
 10
-2037.498134648355
 20
819.0000000000218
 30
0.0
 40
4.75
210
0.0
220
0.0
230
-1.0
  0
CIRCLE
  5
27F
  8
POCKET_15_5MM
 10
-2091.498134648355
 20
819.0000000000218
 30
0.0
 40
4.75
210
0.0
220
0.0
230
-1.0
  0
CIRCLE
  5
280
  8
POCKET_15_5MM
 10
2037.498134648355
 20
121.4999999999854
 30
0.0
 40
4.75
  0
CIRCLE
  5
281
  8
POCKET_15_5MM
 10
2091.498134648355
 20
121.4999999999854
 30
0.0
 40
4.75
  0
POLYLINE
  5
282
  8
CUT_15_5MM
 66
     1
 10
0.0
 20
0.0
 30
0.0
 70
     1
  0
VERTEX
  5
283
  8
CUT_15_5MM
 10
1769.002459292387
 20
1120.770806617486
 30
0.0
  0
VERTEX
  5
284
  8
CUT_15_5MM
 10
1769.002463001219
 20
1120.943891544361
 30
0.0
 42
-0.4076762814087628
  0
VERTEX
  5
285
  8
CUT_15_5MM
 10
1789.000000004902
 20
1140.500000000027
 30
0.0
  0
VERTEX
  5
286
  8
CUT_15_5MM
 10
1828.727474232983
 20
1140.500000000025
 30
0.0
 42
-0.4115880212727124
  0
VERTEX
  5
287
  8
CUT_15_5MM
 10
1848.997537008585
 20
1120.943891544364
 30
0.0
  0
VERTEX
  5
288
  8
CUT_15_5MM
 10
1848.999994164689
 20
1006.272552943712
 30
0.0
 42
-0.4181453792870802
  0
VERTEX
  5
289
  8
CUT_15_5MM
 10
1829.000000004901
 20
985.999999999938
 30
0.0
  0
VERTEX
  5
28A
  8
CUT_15_5MM
 10
1789.272482322602
 20
985.9999999999309
 30
0.0
 42
-0.4181441696277386
  0
VERTEX
  5
28B
  8
CUT_15_5MM
 10
1769.00000000491
 20
1005.999999999935
 30
0.0
  0
SEQEND
  5
28C
  8
CUT_15_5MM
  0
POLYLINE
  5
28D
  8
CUT_15_5MM
 66
     1
 10
0.0
 20
0.0
 30
0.0
 70
     1
  0
VERTEX
  5
28E
  8
CUT_15_5MM
 10
1769.000002923475
 20
213.8637942272873
 30
0.0
 42
-0.4161933855454726
  0
VERTEX
  5
28F
  8
CUT_15_5MM
 10
1789.000000004891
 20
234.0000000000508
 30
0.0
  0
VERTEX
  5
290
  8
CUT_15_5MM
 10
1828.727517687192
 20
234.000000000051
 30
0.0
 42
-0.4181441696292579
  0
VERTEX
  5
291
  8
CUT_15_5MM
 10
1849.000000004881
 20
214.0000000000508
 30
0.0
  0
VERTEX
  5
292
  8
CUT_15_5MM
 10
1848.997537008574
 20
99.05610845562114
 30
0.0
 42
-0.4076762814078129
  0
VERTEX
  5
293
  8
CUT_15_5MM
 10
1829.000000004896
 20
79.49999999996146
 30
0.0
  0
VERTEX
  5
294
  8
CUT_15_5MM
 10
1789.272525776818
 20
79.49999999995623
 30
0.0
 42
-0.4115880212731415
  0
VERTEX
  5
295
  8
CUT_15_5MM
 10
1769.002463001208
 20
99.05610845562502
 30
0.0
  0
SEQEND
  5
296
  8
CUT_15_5MM
  0
POLYLINE
  5
297
  8
CUT_15_5MM
 66
     1
 10
0.0
 20
0.0
 30
0.0
 70
     1
  0
VERTEX
  5
298
  8
CUT_15_5MM
 10
1769.000000004897
 20
517.3637588411476
 30
0.0
 42
-0.4161937928405811
  0
VERTEX
  5
299
  8
CUT_15_5MM
 10
1789.000000004895
 20
537.4999999999912
 30
0.0
  0
VERTEX
  5
29A
  8
CUT_15_5MM
 10
1829.000000004897
 20
537.499999999989
 30
0.0
 42
-0.4142135623736812
  0
VERTEX
  5
29B
  8
CUT_15_5MM
 10
1849.000000004897
 20
517.4999999999926
 30
0.0
  0
VERTEX
  5
29C
  8
CUT_15_5MM
 10
1849.000000004889
 20
330.272482292301
 30
0.0
 42
-0.4181441692689646
  0
VERTEX
  5
29D
  8
CUT_15_5MM
 10
1829.000000004898
 20
309.9999999999925
 30
0.0
  0
VERTEX
  5
29E
  8
CUT_15_5MM
 10
1789.272482322602
 20
309.9999999999927
 30
0.0
 42
-0.4181441696285336
  0
VERTEX
  5
29F
  8
CUT_15_5MM
 10
1769.000000004895
 20
329.9999999999928
 30
0.0
  0
SEQEND
  5
2A0
  8
CUT_15_5MM
  0
POLYLINE
  5
2A1
  8
CUT_15_5MM
 66
     1
 10
0.0
 20
0.0
 30
0.0
 70
     1
  0
VERTEX
  5
2A2
  8
CUT_15_5MM
 10
1769.000000004906
 20
889.8637588411403
 30
0.0
 42
-0.4161937928404569
  0
VERTEX
  5
2A3
  8
CUT_15_5MM
 10
1789.000000004905
 20
909.9999999999861
 30
0.0
  0
VERTEX
  5
2A4
  8
CUT_15_5MM
 10
1828.727517687221
 20
909.9999999999962
 30
0.0
 42
-0.4181441696280628
  0
VERTEX
  5
2A5
  8
CUT_15_5MM
 10
1849.000000004906
 20
889.9999999999926
 30
0.0
  0
VERTEX
  5
2A6
  8
CUT_15_5MM
 10
1849.000000004904
 20
702.7724822922647
 30
0.0
 42
-0.4181441692671292
  0
VERTEX
  5
2A7
  8
CUT_15_5MM
 10
1829.000000004904
 20
682.4999999999908
 30
0.0
  0
VERTEX
  5
2A8
  8
CUT_15_5MM
 10
1789.272482322587
 20
682.4999999999928
 30
0.0
 42
-0.4181441696283614
  0
VERTEX
  5
2A9
  8
CUT_15_5MM
 10
1769.000000004899
 20
702.4999999999928
 30
0.0
  0
SEQEND
  5
2AA
  8
CUT_15_5MM
  0
CIRCLE
  5
2AB
  8
DRILL_DOWN__SCREWS_
 10
1806.648954471406
 20
160.99999999996
 30
0.0
 40
12.5
  0
CIRCLE
  5
2AC
  8
DRILL_DOWN__SCREWS_
 10
-1806.648954471413
 20
422.5561084556648
 30
0.0
 40
12.5
210
0.0
220
0.0
230
-1.0
  0
CIRCLE
  5
2AD
  8
DRILL_DOWN__SCREWS_
 10
-1806.648954471413
 20
796.0561084556648
 30
0.0
 40
12.5
210
0.0
220
0.0
230
-1.0
  0
CIRCLE
  5
2AE
  8
DRILL_DOWN__SCREWS_
 10
-1806.64895447134
 20
1046.556108455705
 30
0.0
 40
12.5
210
0.0
220
0.0
230
-1.0
  0
CIRCLE
  5
2AF
  8
POCKET_15_5MM
 10
-1831.000000004889
 20
962.9999999999854
 30
0.0
 40
9.999999999996362
210
0.0
220
0.0
230
-1.0
  0
CIRCLE
  5
2B0
  8
POCKET_15_5MM
 10
-1787.000000004889
 20
962.9999999999891
 30
0.0
 40
10.00000000000091
210
0.0
220
0.0
230
-1.0
  0
CIRCLE
  5
2B1
  8
POCKET_15_5MM
 10
-1831.000000004868
 20
256.9999999999927
 30
0.0
 40
10.0
210
0.0
220
0.0
230
-1.0
  0
CIRCLE
  5
2B2
  8
POCKET_15_5MM
 10
-1787.000000004868
 20
256.9999999999964
 30
0.0
 40
9.999999999998181
210
0.0
220
0.0
230
-1.0
  0
CIRCLE
  5
2B3
  8
POCKET_15_5MM
 10
-1787.000000004889
 20
569.25
 30
0.0
 40
9.999999999996362
210
0.0
220
0.0
230
-1.0
  0
CIRCLE
  5
2B4
  8
POCKET_15_5MM
 10
-1831.000000004897
 20
569.25
 30
0.0
 40
9.999999999996362
210
0.0
220
0.0
230
-1.0
  0
CIRCLE
  5
2B5
  8
POCKET_15_5MM
 10
-1787.000000004904
 20
650.7499999999891
 30
0.0
 40
10.0
210
0.0
220
0.0
230
-1.0
  0
CIRCLE
  5
2B6
  8
POCKET_15_5MM
 10
-1831.000000004904
 20
650.7499999999891
 30
0.0
 40
9.999999999998181
210
0.0
220
0.0
230
-1.0
  0
CIRCLE
  5
2B7
  8
POCKET_15_5MM
 10
-1782.000000004897
 20
61.24999999997817
 30
0.0
 40
4.75
210
0.0
220
0.0
230
-1.0
  0
CIRCLE
  5
2B8
  8
POCKET_15_5MM
 10
-1836.000000004897
 20
61.24999999997817
 30
0.0
 40
4.75
210
0.0
220
0.0
230
-1.0
  0
CIRCLE
  5
2B9
  8
POCKET_15_5MM
 10
-1809.000000004897
 20
549.4999999999927
 30
0.0
 40
4.75
210
0.0
220
0.0
230
-1.0
  0
CIRCLE
  5
2BA
  8
POCKET_15_5MM
 10
-1809.000000004904
 20
670.4999999999927
 30
0.0
 40
4.75
210
0.0
220
0.0
230
-1.0
  0
CIRCLE
  5
2BB
  8
POCKET_15_5MM
 10
-1782.000000004911
 20
1158.750000000015
 30
0.0
 40
4.75
210
0.0
220
0.0
230
-1.0
  0
CIRCLE
  5
2BC
  8
POCKET_15_5MM
 10
-1836.000000004911
 20
1158.750000000011
 30
0.0
 40
4.75
210
0.0
220
0.0
230
-1.0
  0
CIRCLE
  5
2BD
  8
DRILL_DOWN__SCREWS_
 10
1648.212213157254
 20
21.87658684698545
 30
0.0
 40
12.5
  0
CIRCLE
  5
2BE
  8
DRILL_DOWN__SCREWS_
 10
1640.025977172729
 20
1202.102926371304
 30
0.0
 40
12.5
  0
CIRCLE
  5
2BF
  8
DRILL_DOWN__SCREWS_
 10
-1874.794699981532
 20
289.3201459983811
 30
0.0
 40
12.5
210
0.0
220
0.0
230
-1.0
  0
CIRCLE
  5
2C0
  8
DRILL_DOWN__SCREWS_
 10
-1874.794699981547
 20
610.3201459983848
 30
0.0
 40
12.5
210
0.0
220
0.0
230
-1.0
  0
CIRCLE
  5
2C1
  8
DRILL_DOWN__SCREWS_
 10
-1874.794699981547
 20
931.3201459983775
 30
0.0
 40
12.5
210
0.0
220
0.0
230
-1.0
  0
CIRCLE
  5
2C2
  8
POCKET_15_5MM
 10
-2133.538937588542
 20
1043.268060289323
 30
0.0
 40
10.0
210
0.0
220
0.0
230
-1.0
  0
CIRCLE
  5
2C3
  8
POCKET_15_5MM
 10
-2133.538937588542
 20
1087.268060289323
 30
0.0
 40
10.0
210
0.0
220
0.0
230
-1.0
  0
CIRCLE
  5
2C4
  8
POCKET_15_5MM
 10
-2215.038937588528
 20
1043.268060289327
 30
0.0
 40
9.999999999998181
210
0.0
220
0.0
230
-1.0
  0
CIRCLE
  5
2C5
  8
POCKET_15_5MM
 10
-2215.038937588535
 20
1087.268060289323
 30
0.0
 40
10.00000000000182
210
0.0
220
0.0
230
-1.0
  0
CIRCLE
  5
2C6
  8
POCKET_15_5MM
 10
-2133.538937548088
 20
911.7680602893015
 30
0.0
 40
10.00000000000182
210
0.0
220
0.0
230
-1.0
  0
CIRCLE
  5
2C7
  8
POCKET_15_5MM
 10
-2133.538937548103
 20
955.7680602892979
 30
0.0
 40
9.999999999998181
210
0.0
220
0.0
230
-1.0
  0
CIRCLE
  5
2C8
  8
POCKET_15_5MM
 10
-2215.038937548081
 20
911.768060289287
 30
0.0
 40
10.0
210
0.0
220
0.0
230
-1.0
  0
CIRCLE
  5
2C9
  8
POCKET_15_5MM
 10
-2215.038937548088
 20
955.768060289287
 30
0.0
 40
10.0
210
0.0
220
0.0
230
-1.0
  0
POLYLINE
  5
2CA
  8
POCKET_7_5MM_DOGBONE
 66
     1
 10
0.0
 20
0.0
 30
0.0
 70
     1
  0
VERTEX
  5
2CB
  8
POCKET_7_5MM_DOGBONE
 10
1559.999999999993
 20
291.8330952366438
 30
0.0
 42
1.000000005956854
  0
VERTEX
  5
2CC
  8
POCKET_7_5MM_DOGBONE
 10
1555.333095259326
 20
296.5000000076353
 30
0.0
  0
VERTEX
  5
2CD
  8
POCKET_7_5MM_DOGBONE
 10
1524.666904776037
 20
296.5000000202743
 30
0.0
 42
0.999999999998514
  0
VERTEX
  5
2CE
  8
POCKET_7_5MM_DOGBONE
 10
1520.000000020206
 20
291.8330952644428
 30
0.0
  0
VERTEX
  5
2CF
  8
POCKET_7_5MM_DOGBONE
 10
1519.999999979773
 20
286.1669047761062
 30
0.0
 42
1.0000000000095
  0
VERTEX
  5
2D0
  8
POCKET_7_5MM_DOGBONE
 10
1524.66690473561
 20
281.5000000202737
 30
0.0
  0
VERTEX
  5
2D1
  8
POCKET_7_5MM_DOGBONE
 10
1555.333095223948
 20
281.4999999798384
 30
0.0
 42
0.9999999999988306
  0
VERTEX
  5
2D2
  8
POCKET_7_5MM_DOGBONE
 10
1559.999999979778
 20
286.1669047356714
 30
0.0
  0
SEQEND
  5
2D3
  8
POCKET_7_5MM_DOGBONE
  0
POLYLINE
  5
2D4
  8
POCKET_7_5MM_DOGBONE
 66
     1
 10
0.0
 20
0.0
 30
0.0
 70
     1
  0
VERTEX
  5
2D5
  8
POCKET_7_5MM_DOGBONE
 10
1559.999999999993
 20
933.8330952366546
 30
0.0
 42
1.000000005956513
  0
VERTEX
  5
2D6
  8
POCKET_7_5MM_DOGBONE
 10
1555.333095254263
 20
938.5000000076479
 30
0.0
  0
VERTEX
  5
2D7
  8
POCKET_7_5MM_DOGBONE
 10
1524.666904776037
 20
938.500000020285
 30
0.0
 42
0.9999999999985384
  0
VERTEX
  5
2D8
  8
POCKET_7_5MM_DOGBONE
 10
1520.000000020206
 20
933.8330952644534
 30
0.0
  0
VERTEX
  5
2D9
  8
POCKET_7_5MM_DOGBONE
 10
1519.999999979773
 20
928.1669047761186
 30
0.0
 42
1.000000000007065
  0
VERTEX
  5
2DA
  8
POCKET_7_5MM_DOGBONE
 10
1524.666904735588
 20
923.5000000202932
 30
0.0
  0
VERTEX
  5
2DB
  8
POCKET_7_5MM_DOGBONE
 10
1555.333095223949
 20
923.4999999798495
 30
0.0
 42
0.9999999999979049
  0
VERTEX
  5
2DC
  8
POCKET_7_5MM_DOGBONE
 10
1559.999999979771
 20
928.1669047356801
 30
0.0
  0
SEQEND
  5
2DD
  8
POCKET_7_5MM_DOGBONE
  0
POLYLINE
  5
2DE
  8
POCKET_7_5MM_DOGBONE
 66
     1
 10
0.0
 20
0.0
 30
0.0
 70
     1
  0
VERTEX
  5
2DF
  8
POCKET_7_5MM_DOGBONE
 10
889.9999999999927
 20
291.8330952365822
 30
0.0
 42
1.000000005956781
  0
VERTEX
  5
2E0
  8
POCKET_7_5MM_DOGBONE
 10
885.333095259326
 20
296.5000000075735
 30
0.0
  0
VERTEX
  5
2E1
  8
POCKET_7_5MM_DOGBONE
 10
854.6669047760371
 20
296.5000000202127
 30
0.0
 42
1.00000000000134
  0
VERTEX
  5
2E2
  8
POCKET_7_5MM_DOGBONE
 10
850.0000000202172
 20
291.8330952643873
 30
0.0
  0
VERTEX
  5
2E3
  8
POCKET_7_5MM_DOGBONE
 10
849.9999999797802
 20
286.1669047760477
 30
0.0
 42
1.000000000002436
  0
VERTEX
  5
2E4
  8
POCKET_7_5MM_DOGBONE
 10
854.6669047356139
 20
281.5000000202149
 30
0.0
  0
VERTEX
  5
2E5
  8
POCKET_7_5MM_DOGBONE
 10
885.3330952239411
 20
281.49999997978
 30
0.0
 42
0.9999999999972228
  0
VERTEX
  5
2E6
  8
POCKET_7_5MM_DOGBONE
 10
889.9999999797761
 20
286.166904735611
 30
0.0
  0
SEQEND
  5
2E7
  8
POCKET_7_5MM_DOGBONE
  0
POLYLINE
  5
2E8
  8
POCKET_7_5MM_DOGBONE
 66
     1
 10
0.0
 20
0.0
 30
0.0
 70
     1
  0
VERTEX
  5
2E9
  8
POCKET_7_5MM_DOGBONE
 10
889.9999999999891
 20
933.8330952365932
 30
0.0
 42
1.000000005957439
  0
VERTEX
  5
2EA
  8
POCKET_7_5MM_DOGBONE
 10
885.3330952593265
 20
938.5000000075847
 30
0.0
  0
VERTEX
  5
2EB
  8
POCKET_7_5MM_DOGBONE
 10
854.6669047760369
 20
938.5000000202216
 30
0.0
 42
1.000000000001949
  0
VERTEX
  5
2EC
  8
POCKET_7_5MM_DOGBONE
 10
850.0000000202037
 20
933.8330952643814
 30
0.0
  0
VERTEX
  5
2ED
  8
POCKET_7_5MM_DOGBONE
 10
849.9999999797728
 20
928.1669047760588
 30
0.0
 42
1.000000000006236
  0
VERTEX
  5
2EE
  8
POCKET_7_5MM_DOGBONE
 10
854.6669047356077
 20
923.500000020224
 30
0.0
  0
VERTEX
  5
2EF
  8
POCKET_7_5MM_DOGBONE
 10
885.3330952239485
 20
923.4999999797946
 30
0.0
 42
0.9999999999977102
  0
VERTEX
  5
2F0
  8
POCKET_7_5MM_DOGBONE
 10
889.9999999797836
 20
928.166904735627
 30
0.0
  0
SEQEND
  5
2F1
  8
POCKET_7_5MM_DOGBONE
  0
POLYLINE
  5
2F2
  8
POCKET_7_5MM_DOGBONE
 66
     1
 10
0.0
 20
0.0
 30
0.0
 70
     1
  0
VERTEX
  5
2F3
  8
POCKET_7_5MM_DOGBONE
 10
1212.50000001011
 20
439.0833523841779
 30
0.0
 42
1.000000000002948
  0
VERTEX
  5
2F4
  8
POCKET_7_5MM_DOGBONE
 10
1207.833095264393
 20
443.7502571501193
 30
0.0
  0
VERTEX
  5
2F5
  8
POCKET_7_5MM_DOGBONE
 10
1202.166904776037
 20
443.7502571804471
 30
0.0
 42
0.9999999999979293
  0
VERTEX
  5
2F6
  8
POCKET_7_5MM_DOGBONE
 10
1197.500000020202
 20
439.0833524246098
 30
0.0
  0
VERTEX
  5
2F7
  8
POCKET_7_5MM_DOGBONE
 10
1197.499999979773
 20
408.4171619362803
 30
0.0
 42
1.00000000000123
  0
VERTEX
  5
2F8
  8
POCKET_7_5MM_DOGBONE
 10
1202.166904735603
 20
403.750257180444
 30
0.0
  0
VERTEX
  5
2F9
  8
POCKET_7_5MM_DOGBONE
 10
1207.833095223927
 20
403.7502571400109
 30
0.0
 42
1.000000000000682
  0
VERTEX
  5
2FA
  8
POCKET_7_5MM_DOGBONE
 10
1212.499999979762
 20
408.4171618958385
 30
0.0
  0
SEQEND
  5
2FB
  8
POCKET_7_5MM_DOGBONE
  0
POLYLINE
  5
2FC
  8
POCKET_7_5MM_DOGBONE
 66
     1
 10
0.0
 20
0.0
 30
0.0
 70
     1
  0
VERTEX
  5
2FD
  8
POCKET_7_5MM_DOGBONE
 10
1212.500000010099
 20
171.8614066120201
 30
0.0
 42
1.000000000002436
  0
VERTEX
  5
2FE
  8
POCKET_7_5MM_DOGBONE
 10
1207.833095264377
 20
176.5283113779626
 30
0.0
  0
VERTEX
  5
2FF
  8
POCKET_7_5MM_DOGBONE
 10
1202.166904776037
 20
176.5283114082888
 30
0.0
 42
0.9999999999968819
  0
VERTEX
  5
300
  8
POCKET_7_5MM_DOGBONE
 10
1197.500000020212
 20
171.8614066524644
 30
0.0
  0
VERTEX
  5
301
  8
POCKET_7_5MM_DOGBONE
 10
1197.499999979773
 20
141.195216164122
 30
0.0
 42
1.000000000002466
  0
VERTEX
  5
302
  8
POCKET_7_5MM_DOGBONE
 10
1202.166904735619
 20
136.5283114082874
 30
0.0
  0
VERTEX
  5
303
  8
POCKET_7_5MM_DOGBONE
 10
1207.833095223948
 20
136.5283113678542
 30
0.0
 42
0.9999999999988917
  0
VERTEX
  5
304
  8
POCKET_7_5MM_DOGBONE
 10
1212.499999979768
 20
141.1952161236886
 30
0.0
  0
SEQEND
  5
305
  8
POCKET_7_5MM_DOGBONE
  0
POLYLINE
  5
306
  8
POCKET_7_5MM_DOGBONE
 66
     1
 10
0.0
 20
0.0
 30
0.0
 70
     1
  0
VERTEX
  5
307
  8
POCKET_7_5MM_DOGBONE
 10
1411.249999999993
 20
612.8330952366327
 30
0.0
 42
1.000000005956781
  0
VERTEX
  5
308
  8
POCKET_7_5MM_DOGBONE
 10
1406.583095259326
 20
617.5000000076245
 30
0.0
  0
VERTEX
  5
309
  8
POCKET_7_5MM_DOGBONE
 10
1375.916904776037
 20
617.5000000202637
 30
0.0
 42
1.000000000001656
  0
VERTEX
  5
30A
  8
POCKET_7_5MM_DOGBONE
 10
1371.250000020205
 20
612.8330952644316
 30
0.0
  0
VERTEX
  5
30B
  8
POCKET_7_5MM_DOGBONE
 10
1371.249999979773
 20
607.1669047760951
 30
0.0
 42
1.000000000002996
  0
VERTEX
  5
30C
  8
POCKET_7_5MM_DOGBONE
 10
1375.916904735609
 20
602.5000000202646
 30
0.0
  0
VERTEX
  5
30D
  8
POCKET_7_5MM_DOGBONE
 10
1406.583095223948
 20
602.4999999798273
 30
0.0
 42
0.9999999999984895
  0
VERTEX
  5
30E
  8
POCKET_7_5MM_DOGBONE
 10
1411.24999997978
 20
607.1669047356597
 30
0.0
  0
SEQEND
  5
30F
  8
POCKET_7_5MM_DOGBONE
  0
POLYLINE
  5
310
  8
POCKET_7_5MM_DOGBONE
 66
     1
 10
0.0
 20
0.0
 30
0.0
 70
     1
  0
VERTEX
  5
311
  8
POCKET_7_5MM_DOGBONE
 10
1038.749999999985
 20
612.8330952366052
 30
0.0
 42
1.000000005957244
  0
VERTEX
  5
312
  8
POCKET_7_5MM_DOGBONE
 10
1034.083095259316
 20
617.5000000075989
 30
0.0
  0
VERTEX
  5
313
  8
POCKET_7_5MM_DOGBONE
 10
1003.416904776044
 20
617.5000000202378
 30
0.0
 42
1.000000000001608
  0
VERTEX
  5
314
  8
POCKET_7_5MM_DOGBONE
 10
998.7500000202128
 20
612.8330952644064
 30
0.0
  0
VERTEX
  5
315
  8
POCKET_7_5MM_DOGBONE
 10
998.7499999797728
 20
607.1669047760679
 30
0.0
 42
1.000000000002192
  0
VERTEX
  5
316
  8
POCKET_7_5MM_DOGBONE
 10
1003.416904735593
 20
602.5000000202422
 30
0.0
  0
VERTEX
  5
317
  8
POCKET_7_5MM_DOGBONE
 10
1034.083095223941
 20
602.4999999797984
 30
0.0
 42
0.9999999999977102
  0
VERTEX
  5
318
  8
POCKET_7_5MM_DOGBONE
 10
1038.749999979775
 20
607.1669047356252
 30
0.0
  0
SEQEND
  5
319
  8
POCKET_7_5MM_DOGBONE
  0
POLYLINE
  5
31A
  8
POCKET_7_5MM_DOGBONE
 66
     1
 10
0.0
 20
0.0
 30
0.0
 70
     1
  0
VERTEX
  5
31B
  8
POCKET_7_5MM_DOGBONE
 10
830.3330952239412
 20
1043.472202922247
 30
0.0
  0
VERTEX
  5
31C
  8
POCKET_7_5MM_DOGBONE
 10
816.2999999999884
 20
1043.472202932355
 30
0.0
 42
-0.4142135623717119
  0
VERTEX
  5
31D
  8
POCKET_7_5MM_DOGBONE
 10
812.9999999999872
 20
1046.772202932355
 30
0.0
  0
VERTEX
  5
31E
  8
POCKET_7_5MM_DOGBONE
 10
812.9999999999928
 20
1080.172202932356
 30
0.0
 42
-0.4142135623735583
  0
VERTEX
  5
31F
  8
POCKET_7_5MM_DOGBONE
 10
816.2999999999956
 20
1083.472202932349
 30
0.0
  0
VERTEX
  5
320
  8
POCKET_7_5MM_DOGBONE
 10
830.3330952643881
 20
1083.472202922247
 30
0.0
 42
-1.00000000000095
  0
VERTEX
  5
321
  8
POCKET_7_5MM_DOGBONE
 10
835.0000000100949
 20
1078.805298156309
 30
0.0
  0
VERTEX
  5
322
  8
POCKET_7_5MM_DOGBONE
 10
834.9999999898866
 20
1048.139107667969
 30
0.0
 42
-0.9999999999956638
  0
SEQEND
  5
323
  8
POCKET_7_5MM_DOGBONE
  0
POLYLINE
  5
324
  8
POCKET_7_5MM_DOGBONE
 66
     1
 10
0.0
 20
0.0
 30
0.0
 70
     1
  0
VERTEX
  5
325
  8
POCKET_7_5MM_DOGBONE
 10
830.3330952239339
 20
776.2502571704572
 30
0.0
  0
VERTEX
  5
326
  8
POCKET_7_5MM_DOGBONE
 10
816.2999999999884
 20
776.2502571805672
 30
0.0
 42
-0.4142135623730112
  0
VERTEX
  5
327
  8
POCKET_7_5MM_DOGBONE
 10
812.999999999987
 20
779.5502571805672
 30
0.0
  0
VERTEX
  5
328
  8
POCKET_7_5MM_DOGBONE
 10
812.9999999999854
 20
812.9502571805679
 30
0.0
 42
-0.4142135623733792
  0
VERTEX
  5
329
  8
POCKET_7_5MM_DOGBONE
 10
816.2999999999956
 20
816.2502571805671
 30
0.0
  0
VERTEX
  5
32A
  8
POCKET_7_5MM_DOGBONE
 10
830.3330952643882
 20
816.2502571704572
 30
0.0
 42
-1.000000000002534
  0
VERTEX
  5
32B
  8
POCKET_7_5MM_DOGBONE
 10
835.0000000101022
 20
811.5833524045138
 30
0.0
  0
VERTEX
  5
32C
  8
POCKET_7_5MM_DOGBONE
 10
834.9999999898791
 20
780.9171619161789
 30
0.0
 42
-0.999999999996492
  0
SEQEND
  5
32D
  8
POCKET_7_5MM_DOGBONE
  0
POLYLINE
  5
32E
  8
POCKET_7_5MM_DOGBONE
 66
     1
 10
0.0
 20
0.0
 30
0.0
 70
     1
  0
VERTEX
  5
32F
  8
POCKET_7_5MM_DOGBONE
 10
830.3330952239339
 20
403.750257170308
 30
0.0
  0
VERTEX
  5
330
  8
POCKET_7_5MM_DOGBONE
 10
816.2999999999884
 20
403.750257180418
 30
0.0
 42
-0.4142135623726991
  0
VERTEX
  5
331
  8
POCKET_7_5MM_DOGBONE
 10
812.9999999999836
 20
407.0502571804183
 30
0.0
  0
VERTEX
  5
332
  8
POCKET_7_5MM_DOGBONE
 10
812.9999999999856
 20
440.4502571804187
 30
0.0
 42
-0.4142135623732121
  0
VERTEX
  5
333
  8
POCKET_7_5MM_DOGBONE
 10
816.2999999999956
 20
443.7502571804162
 30
0.0
  0
VERTEX
  5
334
  8
POCKET_7_5MM_DOGBONE
 10
830.3330952643882
 20
443.750257170308
 30
0.0
 42
-1.000000000002534
  0
VERTEX
  5
335
  8
POCKET_7_5MM_DOGBONE
 10
835.0000000101022
 20
439.0833524043646
 30
0.0
  0
VERTEX
  5
336
  8
POCKET_7_5MM_DOGBONE
 10
834.9999999898791
 20
408.4171619160297
 30
0.0
 42
-0.9999999999968939
  0
SEQEND
  5
337
  8
POCKET_7_5MM_DOGBONE
  0
POLYLINE
  5
338
  8
POCKET_7_5MM_DOGBONE
 66
     1
 10
0.0
 20
0.0
 30
0.0
 70
     1
  0
VERTEX
  5
339
  8
POCKET_7_5MM_DOGBONE
 10
830.3330952239339
 20
136.5283113981532
 30
0.0
  0
VERTEX
  5
33A
  8
POCKET_7_5MM_DOGBONE
 10
816.2999999999884
 20
136.5283114082614
 30
0.0
 42
-0.4142135623730283
  0
VERTEX
  5
33B
  8
POCKET_7_5MM_DOGBONE
 10
812.9999999999869
 20
139.8283114082612
 30
0.0
  0
VERTEX
  5
33C
  8
POCKET_7_5MM_DOGBONE
 10
812.9999999999854
 20
173.2283114082602
 30
0.0
 42
-0.4142135623731159
  0
VERTEX
  5
33D
  8
POCKET_7_5MM_DOGBONE
 10
816.299999999992
 20
176.5283114082595
 30
0.0
  0
VERTEX
  5
33E
  8
POCKET_7_5MM_DOGBONE
 10
830.3330952643882
 20
176.5283113981532
 30
0.0
 42
-1.000000000000974
  0
VERTEX
  5
33F
  8
POCKET_7_5MM_DOGBONE
 10
835.0000000100949
 20
171.8614066322098
 30
0.0
  0
VERTEX
  5
340
  8
POCKET_7_5MM_DOGBONE
 10
834.9999999898791
 20
141.1952161438749
 30
0.0
 42
-0.9999999999968939
  0
SEQEND
  5
341
  8
POCKET_7_5MM_DOGBONE
  0
POLYLINE
  5
342
  8
POCKET_7_5MM_DOGBONE
 66
     1
 10
0.0
 20
0.0
 30
0.0
 70
     1
  0
VERTEX
  5
343
  8
POCKET_7_5MM_DOGBONE
 10
1038.749999989886
 20
35.33309522396485
 30
0.0
  0
VERTEX
  5
344
  8
POCKET_7_5MM_DOGBONE
 10
1038.749999979773
 20
21.30000000001564
 30
0.0
 42
-0.4142135623752673
  0
VERTEX
  5
345
  8
POCKET_7_5MM_DOGBONE
 10
1035.449999979774
 20
18.00000000001455
 30
0.0
  0
VERTEX
  5
346
  8
POCKET_7_5MM_DOGBONE
 10
1002.049999979768
 20
18.00000000002365
 30
0.0
 42
-0.4142135623729335
  0
VERTEX
  5
347
  8
POCKET_7_5MM_DOGBONE
 10
998.7499999797737
 20
21.30000000002931
 30
0.0
  0
VERTEX
  5
348
  8
POCKET_7_5MM_DOGBONE
 10
998.7499999898864
 20
35.33309526442281
 30
0.0
 42
-1.000000000001169
  0
VERTEX
  5
349
  8
POCKET_7_5MM_DOGBONE
 10
1003.41690475583
 20
40.00000001013541
 30
0.0
  0
VERTEX
  5
34A
  8
POCKET_7_5MM_DOGBONE
 10
1034.083095244161
 20
39.99999998990635
 30
0.0
 42
-0.9999999999964889
  0
SEQEND
  5
34B
  8
POCKET_7_5MM_DOGBONE
  0
POLYLINE
  5
34C
  8
POCKET_7_5MM_DOGBONE
 66
     1
 10
0.0
 20
0.0
 30
0.0
 70
     1
  0
VERTEX
  5
34D
  8
POCKET_7_5MM_DOGBONE
 10
1411.249999989886
 20
35.33309522399213
 30
0.0
  0
VERTEX
  5
34E
  8
POCKET_7_5MM_DOGBONE
 10
1411.249999979773
 20
21.30000000004293
 30
0.0
 42
-0.4142135623730987
  0
VERTEX
  5
34F
  8
POCKET_7_5MM_DOGBONE
 10
1407.94999997977
 20
18.00000000004002
 30
0.0
  0
VERTEX
  5
350
  8
POCKET_7_5MM_DOGBONE
 10
1374.549999979768
 20
18.00000000005094
 30
0.0
 42
-0.4142135623737485
  0
VERTEX
  5
351
  8
POCKET_7_5MM_DOGBONE
 10
1371.249999979771
 20
21.30000000005933
 30
0.0
  0
VERTEX
  5
352
  8
POCKET_7_5MM_DOGBONE
 10
1371.249999989886
 20
35.33309526445009
 30
0.0
 42
-1.000000000001169
  0
VERTEX
  5
353
  8
POCKET_7_5MM_DOGBONE
 10
1375.91690475583
 20
40.00000001016269
 30
0.0
  0
VERTEX
  5
354
  8
POCKET_7_5MM_DOGBONE
 10
1406.583095244161
 20
39.99999998993386
 30
0.0
 42
-0.9999999999964159
  0
SEQEND
  5
355
  8
POCKET_7_5MM_DOGBONE
  0
POLYLINE
  5
356
  8
POCKET_7_5MM_DOGBONE
 66
     1
 10
0.0
 20
0.0
 30
0.0
 70
     1
  0
VERTEX
  5
357
  8
POCKET_7_5MM_DOGBONE
 10
1579.666904776052
 20
176.5283113779897
 30
0.0
  0
VERTEX
  5
358
  8
POCKET_7_5MM_DOGBONE
 10
1593.699999999997
 20
176.5283113678761
 30
0.0
 42
-0.4142135623751845
  0
VERTEX
  5
359
  8
POCKET_7_5MM_DOGBONE
 10
1597.0
 20
173.2283113678755
 30
0.0
  0
VERTEX
  5
35A
  8
POCKET_7_5MM_DOGBONE
 10
1596.999999999985
 20
139.8283113678754
 30
0.0
 42
-0.4142135623732395
  0
VERTEX
  5
35B
  8
POCKET_7_5MM_DOGBONE
 10
1593.699999999983
 20
136.5283113678706
 30
0.0
  0
VERTEX
  5
35C
  8
POCKET_7_5MM_DOGBONE
 10
1579.666904735582
 20
136.5283113779898
 30
0.0
 42
-1.000000000001255
  0
VERTEX
  5
35D
  8
POCKET_7_5MM_DOGBONE
 10
1574.999999989876
 20
141.1952161439312
 30
0.0
  0
VERTEX
  5
35E
  8
POCKET_7_5MM_DOGBONE
 10
1575.000000010106
 20
171.861406632268
 30
0.0
 42
-0.9999999999953227
  0
SEQEND
  5
35F
  8
POCKET_7_5MM_DOGBONE
  0
POLYLINE
  5
360
  8
POCKET_7_5MM_DOGBONE
 66
     1
 10
0.0
 20
0.0
 30
0.0
 70
     1
  0
VERTEX
  5
361
  8
POCKET_7_5MM_DOGBONE
 10
1579.666904776052
 20
443.7502571501464
 30
0.0
  0
VERTEX
  5
362
  8
POCKET_7_5MM_DOGBONE
 10
1593.699999999997
 20
443.7502571400327
 30
0.0
 42
-0.414213562375035
  0
VERTEX
  5
363
  8
POCKET_7_5MM_DOGBONE
 10
1597.000000000003
 20
440.4502571400326
 30
0.0
  0
VERTEX
  5
364
  8
POCKET_7_5MM_DOGBONE
 10
1596.999999999986
 20
407.050257140032
 30
0.0
 42
-0.4142135623734942
  0
VERTEX
  5
365
  8
POCKET_7_5MM_DOGBONE
 10
1593.699999999975
 20
403.7502571400328
 30
0.0
  0
VERTEX
  5
366
  8
POCKET_7_5MM_DOGBONE
 10
1579.666904735583
 20
403.7502571501464
 30
0.0
 42
-1.00000000000078
  0
VERTEX
  5
367
  8
POCKET_7_5MM_DOGBONE
 10
1574.999999989876
 20
408.4171619160843
 30
0.0
  0
VERTEX
  5
368
  8
POCKET_7_5MM_DOGBONE
 10
1575.000000010106
 20
439.0833524044247
 30
0.0
 42
-0.9999999999940073
  0
SEQEND
  5
369
  8
POCKET_7_5MM_DOGBONE
  0
POLYLINE
  5
36A
  8
POCKET_7_5MM_DOGBONE
 66
     1
 10
0.0
 20
0.0
 30
0.0
 70
     1
  0
VERTEX
  5
36B
  8
POCKET_7_5MM_DOGBONE
 10
1579.666904776052
 20
816.2502571502955
 30
0.0
  0
VERTEX
  5
36C
  8
POCKET_7_5MM_DOGBONE
 10
1593.699999999997
 20
816.2502571401819
 30
0.0
 42
-0.4142135623750529
  0
VERTEX
  5
36D
  8
POCKET_7_5MM_DOGBONE
 10
1597.000000000003
 20
812.9502571401817
 30
0.0
  0
VERTEX
  5
36E
  8
POCKET_7_5MM_DOGBONE
 10
1596.999999999985
 20
779.5502571401812
 30
0.0
 42
-0.4142135623730951
  0
VERTEX
  5
36F
  8
POCKET_7_5MM_DOGBONE
 10
1593.699999999983
 20
776.2502571401783
 30
0.0
  0
VERTEX
  5
370
  8
POCKET_7_5MM_DOGBONE
 10
1579.666904735583
 20
776.2502571502955
 30
0.0
 42
-1.000000000001169
  0
VERTEX
  5
371
  8
POCKET_7_5MM_DOGBONE
 10
1574.999999989876
 20
780.9171619162371
 30
0.0
  0
VERTEX
  5
372
  8
POCKET_7_5MM_DOGBONE
 10
1575.000000010106
 20
811.5833524045738
 30
0.0
 42
-0.9999999999953227
  0
SEQEND
  5
373
  8
POCKET_7_5MM_DOGBONE
  0
POLYLINE
  5
374
  8
POCKET_7_5MM_DOGBONE
 66
     1
 10
0.0
 20
0.0
 30
0.0
 70
     1
  0
VERTEX
  5
375
  8
POCKET_7_5MM_DOGBONE
 10
1579.666904776052
 20
1083.472202922303
 30
0.0
  0
VERTEX
  5
376
  8
POCKET_7_5MM_DOGBONE
 10
1593.699999999997
 20
1083.472202912189
 30
0.0
 42
-0.4142135623752605
  0
VERTEX
  5
377
  8
POCKET_7_5MM_DOGBONE
 10
1597.000000000002
 20
1080.172202912191
 30
0.0
  0
VERTEX
  5
378
  8
POCKET_7_5MM_DOGBONE
 10
1596.999999999985
 20
1046.772202912189
 30
0.0
 42
-0.4142135623741258
  0
VERTEX
  5
379
  8
POCKET_7_5MM_DOGBONE
 10
1593.699999999979
 20
1043.472202912193
 30
0.0
  0
VERTEX
  5
37A
  8
POCKET_7_5MM_DOGBONE
 10
1579.666904735583
 20
1043.472202922303
 30
0.0
 42
-1.00000000000078
  0
VERTEX
  5
37B
  8
POCKET_7_5MM_DOGBONE
 10
1574.999999989876
 20
1048.139107688241
 30
0.0
  0
VERTEX
  5
37C
  8
POCKET_7_5MM_DOGBONE
 10
1575.000000010106
 20
1078.805298176581
 30
0.0
 42
-0.9999999999953227
  0
SEQEND
  5
37D
  8
POCKET_7_5MM_DOGBONE
  0
POLYLINE
  5
37E
  8
POCKET_7_5MM_DOGBONE
 66
     1
 10
0.0
 20
0.0
 30
0.0
 70
     1
  0
VERTEX
  5
37F
  8
POCKET_7_5MM_DOGBONE
 10
1371.250000010099
 20
1184.666904776106
 30
0.0
  0
VERTEX
  5
380
  8
POCKET_7_5MM_DOGBONE
 10
1371.250000020213
 20
1198.700000000055
 30
0.0
 42
-0.4142135623735464
  0
VERTEX
  5
381
  8
POCKET_7_5MM_DOGBONE
 10
1374.550000020212
 20
1202.000000000053
 30
0.0
  0
VERTEX
  5
382
  8
POCKET_7_5MM_DOGBONE
 10
1407.95000002021
 20
1202.00000000004
 30
0.0
 42
-0.4142135623746385
  0
VERTEX
  5
383
  8
POCKET_7_5MM_DOGBONE
 10
1411.250000020214
 20
1198.700000000034
 30
0.0
  0
VERTEX
  5
384
  8
POCKET_7_5MM_DOGBONE
 10
1411.250000010099
 20
1184.666904735641
 30
0.0
 42
-1.000000000001169
  0
VERTEX
  5
385
  8
POCKET_7_5MM_DOGBONE
 10
1406.583095244156
 20
1179.999999989928
 30
0.0
  0
VERTEX
  5
386
  8
POCKET_7_5MM_DOGBONE
 10
1375.916904755824
 20
1180.000000010161
 30
0.0
 42
-0.9999999999958588
  0
SEQEND
  5
387
  8
POCKET_7_5MM_DOGBONE
  0
POLYLINE
  5
388
  8
POCKET_7_5MM_DOGBONE
 66
     1
 10
0.0
 20
0.0
 30
0.0
 70
     1
  0
VERTEX
  5
389
  8
POCKET_7_5MM_DOGBONE
 10
998.750000010099
 20
1184.666904776077
 30
0.0
  0
VERTEX
  5
38A
  8
POCKET_7_5MM_DOGBONE
 10
998.7500000202127
 20
1198.700000000026
 30
0.0
 42
-0.4142135623726068
  0
VERTEX
  5
38B
  8
POCKET_7_5MM_DOGBONE
 10
1002.050000020212
 20
1202.000000000027
 30
0.0
  0
VERTEX
  5
38C
  8
POCKET_7_5MM_DOGBONE
 10
1035.45000002021
 20
1202.000000000011
 30
0.0
 42
-0.4142135623748098
  0
VERTEX
  5
38D
  8
POCKET_7_5MM_DOGBONE
 10
1038.750000020213
 20
1198.700000000004
 30
0.0
  0
VERTEX
  5
38E
  8
POCKET_7_5MM_DOGBONE
 10
1038.750000010099
 20
1184.666904735612
 30
0.0
 42
-1.000000000001169
  0
VERTEX
  5
38F
  8
POCKET_7_5MM_DOGBONE
 10
1034.083095244156
 20
1179.999999989899
 30
0.0
  0
VERTEX
  5
390
  8
POCKET_7_5MM_DOGBONE
 10
1003.416904755825
 20
1180.000000010132
 30
0.0
 42
-0.9999999999957857
  0
SEQEND
  5
391
  8
POCKET_7_5MM_DOGBONE
  0
POLYLINE
  5
392
  8
POCKET_7_5MM_DOGBONE
 66
     1
 10
0.0
 20
0.0
 30
0.0
 70
     1
  0
VERTEX
  5
393
  8
POCKET_7_5MM_DOGBONE
 10
1188.749817748056
 20
933.8330952366205
 30
0.0
 42
1.000000005956756
  0
VERTEX
  5
394
  8
POCKET_7_5MM_DOGBONE
 10
1184.082913002332
 20
938.5000000076152
 30
0.0
  0
VERTEX
  5
395
  8
POCKET_7_5MM_DOGBONE
 10
1153.416722524111
 20
938.5000000202513
 30
0.0
 42
1.000000000004629
  0
VERTEX
  5
396
  8
POCKET_7_5MM_DOGBONE
 10
1148.749817768281
 20
933.8330952644168
 30
0.0
  0
VERTEX
  5
397
  8
POCKET_7_5MM_DOGBONE
 10
1148.749817727847
 20
928.166904776086
 30
0.0
 42
0.9999999999986114
  0
VERTEX
  5
398
  8
POCKET_7_5MM_DOGBONE
 10
1153.416722483667
 20
923.5000000202568
 30
0.0
  0
VERTEX
  5
399
  8
POCKET_7_5MM_DOGBONE
 10
1184.082912972008
 20
923.4999999798126
 30
0.0
 42
0.9999999999980999
  0
VERTEX
  5
39A
  8
POCKET_7_5MM_DOGBONE
 10
1188.749817727826
 20
928.1669047356396
 30
0.0
  0
SEQEND
  5
39B
  8
POCKET_7_5MM_DOGBONE
  0
POLYLINE
  5
39C
  8
POCKET_7_5MM_DOGBONE
 66
     1
 10
0.0
 20
0.0
 30
0.0
 70
     1
  0
VERTEX
  5
39D
  8
POCKET_7_5MM_DOGBONE
 10
1261.250182221593
 20
286.1669047651078
 30
0.0
 42
-1.000000005956415
  0
VERTEX
  5
39E
  8
POCKET_7_5MM_DOGBONE
 10
1256.583277480928
 20
281.4999999941108
 30
0.0
  0
VERTEX
  5
39F
  8
POCKET_7_5MM_DOGBONE
 10
1225.917086997644
 20
281.499999981479
 30
0.0
 42
-1.000000000001413
  0
VERTEX
  5
3A0
  8
POCKET_7_5MM_DOGBONE
 10
1221.250182241825
 20
286.1669047373083
 30
0.0
  0
VERTEX
  5
3A1
  8
POCKET_7_5MM_DOGBONE
 10
1221.250182201373
 20
291.8330952256475
 30
0.0
 42
-1.000000000001632
  0
VERTEX
  5
3A2
  8
POCKET_7_5MM_DOGBONE
 10
1225.917086957205
 20
296.4999999814788
 30
0.0
  0
VERTEX
  5
3A3
  8
POCKET_7_5MM_DOGBONE
 10
1256.583277445549
 20
296.5000000219132
 30
0.0
 42
-0.9999999999979537
  0
VERTEX
  5
3A4
  8
POCKET_7_5MM_DOGBONE
 10
1261.250182201383
 20
291.8330952660751
 30
0.0
  0
SEQEND
  5
3A5
  8
POCKET_7_5MM_DOGBONE
  0
POLYLINE
  5
3A6
  8
POCKET_7_5MM_DOGBONE
 66
     1
 10
0.0
 20
0.0
 30
0.0
 70
     1
  0
VERTEX
  5
3A7
  8
POCKET_7_5MM_DOGBONE
 10
1188.749817748056
 20
286.1669047651149
 30
0.0
 42
-1.000000005956756
  0
VERTEX
  5
3A8
  8
POCKET_7_5MM_DOGBONE
 10
1184.082913002332
 20
281.4999999941201
 30
0.0
  0
VERTEX
  5
3A9
  8
POCKET_7_5MM_DOGBONE
 10
1153.416722524111
 20
281.4999999814863
 30
0.0
 42
-1.000000000004653
  0
VERTEX
  5
3AA
  8
POCKET_7_5MM_DOGBONE
 10
1148.749817768281
 20
286.1669047373204
 30
0.0
  0
VERTEX
  5
3AB
  8
POCKET_7_5MM_DOGBONE
 10
1148.749817727847
 20
291.8330952256512
 30
0.0
 42
-0.999999999998587
  0
VERTEX
  5
3AC
  8
POCKET_7_5MM_DOGBONE
 10
1153.416722483667
 20
296.4999999814803
 30
0.0
  0
VERTEX
  5
3AD
  8
POCKET_7_5MM_DOGBONE
 10
1184.082912972008
 20
296.5000000219243
 30
0.0
 42
-0.9999999999980512
  0
VERTEX
  5
3AE
  8
POCKET_7_5MM_DOGBONE
 10
1188.749817727826
 20
291.8330952660976
 30
0.0
  0
SEQEND
  5
3AF
  8
POCKET_7_5MM_DOGBONE
  0
POLYLINE
  5
3B0
  8
POCKET_7_5MM_DOGBONE
 66
     1
 10
0.0
 20
0.0
 30
0.0
 70
     1
  0
VERTEX
  5
3B1
  8
POCKET_7_5MM_DOGBONE
 10
466.2501822215927
 20
286.1669047651078
 30
0.0
 42
-1.000000005956367
  0
VERTEX
  5
3B2
  8
POCKET_7_5MM_DOGBONE
 10
461.5832774809278
 20
281.4999999941108
 30
0.0
  0
VERTEX
  5
3B3
  8
POCKET_7_5MM_DOGBONE
 10
430.9170869976515
 20
281.499999981479
 30
0.0
 42
-1.000000000002266
  0
VERTEX
  5
3B4
  8
POCKET_7_5MM_DOGBONE
 10
426.2501822418251
 20
286.1669047373083
 30
0.0
  0
VERTEX
  5
3B5
  8
POCKET_7_5MM_DOGBONE
 10
426.2501822013729
 20
291.8330952256475
 30
0.0
 42
-1.00000000000084
  0
VERTEX
  5
3B6
  8
POCKET_7_5MM_DOGBONE
 10
430.9170869572123
 20
296.4999999814788
 30
0.0
  0
VERTEX
  5
3B7
  8
POCKET_7_5MM_DOGBONE
 10
461.5832774455484
 20
296.5000000219134
 30
0.0
 42
-0.9999999999987575
  0
VERTEX
  5
3B8
  8
POCKET_7_5MM_DOGBONE
 10
466.2501822013909
 20
291.8330952660751
 30
0.0
  0
SEQEND
  5
3B9
  8
POCKET_7_5MM_DOGBONE
  0
POLYLINE
  5
3BA
  8
POCKET_7_5MM_DOGBONE
 66
     1
 10
0.0
 20
0.0
 30
0.0
 70
     1
  0
VERTEX
  5
3BB
  8
POCKET_7_5MM_DOGBONE
 10
393.7498177480629
 20
286.1669047651149
 30
0.0
 42
-1.000000005956756
  0
VERTEX
  5
3BC
  8
POCKET_7_5MM_DOGBONE
 10
389.0829130023394
 20
281.4999999941201
 30
0.0
  0
VERTEX
  5
3BD
  8
POCKET_7_5MM_DOGBONE
 10
358.4167225241108
 20
281.4999999814864
 30
0.0
 42
-1.000000000003959
  0
VERTEX
  5
3BE
  8
POCKET_7_5MM_DOGBONE
 10
353.7498177682879
 20
286.1669047373204
 30
0.0
  0
VERTEX
  5
3BF
  8
POCKET_7_5MM_DOGBONE
 10
353.7498177278467
 20
291.8330952256511
 30
0.0
 42
-0.9999999999978441
  0
VERTEX
  5
3C0
  8
POCKET_7_5MM_DOGBONE
 10
358.4167224836742
 20
296.4999999814803
 30
0.0
  0
VERTEX
  5
3C1
  8
POCKET_7_5MM_DOGBONE
 10
389.0829129720076
 20
296.5000000219244
 30
0.0
 42
-0.9999999999981729
  0
VERTEX
  5
3C2
  8
POCKET_7_5MM_DOGBONE
 10
393.7498177278263
 20
291.8330952660976
 30
0.0
  0
SEQEND
  5
3C3
  8
POCKET_7_5MM_DOGBONE
  0
POLYLINE
  5
3C5
  8
LOGO_VCARVE
 66
     1
 10
0.0
 20
0.0
 30
0.0
 70
     1
  0
VERTEX
  5
3C6
  8
LOGO_VCARVE
 10
2218.79744056359
 20
431.4614869886227
 30
0.0
  0
VERTEX
  5
3C7
  8
LOGO_VCARVE
 10
2216.319685148803
 20
428.9848251515141
 30
0.0
  0
VERTEX
  5
3C8
  8
LOGO_VCARVE
 10
2216.319685148803
 20
419.2574516383538
 30
0.0
  0
VERTEX
  5
3C9
  8
LOGO_VCARVE
 10
2218.79744056359
 20
421.7349154324293
 30
0.0
  0
SEQEND
  5
3CA
  8
LOGO_VCARVE
  0
POLYLINE
  5
3CB
  8
LOGO_VCARVE
 66
     1
 10
0.0
 20
0.0
 30
0.0
 70
     1
  0
VERTEX
  5
3CC
  8
LOGO_VCARVE
 10
2200.99627777459
 20
416.0359832016802
 30
0.0
  0
VERTEX
  5
3CD
  8
LOGO_VCARVE
 10
2203.148730280511
 20
418.1891647593875
 30
0.0
  0
VERTEX
  5
3CE
  8
LOGO_VCARVE
 10
2203.148730280511
 20
418.1904770526126
 30
0.0
  0
VERTEX
  5
3CF
  8
LOGO_VCARVE
 10
2203.206908613385
 20
418.2508425408596
 30
0.0
  0
VERTEX
  5
3D0
  8
LOGO_VCARVE
 10
2203.313641795496
 20
418.3558259986712
 30
0.0
  0
VERTEX
  5
3D1
  8
LOGO_VCARVE
 10
2200.99627777459
 20
420.673554545474
 30
0.0
  0
SEQEND
  5
3D2
  8
LOGO_VCARVE
  0
POLYLINE
  5
3D3
  8
LOGO_VCARVE
 66
     1
 10
0.0
 20
0.0
 30
0.0
 70
     1
  0
VERTEX
  5
3D4
  8
LOGO_VCARVE
 10
2200.996409003914
 20
421.7591418234224
 30
0.0
  0
VERTEX
  5
3D5
  8
LOGO_VCARVE
 10
2203.478830350155
 20
419.2757727098469
 30
0.0
  0
VERTEX
  5
3D6
  8
LOGO_VCARVE
 10
2203.478830350163
 20
428.9930124031198
 30
0.0
  0
VERTEX
  5
3D7
  8
LOGO_VCARVE
 10
2200.996409003914
 20
431.4761628011547
 30
0.0
  0
SEQEND
  5
3D8
  8
LOGO_VCARVE
  0
POLYLINE
  5
3D9
  8
LOGO_VCARVE
 66
     1
 10
0.0
 20
0.0
 30
0.0
 70
     1
  0
VERTEX
  5
3DA
  8
LOGO_VCARVE
 10
2215.550141821986
 20
428.9825723814829
 30
0.0
  0
VERTEX
  5
3DB
  8
LOGO_VCARVE
 10
2213.076542002396
 20
431.4572657787521
 30
0.0
  0
VERTEX
  5
3DC
  8
LOGO_VCARVE
 10
2213.076542002404
 20
421.7481914655327
 30
0.0
  0
VERTEX
  5
3DD
  8
LOGO_VCARVE
 10
2215.550141821986
 20
419.2755394132764
 30
0.0
  0
SEQEND
  5
3DE
  8
LOGO_VCARVE
  0
POLYLINE
  5
3DF
  8
LOGO_VCARVE
 66
     1
 10
0.0
 20
0.0
 30
0.0
 70
     1
  0
VERTEX
  5
3E0
  8
LOGO_VCARVE
 10
2203.862902123852
 20
429.6943675159837
 30
0.0
  0
VERTEX
  5
3E1
  8
LOGO_VCARVE
 10
2206.178297704922
 20
432.0100547177717
 30
0.0
  0
VERTEX
  5
3E2
  8
LOGO_VCARVE
 10
2201.550058224042
 20
432.0100547177717
 30
0.0
  0
SEQEND
  5
3E3
  8
LOGO_VCARVE
  0
POLYLINE
  5
3E4
  8
LOGO_VCARVE
 66
     1
 10
0.0
 20
0.0
 30
0.0
 70
     1
  0
VERTEX
  5
3E5
  8
LOGO_VCARVE
 10
2215.934082366352
 20
429.6861438117885
 30
0.0
  0
VERTEX
  5
3E6
  8
LOGO_VCARVE
 10
2218.257497517116
 20
432.0097776780949
 30
0.0
  0
VERTEX
  5
3E7
  8
LOGO_VCARVE
 10
2213.609646543082
 20
432.0097776780931
 30
0.0
  0
SEQEND
  5
3E8
  8
LOGO_VCARVE
  0
POLYLINE
  5
3E9
  8
LOGO_VCARVE
 66
     1
 10
0.0
 20
0.0
 30
0.0
 70
     1
  0
VERTEX
  5
3EA
  8
LOGO_VCARVE
 10
2206.715973400322
 20
431.4606048359528
 30
0.0
  0
VERTEX
  5
3EB
  8
LOGO_VCARVE
 10
2204.245654313803
 20
428.9911606115711
 30
0.0
  0
VERTEX
  5
3EC
  8
LOGO_VCARVE
 10
2204.245654313796
 20
419.2890122903591
 30
0.0
  0
VERTEX
  5
3ED
  8
LOGO_VCARVE
 10
2206.715973400329
 20
421.7584565147408
 30
0.0
  0
SEQEND
  5
3EE
  8
LOGO_VCARVE
  0
POLYLINE
  5
3EF
  8
LOGO_VCARVE
 66
     1
 10
0.0
 20
0.0
 30
0.0
 70
     1
  0
VERTEX
  5
3F0
  8
LOGO_VCARVE
 10
2204.779181704514
 20
418.7354141038541
 30
0.0
  0
VERTEX
  5
3F1
  8
LOGO_VCARVE
 10
2215.003549823181
 20
418.7354141038559
 30
0.0
  0
VERTEX
  5
3F2
  8
LOGO_VCARVE
 10
2212.530824865746
 20
421.2090868286177
 30
0.0
  0
VERTEX
  5
3F3
  8
LOGO_VCARVE
 10
2207.252708618922
 20
421.2090868286177
 30
0.0
  0
SEQEND
  5
3F4
  8
LOGO_VCARVE
  0
CIRCLE
  5
3F5
  8
POCKET_15_5MM
 10
460.000000010099
 20
860.0000000000018
 30
0.0
 40
10.00000000000318
  0
POLYLINE
  5
3F6
  8
CUT_15_5MM
 66
     1
 10
0.0
 20
0.0
 30
0.0
 70
     1
  0
VERTEX
  5
3F7
  8
CUT_15_5MM
 10
25.0
 20
25.00000000000546
 30
0.0
  0
VERTEX
  5
3F8
  8
CUT_15_5MM
 10
25.0
 20
1195.000000000005
 30
0.0
  0
VERTEX
  5
3F9
  8
CUT_15_5MM
 10
795.0
 20
1195.000000000005
 30
0.0
  0
VERTEX
  5
3FA
  8
CUT_15_5MM
 10
795.0
 20
25.00000000000546
 30
0.0
  0
SEQEND
  5
3FB
  8
CUT_15_5MM
  0
CIRCLE
  5
3FC
  8
POCKET_15_5MM
 10
-760.0000000000073
 20
1160.0
 30
0.0
 40
10.00000000000458
210
0.0
220
0.0
230
-1.0
  0
CIRCLE
  5
3FD
  8
POCKET_15_5MM
 10
-760.0
 20
1060.000000000007
 30
0.0
 40
9.99999999999801
210
0.0
220
0.0
230
-1.0
  0
CIRCLE
  5
3FE
  8
POCKET_15_5MM
 10
-760.0000000000146
 20
960.0000000000036
 30
0.0
 40
10.00000000000125
210
0.0
220
0.0
230
-1.0
  0
CIRCLE
  5
3FF
  8
POCKET_15_5MM
 10
-760.0000000000146
 20
860.0000000000036
 30
0.0
 40
10.00000000000193
210
0.0
220
0.0
230
-1.0
  0
CIRCLE
  5
400
  8
POCKET_15_5MM
 10
-760.0
 20
760.0000000000091
 30
0.0
 40
9.999999999996135
210
0.0
220
0.0
230
-1.0
  0
CIRCLE
  5
401
  8
POCKET_15_5MM
 10
-760.0
 20
660.0000000000018
 30
0.0
 40
10.00000000000364
210
0.0
220
0.0
230
-1.0
  0
CIRCLE
  5
402
  8
POCKET_15_5MM
 10
-760.0000000000146
 20
560.0000000000036
 30
0.0
 40
10.00000000000125
210
0.0
220
0.0
230
-1.0
  0
CIRCLE
  5
403
  8
POCKET_15_5MM
 10
-760.0000000000073
 20
460.0000000000055
 30
0.0
 40
10.0
210
0.0
220
0.0
230
-1.0
  0
CIRCLE
  5
404
  8
POCKET_15_5MM
 10
-760.0
 20
360.0000000000091
 30
0.0
 40
9.999999999997044
210
0.0
220
0.0
230
-1.0
  0
CIRCLE
  5
405
  8
POCKET_15_5MM
 10
-760.0000000000146
 20
260.0000000000073
 30
0.0
 40
9.999999999997954
210
0.0
220
0.0
230
-1.0
  0
CIRCLE
  5
406
  8
POCKET_15_5MM
 10
-760.0
 20
160.0000000000073
 30
0.0
 40
9.999999999997726
210
0.0
220
0.0
230
-1.0
  0
CIRCLE
  5
407
  8
POCKET_15_5MM
 10
-760.0000000000146
 20
60.00000000000364
 30
0.0
 40
10.00000000000136
210
0.0
220
0.0
230
-1.0
  0
CIRCLE
  5
408
  8
POCKET_15_5MM
 10
-660.0
 20
1160.000000000009
 30
0.0
 40
9.999999999996362
210
0.0
220
0.0
230
-1.0
  0
CIRCLE
  5
409
  8
POCKET_15_5MM
 10
-660.0
 20
1060.000000000005
 30
0.0
 40
10.0
210
0.0
220
0.0
230
-1.0
  0
CIRCLE
  5
40A
  8
POCKET_15_5MM
 10
-660.0
 20
960.0000000000073
 30
0.0
 40
9.999999999998238
210
0.0
220
0.0
230
-1.0
  0
CIRCLE
  5
40B
  8
POCKET_15_5MM
 10
-660.0
 20
860.0000000000055
 30
0.0
 40
10.0
210
0.0
220
0.0
230
-1.0
  0
CIRCLE
  5
40C
  8
POCKET_15_5MM
 10
-660.0
 20
760.0000000000127
 30
0.0
 40
9.999999999992724
210
0.0
220
0.0
230
-1.0
  0
CIRCLE
  5
40D
  8
POCKET_15_5MM
 10
-660.0
 20
660.0000000000127
 30
0.0
 40
9.999999999992724
210
0.0
220
0.0
230
-1.0
  0
CIRCLE
  5
40E
  8
POCKET_15_5MM
 10
-660.0
 20
560.0000000000055
 30
0.0
 40
10.0
210
0.0
220
0.0
230
-1.0
  0
CIRCLE
  5
40F
  8
POCKET_15_5MM
 10
-660.0
 20
460.0000000000091
 30
0.0
 40
9.999999999996362
210
0.0
220
0.0
230
-1.0
  0
CIRCLE
  5
410
  8
POCKET_15_5MM
 10
-660.0
 20
360.0000000000091
 30
0.0
 40
9.999999999996362
210
0.0
220
0.0
230
-1.0
  0
CIRCLE
  5
411
  8
POCKET_15_5MM
 10
-660.0
 20
260.0000000000073
 30
0.0
 40
9.999999999997272
210
0.0
220
0.0
230
-1.0
  0
CIRCLE
  5
412
  8
POCKET_15_5MM
 10
-660.0
 20
160.0000000000127
 30
0.0
 40
9.999999999992724
210
0.0
220
0.0
230
-1.0
  0
CIRCLE
  5
413
  8
POCKET_15_5MM
 10
-660.0000000000073
 20
60.00000000000728
 30
0.0
 40
9.999999999997499
210
0.0
220
0.0
230
-1.0
  0
CIRCLE
  5
414
  8
POCKET_15_5MM
 10
-560.0
 20
1160.000000000005
 30
0.0
 40
10.00000000000031
210
0.0
220
0.0
230
-1.0
  0
CIRCLE
  5
415
  8
POCKET_15_5MM
 10
-560.0
 20
1060.000000000007
 30
0.0
 40
9.99999999999801
210
0.0
220
0.0
230
-1.0
  0
CIRCLE
  5
416
  8
POCKET_15_5MM
 10
-560.0
 20
960.0000000000055
 30
0.0
 40
10.0
210
0.0
220
0.0
230
-1.0
  0
CIRCLE
  5
417
  8
POCKET_15_5MM
 10
-560.0
 20
860.0000000000018
 30
0.0
 40
10.00000000000364
210
0.0
220
0.0
230
-1.0
  0
CIRCLE
  5
418
  8
POCKET_15_5MM
 10
-560.0000000000073
 20
760.0000000000018
 30
0.0
 40
10.00000000000409
210
0.0
220
0.0
230
-1.0
  0
CIRCLE
  5
419
  8
POCKET_15_5MM
 10
-560.0
 20
660.0000000000055
 30
0.0
 40
10.0000000000008
210
0.0
220
0.0
230
-1.0
  0
CIRCLE
  5
41A
  8
POCKET_15_5MM
 10
-560.0000000000073
 20
560.0000000000073
 30
0.0
 40
9.999999999997385
210
0.0
220
0.0
230
-1.0
  0
CIRCLE
  5
41B
  8
POCKET_15_5MM
 10
-560.0
 20
460.0000000000036
 30
0.0
 40
10.00000000000182
210
0.0
220
0.0
230
-1.0
  0
CIRCLE
  5
41C
  8
POCKET_15_5MM
 10
-560.0
 20
360.0000000000073
 30
0.0
 40
9.999999999998636
210
0.0
220
0.0
230
-1.0
  0
CIRCLE
  5
41D
  8
POCKET_15_5MM
 10
-560.0
 20
260.0000000000055
 30
0.0
 40
10.00000000000023
210
0.0
220
0.0
230
-1.0
  0
CIRCLE
  5
41E
  8
POCKET_15_5MM
 10
-560.0
 20
160.0000000000055
 30
0.0
 40
9.999999999999318
210
0.0
220
0.0
230
-1.0
  0
CIRCLE
  5
41F
  8
POCKET_15_5MM
 10
-560.0
 20
60.00000000000364
 30
0.0
 40
10.00000000000091
210
0.0
220
0.0
230
-1.0
  0
CIRCLE
  5
420
  8
POCKET_15_5MM
 10
-460.0000000000146
 20
1160.000000000005
 30
0.0
 40
10.0
210
0.0
220
0.0
230
-1.0
  0
CIRCLE
  5
421
  8
POCKET_15_5MM
 10
-460.0000000000073
 20
660.0000000000127
 30
0.0
 40
9.999999999992724
210
0.0
220
0.0
230
-1.0
  0
CIRCLE
  5
422
  8
POCKET_15_5MM
 10
-460.0
 20
560.0000000000091
 30
0.0
 40
9.999999999996362
210
0.0
220
0.0
230
-1.0
  0
CIRCLE
  5
423
  8
POCKET_15_5MM
 10
-460.0
 20
460.0000000000055
 30
0.0
 40
10.0
210
0.0
220
0.0
230
-1.0
  0
CIRCLE
  5
424
  8
POCKET_15_5MM
 10
-460.0000000000073
 20
360.0000000000055
 30
0.0
 40
10.0
210
0.0
220
0.0
230
-1.0
  0
CIRCLE
  5
425
  8
POCKET_15_5MM
 10
-460.0
 20
260.0000000000091
 30
0.0
 40
9.999999999996362
210
0.0
220
0.0
230
-1.0
  0
CIRCLE
  5
426
  8
POCKET_15_5MM
 10
-460.0000000000146
 20
160.0000000000018
 30
0.0
 40
10.00000000000364
210
0.0
220
0.0
230
-1.0
  0
CIRCLE
  5
427
  8
POCKET_15_5MM
 10
-460.0
 20
60.00000000000909
 30
0.0
 40
9.999999999995907
210
0.0
220
0.0
230
-1.0
  0
CIRCLE
  5
428
  8
POCKET_15_5MM
 10
-360.0
 20
1160.000000000005
 30
0.0
 40
10.0
210
0.0
220
0.0
230
-1.0
  0
CIRCLE
  5
429
  8
POCKET_15_5MM
 10
-360.0
 20
1060.000000000005
 30
0.0
 40
10.0
210
0.0
220
0.0
230
-1.0
  0
CIRCLE
  5
42A
  8
POCKET_15_5MM
 10
-360.0
 20
960.0000000000091
 30
0.0
 40
9.999999999996362
210
0.0
220
0.0
230
-1.0
  0
CIRCLE
  5
42B
  8
POCKET_15_5MM
 10
-360.0
 20
859.9999999999982
 30
0.0
 40
10.00000000000728
210
0.0
220
0.0
230
-1.0
  0
CIRCLE
  5
42C
  8
POCKET_15_5MM
 10
-360.0
 20
760.0000000000127
 30
0.0
 40
9.999999999992724
210
0.0
220
0.0
230
-1.0
  0
CIRCLE
  5
42D
  8
POCKET_15_5MM
 10
-360.0
 20
659.9999999999982
 30
0.0
 40
10.00000000000728
210
0.0
220
0.0
230
-1.0
  0
CIRCLE
  5
42E
  8
POCKET_15_5MM
 10
-360.0
 20
560.0000000000055
 30
0.0
 40
10.0
210
0.0
220
0.0
230
-1.0
  0
CIRCLE
  5
42F
  8
POCKET_15_5MM
 10
-359.9999999999927
 20
459.9999999999982
 30
0.0
 40
10.00000000000728
210
0.0
220
0.0
230
-1.0
  0
CIRCLE
  5
430
  8
POCKET_15_5MM
 10
-360.0
 20
360.0000000000091
 30
0.0
 40
9.999999999996362
210
0.0
220
0.0
230
-1.0
  0
CIRCLE
  5
431
  8
POCKET_15_5MM
 10
-360.0
 20
260.0000000000091
 30
0.0
 40
9.999999999996362
210
0.0
220
0.0
230
-1.0
  0
CIRCLE
  5
432
  8
POCKET_15_5MM
 10
-360.0
 20
160.0000000000055
 30
0.0
 40
10.0
210
0.0
220
0.0
230
-1.0
  0
CIRCLE
  5
433
  8
POCKET_15_5MM
 10
-360.0000000000073
 20
60.00000000000182
 30
0.0
 40
10.00000000000318
210
0.0
220
0.0
230
-1.0
  0
CIRCLE
  5
434
  8
POCKET_15_5MM
 10
-260.0
 20
1160.000000000013
 30
0.0
 40
9.999999999992724
210
0.0
220
0.0
230
-1.0
  0
CIRCLE
  5
435
  8
POCKET_15_5MM
 10
-260.0
 20
1060.000000000005
 30
0.0
 40
9.999999999999773
210
0.0
220
0.0
230
-1.0
  0
CIRCLE
  5
436
  8
POCKET_15_5MM
 10
-260.0000000000073
 20
960.0
 30
0.0
 40
10.00000000000517
210
0.0
220
0.0
230
-1.0
  0
CIRCLE
  5
437
  8
POCKET_15_5MM
 10
-260.0
 20
860.0000000000055
 30
0.0
 40
9.999999999999886
210
0.0
220
0.0
230
-1.0
  0
CIRCLE
  5
438
  8
POCKET_15_5MM
 10
-260.0000000000073
 20
760.0000000000055
 30
0.0
 40
10.0
210
0.0
220
0.0
230
-1.0
  0
CIRCLE
  5
439
  8
POCKET_15_5MM
 10
-260.0
 20
660.0000000000055
 30
0.0
 40
10.0
210
0.0
220
0.0
230
-1.0
  0
CIRCLE
  5
43A
  8
POCKET_15_5MM
 10
-260.0
 20
560.0000000000091
 30
0.0
 40
9.999999999996362
210
0.0
220
0.0
230
-1.0
  0
CIRCLE
  5
43B
  8
POCKET_15_5MM
 10
-260.0
 20
460.0000000000091
 30
0.0
 40
9.999999999996362
210
0.0
220
0.0
230
-1.0
  0
CIRCLE
  5
43C
  8
POCKET_15_5MM
 10
-260.0000000000146
 20
360.0000000000036
 30
0.0
 40
10.0000000000025
210
0.0
220
0.0
230
-1.0
  0
CIRCLE
  5
43D
  8
POCKET_15_5MM
 10
-260.0000000000073
 20
260.0000000000036
 30
0.0
 40
10.00000000000273
210
0.0
220
0.0
230
-1.0
  0
CIRCLE
  5
43E
  8
POCKET_15_5MM
 10
-260.0000000000146
 20
160.0000000000055
 30
0.0
 40
10.0
210
0.0
220
0.0
230
-1.0
  0
CIRCLE
  5
43F
  8
POCKET_15_5MM
 10
-260.0
 20
60.00000000000909
 30
0.0
 40
9.999999999995907
210
0.0
220
0.0
230
-1.0
  0
CIRCLE
  5
440
  8
POCKET_15_5MM
 10
-160.0000000000073
 20
1160.000000000007
 30
0.0
 40
9.999999999997357
210
0.0
220
0.0
230
-1.0
  0
CIRCLE
  5
441
  8
POCKET_15_5MM
 10
-160.0
 20
1060.000000000011
 30
0.0
 40
9.999999999994031
210
0.0
220
0.0
230
-1.0
  0
CIRCLE
  5
442
  8
POCKET_15_5MM
 10
-160.0
 20
960.0000000000036
 30
0.0
 40
10.00000000000153
210
0.0
220
0.0
230
-1.0
  0
CIRCLE
  5
443
  8
POCKET_15_5MM
 10
-160.0
 20
860.0000000000055
 30
0.0
 40
9.999999999999773
210
0.0
220
0.0
230
-1.0
  0
CIRCLE
  5
444
  8
POCKET_15_5MM
 10
-160.0
 20
760.0
 30
0.0
 40
10.00000000000546
210
0.0
220
0.0
230
-1.0
  0
CIRCLE
  5
445
  8
POCKET_15_5MM
 10
-160.0
 20
660.0000000000091
 30
0.0
 40
9.999999999995566
210
0.0
220
0.0
230
-1.0
  0
CIRCLE
  5
446
  8
POCKET_15_5MM
 10
-160.0000000000073
 20
560.0000000000091
 30
0.0
 40
9.999999999996476
210
0.0
220
0.0
230
-1.0
  0
CIRCLE
  5
447
  8
POCKET_15_5MM
 10
-160.0000000000146
 20
460.0000000000018
 30
0.0
 40
10.00000000000375
210
0.0
220
0.0
230
-1.0
  0
CIRCLE
  5
448
  8
POCKET_15_5MM
 10
-160.0
 20
360.0000000000036
 30
0.0
 40
10.00000000000136
210
0.0
220
0.0
230
-1.0
  0
CIRCLE
  5
449
  8
POCKET_15_5MM
 10
-160.0000000000073
 20
260.0000000000055
 30
0.0
 40
10.00000000000045
210
0.0
220
0.0
230
-1.0
  0
CIRCLE
  5
44A
  8
POCKET_15_5MM
 10
-160.0
 20
160.0000000000073
 30
0.0
 40
9.999999999998181
210
0.0
220
0.0
230
-1.0
  0
CIRCLE
  5
44B
  8
POCKET_15_5MM
 10
-160.0000000000073
 20
59.99999999999818
 30
0.0
 40
10.00000000000682
210
0.0
220
0.0
230
-1.0
  0
CIRCLE
  5
44C
  8
POCKET_15_5MM
 10
-60.0
 20
1160.000000000007
 30
0.0
 40
9.99999999999909
210
0.0
220
0.0
230
-1.0
  0
CIRCLE
  5
44D
  8
POCKET_15_5MM
 10
-60.0
 20
1060.000000000004
 30
0.0
 40
10.00000000000114
210
0.0
220
0.0
230
-1.0
  0
CIRCLE
  5
44E
  8
POCKET_15_5MM
 10
-60.0
 20
960.0000000000018
 30
0.0
 40
10.00000000000415
210
0.0
220
0.0
230
-1.0
  0
CIRCLE
  5
44F
  8
POCKET_15_5MM
 10
-60.0
 20
860.0000000000036
 30
0.0
 40
10.00000000000227
210
0.0
220
0.0
230
-1.0
  0
CIRCLE
  5
450
  8
POCKET_15_5MM
 10
-60.0
 20
760.0000000000036
 30
0.0
 40
10.00000000000193
210
0.0
220
0.0
230
-1.0
  0
CIRCLE
  5
451
  8
POCKET_15_5MM
 10
-60.0
 20
660.0000000000018
 30
0.0
 40
10.0000000000033
210
0.0
220
0.0
230
-1.0
  0
CIRCLE
  5
452
  8
POCKET_15_5MM
 10
-60.0
 20
560.0000000000036
 30
0.0
 40
10.00000000000216
210
0.0
220
0.0
230
-1.0
  0
CIRCLE
  5
453
  8
POCKET_15_5MM
 10
-60.0
 20
460.0000000000091
 30
0.0
 40
9.99999999999659
210
0.0
220
0.0
230
-1.0
  0
CIRCLE
  5
454
  8
POCKET_15_5MM
 10
-60.0
 20
360.0000000000036
 30
0.0
 40
10.0000000000025
210
0.0
220
0.0
230
-1.0
  0
CIRCLE
  5
455
  8
POCKET_15_5MM
 10
-60.0
 20
260.0000000000091
 30
0.0
 40
9.999999999996362
210
0.0
220
0.0
230
-1.0
  0
CIRCLE
  5
456
  8
POCKET_15_5MM
 10
-60.0
 20
160.0000000000055
 30
0.0
 40
10.0
210
0.0
220
0.0
230
-1.0
  0
CIRCLE
  5
457
  8
POCKET_15_5MM
 10
-59.99999999999272
 20
60.00000000000909
 30
0.0
 40
9.999999999995907
210
0.0
220
0.0
230
-1.0
  0
POLYLINE
  5
459
  8
MATERIAL
 66
     1
 10
0.0
 20
0.0
 30
0.0
 70
     1
  0
VERTEX
  5
45A
  8
MATERIAL
 10
2440.0
 20
0.0
 30
0.0
  0
VERTEX
  5
45B
  8
MATERIAL
 10
2440.0
 20
1220.0
 30
0.0
  0
VERTEX
  5
45C
  8
MATERIAL
 10
0.0
 20
1220.000000000004
 30
0.0
  0
VERTEX
  5
45D
  8
MATERIAL
 10
0.0
 20
0.000000000003638
 30
0.0
  0
SEQEND
  5
45E
  8
MATERIAL
  0
CIRCLE
  5
45F
  8
POCKET_15_5MM
 10
-854.9999999999927
 20
60.00000000000909
 30
0.0
 40
9.999999999995907
210
0.0
220
0.0
230
-1.0
  0
CIRCLE
  5
460
  8
POCKET_15_5MM
 10
-855.0
 20
160.0000000000036
 30
0.0
 40
10.00000000000182
210
0.0
220
0.0
230
-1.0
  0
CIRCLE
  5
461
  8
POCKET_15_5MM
 10
-854.9999999999927
 20
260.0000000000109
 30
0.0
 40
9.99999999999477
210
0.0
220
0.0
230
-1.0
  0
CIRCLE
  5
462
  8
POCKET_15_5MM
 10
-855.0
 20
360.0000000000018
 30
0.0
 40
10.00000000000341
210
0.0
220
0.0
230
-1.0
  0
CIRCLE
  5
463
  8
POCKET_15_5MM
 10
-854.9999999999854
 20
460.0000000000018
 30
0.0
 40
10.00000000000364
210
0.0
220
0.0
230
-1.0
  0
CIRCLE
  5
464
  8
POCKET_15_5MM
 10
-854.9999999999927
 20
560.0000000000091
 30
0.0
 40
9.999999999996362
210
0.0
220
0.0
230
-1.0
  0
CIRCLE
  5
465
  8
POCKET_15_5MM
 10
-854.9999999999927
 20
660.0000000000018
 30
0.0
 40
10.00000000000364
210
0.0
220
0.0
230
-1.0
  0
CIRCLE
  5
466
  8
POCKET_15_5MM
 10
-855.0
 20
760.0000000000018
 30
0.0
 40
10.00000000000364
210
0.0
220
0.0
230
-1.0
  0
CIRCLE
  5
467
  8
POCKET_15_5MM
 10
-854.9999999999854
 20
860.0000000000055
 30
0.0
 40
10.0
210
0.0
220
0.0
230
-1.0
  0
CIRCLE
  5
468
  8
POCKET_15_5MM
 10
-854.9999999999854
 20
960.0000000000018
 30
0.0
 40
10.00000000000364
210
0.0
220
0.0
230
-1.0
  0
CIRCLE
  5
469
  8
POCKET_15_5MM
 10
-854.9999999999927
 20
1060.000000000013
 30
0.0
 40
9.999999999992724
210
0.0
220
0.0
230
-1.0
  0
CIRCLE
  5
46A
  8
POCKET_15_5MM
 10
-854.9999999999854
 20
1160.000000000009
 30
0.0
 40
9.999999999996362
210
0.0
220
0.0
230
-1.0
  0
CIRCLE
  5
46B
  8
POCKET_15_5MM
 10
-955.0
 20
60.00000000000364
 30
0.0
 40
10.00000000000091
210
0.0
220
0.0
230
-1.0
  0
CIRCLE
  5
46C
  8
POCKET_15_5MM
 10
-955.0
 20
160.0000000000055
 30
0.0
 40
10.00000000000068
210
0.0
220
0.0
230
-1.0
  0
CIRCLE
  5
46D
  8
POCKET_15_5MM
 10
-955.0
 20
260.0000000000055
 30
0.0
 40
10.00000000000068
210
0.0
220
0.0
230
-1.0
  0
CIRCLE
  5
46E
  8
POCKET_15_5MM
 10
-955.0
 20
360.0000000000073
 30
0.0
 40
9.999999999998636
210
0.0
220
0.0
230
-1.0
  0
CIRCLE
  5
46F
  8
POCKET_15_5MM
 10
-955.0000000000073
 20
460.0000000000036
 30
0.0
 40
10.00000000000114
210
0.0
220
0.0
230
-1.0
  0
CIRCLE
  5
470
  8
POCKET_15_5MM
 10
-955.0
 20
560.0000000000073
 30
0.0
 40
9.99999999999909
210
0.0
220
0.0
230
-1.0
  0
CIRCLE
  5
471
  8
POCKET_15_5MM
 10
-955.0
 20
660.0000000000055
 30
0.0
 40
9.999999999999659
210
0.0
220
0.0
230
-1.0
  0
CIRCLE
  5
472
  8
POCKET_15_5MM
 10
-955.0
 20
760.0
 30
0.0
 40
10.00000000000546
210
0.0
220
0.0
230
-1.0
  0
CIRCLE
  5
473
  8
POCKET_15_5MM
 10
-954.9999999999854
 20
860.0000000000055
 30
0.0
 40
9.999999999999773
210
0.0
220
0.0
230
-1.0
  0
CIRCLE
  5
474
  8
POCKET_15_5MM
 10
-955.0
 20
960.0000000000036
 30
0.0
 40
10.00000000000153
210
0.0
220
0.0
230
-1.0
  0
CIRCLE
  5
475
  8
POCKET_15_5MM
 10
-954.9999999999927
 20
1060.000000000009
 30
0.0
 40
9.999999999996646
210
0.0
220
0.0
230
-1.0
  0
CIRCLE
  5
476
  8
POCKET_15_5MM
 10
-955.0
 20
1160.000000000004
 30
0.0
 40
10.00000000000253
210
0.0
220
0.0
230
-1.0
  0
CIRCLE
  5
477
  8
POCKET_15_5MM
 10
-1055.0
 20
60.00000000000546
 30
0.0
 40
9.999999999999545
210
0.0
220
0.0
230
-1.0
  0
CIRCLE
  5
478
  8
POCKET_15_5MM
 10
-1055.0
 20
160.0000000000055
 30
0.0
 40
9.999999999999545
210
0.0
220
0.0
230
-1.0
  0
CIRCLE
  5
479
  8
POCKET_15_5MM
 10
-1055.0
 20
260.0000000000036
 30
0.0
 40
10.00000000000273
210
0.0
220
0.0
230
-1.0
  0
CIRCLE
  5
47A
  8
POCKET_15_5MM
 10
-1055.0
 20
360.0000000000036
 30
0.0
 40
10.0000000000025
210
0.0
220
0.0
230
-1.0
  0
CIRCLE
  5
47B
  8
POCKET_15_5MM
 10
-1055.0
 20
460.0000000000091
 30
0.0
 40
9.999999999997044
210
0.0
220
0.0
230
-1.0
  0
CIRCLE
  5
47C
  8
POCKET_15_5MM
 10
-1055.0
 20
560.0000000000055
 30
0.0
 40
10.00000000000045
210
0.0
220
0.0
230
-1.0
  0
CIRCLE
  5
47D
  8
POCKET_15_5MM
 10
-1054.999999999985
 20
660.0000000000073
 30
0.0
 40
9.99999999999875
210
0.0
220
0.0
230
-1.0
  0
CIRCLE
  5
47E
  8
POCKET_15_5MM
 10
-1055.0
 20
760.0000000000036
 30
0.0
 40
10.00000000000148
210
0.0
220
0.0
230
-1.0
  0
CIRCLE
  5
47F
  8
POCKET_15_5MM
 10
-1055.0
 20
860.0000000000036
 30
0.0
 40
10.00000000000261
210
0.0
220
0.0
230
-1.0
  0
CIRCLE
  5
480
  8
POCKET_15_5MM
 10
-1055.0
 20
960.0000000000036
 30
0.0
 40
10.00000000000261
210
0.0
220
0.0
230
-1.0
  0
CIRCLE
  5
481
  8
POCKET_15_5MM
 10
-1055.0
 20
1060.000000000005
 30
0.0
 40
9.999999999999886
210
0.0
220
0.0
230
-1.0
  0
CIRCLE
  5
482
  8
POCKET_15_5MM
 10
-1055.0
 20
1160.000000000007
 30
0.0
 40
9.999999999997925
210
0.0
220
0.0
230
-1.0
  0
CIRCLE
  5
483
  8
POCKET_15_5MM
 10
-1155.0
 20
60.00000000000182
 30
0.0
 40
10.00000000000318
210
0.0
220
0.0
230
-1.0
  0
CIRCLE
  5
484
  8
POCKET_15_5MM
 10
-1154.999999999985
 20
159.9999999999982
 30
0.0
 40
10.00000000000728
210
0.0
220
0.0
230
-1.0
  0
CIRCLE
  5
485
  8
POCKET_15_5MM
 10
-1155.0
 20
260.0000000000018
 30
0.0
 40
10.00000000000364
210
0.0
220
0.0
230
-1.0
  0
CIRCLE
  5
486
  8
POCKET_15_5MM
 10
-1155.0
 20
360.0000000000055
 30
0.0
 40
10.0
210
0.0
220
0.0
230
-1.0
  0
CIRCLE
  5
487
  8
POCKET_15_5MM
 10
-1154.999999999993
 20
460.0000000000055
 30
0.0
 40
10.0
210
0.0
220
0.0
230
-1.0
  0
CIRCLE
  5
488
  8
POCKET_15_5MM
 10
-1154.999999999993
 20
560.0000000000091
 30
0.0
 40
9.999999999996362
210
0.0
220
0.0
230
-1.0
  0
CIRCLE
  5
489
  8
POCKET_15_5MM
 10
-1154.999999999993
 20
660.0000000000055
 30
0.0
 40
10.0
210
0.0
220
0.0
230
-1.0
  0
CIRCLE
  5
48A
  8
POCKET_15_5MM
 10
-1155.0
 20
760.0000000000018
 30
0.0
 40
10.00000000000364
210
0.0
220
0.0
230
-1.0
  0
CIRCLE
  5
48B
  8
POCKET_15_5MM
 10
-1154.999999999985
 20
860.0000000000055
 30
0.0
 40
10.0
210
0.0
220
0.0
230
-1.0
  0
CIRCLE
  5
48C
  8
POCKET_15_5MM
 10
-1154.999999999993
 20
960.0000000000055
 30
0.0
 40
10.0
210
0.0
220
0.0
230
-1.0
  0
CIRCLE
  5
48D
  8
POCKET_15_5MM
 10
-1154.999999999993
 20
1060.000000000002
 30
0.0
 40
10.00000000000364
210
0.0
220
0.0
230
-1.0
  0
CIRCLE
  5
48E
  8
POCKET_15_5MM
 10
-1154.999999999985
 20
1160.000000000005
 30
0.0
 40
10.0
210
0.0
220
0.0
230
-1.0
  0
CIRCLE
  5
48F
  8
POCKET_15_5MM
 10
-1255.000000000007
 20
60.00000000000728
 30
0.0
 40
9.999999999997954
210
0.0
220
0.0
230
-1.0
  0
CIRCLE
  5
490
  8
POCKET_15_5MM
 10
-1255.000000000015
 20
160.0000000000055
 30
0.0
 40
9.999999999999545
210
0.0
220
0.0
230
-1.0
  0
CIRCLE
  5
491
  8
POCKET_15_5MM
 10
-1255.000000000007
 20
260.0000000000055
 30
0.0
 40
10.00000000000023
210
0.0
220
0.0
230
-1.0
  0
CIRCLE
  5
492
  8
POCKET_15_5MM
 10
-1255.0
 20
360.0000000000055
 30
0.0
 40
10.0
210
0.0
220
0.0
230
-1.0
  0
CIRCLE
  5
493
  8
POCKET_15_5MM
 10
-1255.0
 20
460.0000000000018
 30
0.0
 40
10.00000000000364
210
0.0
220
0.0
230
-1.0
  0
CIRCLE
  5
494
  8
POCKET_15_5MM
 10
-1255.0
 20
560.0000000000091
 30
0.0
 40
9.999999999996362
210
0.0
220
0.0
230
-1.0
  0
CIRCLE
  5
495
  8
POCKET_15_5MM
 10
-1255.0
 20
660.0000000000127
 30
0.0
 40
9.999999999992724
210
0.0
220
0.0
230
-1.0
  0
CIRCLE
  5
496
  8
POCKET_15_5MM
 10
-1255.0
 20
1160.000000000005
 30
0.0
 40
10.0
210
0.0
220
0.0
230
-1.0
  0
CIRCLE
  5
497
  8
POCKET_15_5MM
 10
-1355.0
 20
60.00000000000909
 30
0.0
 40
9.999999999995907
210
0.0
220
0.0
230
-1.0
  0
CIRCLE
  5
498
  8
POCKET_15_5MM
 10
-1355.0
 20
160.0000000000091
 30
0.0
 40
9.999999999996362
210
0.0
220
0.0
230
-1.0
  0
CIRCLE
  5
499
  8
POCKET_15_5MM
 10
-1354.999999999993
 20
260.0000000000091
 30
0.0
 40
9.999999999996362
210
0.0
220
0.0
230
-1.0
  0
CIRCLE
  5
49A
  8
POCKET_15_5MM
 10
-1354.999999999993
 20
360.0000000000055
 30
0.0
 40
10.0
210
0.0
220
0.0
230
-1.0
  0
CIRCLE
  5
49B
  8
POCKET_15_5MM
 10
-1355.0
 20
460.0000000000018
 30
0.0
 40
10.00000000000364
210
0.0
220
0.0
230
-1.0
  0
CIRCLE
  5
49C
  8
POCKET_15_5MM
 10
-1355.000000000007
 20
560.0000000000091
 30
0.0
 40
9.999999999996362
210
0.0
220
0.0
230
-1.0
  0
CIRCLE
  5
49D
  8
POCKET_15_5MM
 10
-1355.0
 20
660.0000000000018
 30
0.0
 40
10.00000000000364
210
0.0
220
0.0
230
-1.0
  0
CIRCLE
  5
49E
  8
POCKET_15_5MM
 10
-1355.0
 20
760.0000000000055
 30
0.0
 40
10.0
210
0.0
220
0.0
230
-1.0
  0
CIRCLE
  5
49F
  8
POCKET_15_5MM
 10
-1355.0
 20
860.0000000000055
 30
0.0
 40
10.0
210
0.0
220
0.0
230
-1.0
  0
CIRCLE
  5
4A0
  8
POCKET_15_5MM
 10
-1355.0
 20
960.0000000000055
 30
0.0
 40
10.0
210
0.0
220
0.0
230
-1.0
  0
CIRCLE
  5
4A1
  8
POCKET_15_5MM
 10
-1355.0
 20
1060.000000000007
 30
0.0
 40
9.99999999999801
210
0.0
220
0.0
230
-1.0
  0
CIRCLE
  5
4A2
  8
POCKET_15_5MM
 10
-1355.0
 20
1160.000000000005
 30
0.0
 40
10.00000000000031
210
0.0
220
0.0
230
-1.0
  0
CIRCLE
  5
4A3
  8
POCKET_15_5MM
 10
-1455.0
 20
60.00000000000728
 30
0.0
 40
9.999999999997499
210
0.0
220
0.0
230
-1.0
  0
CIRCLE
  5
4A4
  8
POCKET_15_5MM
 10
-1455.0
 20
160.0000000000055
 30
0.0
 40
10.0
210
0.0
220
0.0
230
-1.0
  0
CIRCLE
  5
4A5
  8
POCKET_15_5MM
 10
-1455.0
 20
260.0000000000073
 30
0.0
 40
9.999999999997272
210
0.0
220
0.0
230
-1.0
  0
CIRCLE
  5
4A6
  8
POCKET_15_5MM
 10
-1455.0
 20
360.0000000000091
 30
0.0
 40
9.999999999996362
210
0.0
220
0.0
230
-1.0
  0
CIRCLE
  5
4A7
  8
POCKET_15_5MM
 10
-1455.0
 20
460.0000000000055
 30
0.0
 40
10.0
210
0.0
220
0.0
230
-1.0
  0
CIRCLE
  5
4A8
  8
POCKET_15_5MM
 10
-1455.0
 20
560.0000000000018
 30
0.0
 40
10.00000000000364
210
0.0
220
0.0
230
-1.0
  0
CIRCLE
  5
4A9
  8
POCKET_15_5MM
 10
-1455.0
 20
660.0000000000055
 30
0.0
 40
10.0
210
0.0
220
0.0
230
-1.0
  0
CIRCLE
  5
4AA
  8
POCKET_15_5MM
 10
-1455.0
 20
760.0000000000091
 30
0.0
 40
9.999999999996362
210
0.0
220
0.0
230
-1.0
  0
CIRCLE
  5
4AB
  8
POCKET_15_5MM
 10
-1455.0
 20
860.0000000000018
 30
0.0
 40
10.00000000000364
210
0.0
220
0.0
230
-1.0
  0
CIRCLE
  5
4AC
  8
POCKET_15_5MM
 10
-1455.0
 20
960.0000000000073
 30
0.0
 40
9.999999999998238
210
0.0
220
0.0
230
-1.0
  0
CIRCLE
  5
4AD
  8
POCKET_15_5MM
 10
-1455.0
 20
1060.000000000005
 30
0.0
 40
10.0
210
0.0
220
0.0
230
-1.0
  0
CIRCLE
  5
4AE
  8
POCKET_15_5MM
 10
-1454.999999999985
 20
1160.000000000002
 30
0.0
 40
10.00000000000364
210
0.0
220
0.0
230
-1.0
  0
CIRCLE
  5
4AF
  8
POCKET_15_5MM
 10
-1555.000000000007
 20
60.00000000000364
 30
0.0
 40
10.00000000000136
210
0.0
220
0.0
230
-1.0
  0
CIRCLE
  5
4B0
  8
POCKET_15_5MM
 10
-1555.0
 20
160.0000000000073
 30
0.0
 40
9.999999999997726
210
0.0
220
0.0
230
-1.0
  0
CIRCLE
  5
4B1
  8
POCKET_15_5MM
 10
-1555.0
 20
260.0000000000055
 30
0.0
 40
10.00000000000045
210
0.0
220
0.0
230
-1.0
  0
CIRCLE
  5
4B2
  8
POCKET_15_5MM
 10
-1555.0
 20
360.0000000000091
 30
0.0
 40
9.999999999997044
210
0.0
220
0.0
230
-1.0
  0
CIRCLE
  5
4B3
  8
POCKET_15_5MM
 10
-1555.0
 20
460.0000000000055
 30
0.0
 40
10.0
210
0.0
220
0.0
230
-1.0
  0
CIRCLE
  5
4B4
  8
POCKET_15_5MM
 10
-1555.0
 20
560.0000000000018
 30
0.0
 40
10.00000000000375
210
0.0
220
0.0
230
-1.0
  0
CIRCLE
  5
4B5
  8
POCKET_15_5MM
 10
-1554.999999999993
 20
660.0000000000018
 30
0.0
 40
10.00000000000364
210
0.0
220
0.0
230
-1.0
  0
CIRCLE
  5
4B6
  8
POCKET_15_5MM
 10
-1555.0
 20
760.0000000000091
 30
0.0
 40
9.999999999996135
210
0.0
220
0.0
230
-1.0
  0
CIRCLE
  5
4B7
  8
POCKET_15_5MM
 10
-1555.000000000007
 20
860.0000000000036
 30
0.0
 40
10.00000000000193
210
0.0
220
0.0
230
-1.0
  0
CIRCLE
  5
4B8
  8
POCKET_15_5MM
 10
-1555.0
 20
960.0000000000018
 30
0.0
 40
10.00000000000387
210
0.0
220
0.0
230
-1.0
  0
CIRCLE
  5
4B9
  8
POCKET_15_5MM
 10
-1555.0
 20
1060.000000000007
 30
0.0
 40
9.99999999999801
210
0.0
220
0.0
230
-1.0
  0
CIRCLE
  5
4BA
  8
POCKET_15_5MM
 10
-1555.0
 20
1160.0
 30
0.0
 40
10.00000000000458
210
0.0
220
0.0
230
-1.0
  0
POLYLINE
  5
4BB
  8
CUT_15_5MM
 66
     1
 10
0.0
 20
0.0
 30
0.0
 70
     1
  0
VERTEX
  5
4BC
  8
CUT_15_5MM
 10
820.0
 20
25.00000000000546
 30
0.0
  0
VERTEX
  5
4BD
  8
CUT_15_5MM
 10
820.0
 20
1195.000000000005
 30
0.0
  0
VERTEX
  5
4BE
  8
CUT_15_5MM
 10
1590.0
 20
1195.000000000005
 30
0.0
  0
VERTEX
  5
4BF
  8
CUT_15_5MM
 10
1590.0
 20
25.00000000000546
 30
0.0
  0
SEQEND
  5
4C0
  8
CUT_15_5MM
  0
CIRCLE
  5
4C1
  8
POCKET_15_5MM
 10
1255.000000010099
 20
860.0000000000018
 30
0.0
 40
10.00000000000364
  0
POLYLINE
  5
4C2
  8
CUT_15_5MM
 66
     1
 10
0.0
 20
0.0
 30
0.0
 70
     1
  0
VERTEX
  5
4C3
  8
CUT_15_5MM
 10
1677.499999999998
 20
923.4999999797838
 30
0.0
 42
-0.4142135623719376
  0
VERTEX
  5
4C4
  8
CUT_15_5MM
 10
1672.833095244167
 20
923.4999999797802
 30
0.0
  0
VERTEX
  5
4C5
  8
CUT_15_5MM
 10
1622.501231518385
 20
923.5000000000036
 30
0.0
  0
VERTEX
  5
4C6
  8
CUT_15_5MM
 10
1622.500642563151
 20
820.9171484786601
 30
0.0
 42
-0.9999942587456755
  0
VERTEX
  5
4C7
  8
CUT_15_5MM
 10
1617.833724370002
 20
816.2502571603542
 30
0.0
  0
VERTEX
  5
4C8
  8
CUT_15_5MM
 10
1615.00000002022
 20
816.2502571603472
 30
0.0
  0
VERTEX
  5
4C9
  8
CUT_15_5MM
 10
1615.00000002022
 20
776.2502571603472
 30
0.0
  0
VERTEX
  5
4CA
  8
CUT_15_5MM
 10
1617.83372010474
 20
776.2502571603472
 30
0.0
 42
-0.9999961212835602
  0
VERTEX
  5
4CB
  8
CUT_15_5MM
 10
1622.500633870924
 20
771.5833614149462
 30
0.0
  0
VERTEX
  5
4CC
  8
CUT_15_5MM
 10
1622.501231518378
 20
617.5000000000036
 30
0.0
  0
VERTEX
  5
4CD
  8
CUT_15_5MM
 10
1672.833095284608
 20
617.49999997978
 30
0.0
 42
-1.00000000000687
  0
VERTEX
  5
4CE
  8
CUT_15_5MM
 10
1677.500000040431
 20
612.8330952239507
 30
0.0
  0
VERTEX
  5
4CF
  8
CUT_15_5MM
 10
1677.499999999985
 20
607.1669047356044
 30
0.0
 42
-1.000000000004409
  0
VERTEX
  5
4D0
  8
CUT_15_5MM
 10
1672.833095244154
 20
602.4999999797774
 30
0.0
  0
VERTEX
  5
4D1
  8
CUT_15_5MM
 10
1622.501231518378
 20
602.5000000000036
 30
0.0
  0
VERTEX
  5
4D2
  8
CUT_15_5MM
 10
1622.500633870979
 20
448.4171528246881
 30
0.0
 42
-0.9999961212660327
  0
VERTEX
  5
4D3
  8
CUT_15_5MM
 10
1617.833720023894
 20
443.7502571601978
 30
0.0
  0
VERTEX
  5
4D4
  8
CUT_15_5MM
 10
1615.000000020213
 20
443.7502571601981
 30
0.0
  0
VERTEX
  5
4D5
  8
CUT_15_5MM
 10
1615.000000020213
 20
403.7502571601981
 30
0.0
  0
VERTEX
  5
4D6
  8
CUT_15_5MM
 10
1617.83372445083
 20
403.750257160198
 30
0.0
 42
-0.9999942587770274
  0
VERTEX
  5
4D7
  8
CUT_15_5MM
 10
1622.500642563012
 20
399.0833657609263
 30
0.0
  0
VERTEX
  5
4D8
  8
CUT_15_5MM
 10
1622.50123151837
 20
296.5000000000036
 30
0.0
  0
VERTEX
  5
4D9
  8
CUT_15_5MM
 10
1672.833095284601
 20
296.4999999797874
 30
0.0
 42
-1.000000000001924
  0
VERTEX
  5
4DA
  8
CUT_15_5MM
 10
1677.500000040432
 20
291.8330952239519
 30
0.0
  0
VERTEX
  5
4DB
  8
CUT_15_5MM
 10
1677.499999999986
 20
286.1669047356156
 30
0.0
 42
-0.9999999999972838
  0
VERTEX
  5
4DC
  8
CUT_15_5MM
 10
1672.833095244158
 20
281.4999999797844
 30
0.0
  0
VERTEX
  5
4DD
  8
CUT_15_5MM
 10
1622.50123151837
 20
281.5000000000036
 30
0.0
  0
VERTEX
  5
4DE
  8
CUT_15_5MM
 10
1622.50123149815
 20
181.1952161236548
 30
0.0
 42
-0.999999999996413
  0
VERTEX
  5
4DF
  8
CUT_15_5MM
 10
1617.834326742315
 20
176.5283113678229
 30
0.0
  0
VERTEX
  5
4E0
  8
CUT_15_5MM
 10
1615.00123151837
 20
176.5283113880432
 30
0.0
  0
VERTEX
  5
4E1
  8
CUT_15_5MM
 10
1615.00123151837
 20
136.528311388045
 30
0.0
  0
VERTEX
  5
4E2
  8
CUT_15_5MM
 10
1617.834326782773
 20
136.5283113678216
 30
0.0
 42
-0.9999999999974786
  0
VERTEX
  5
4E3
  8
CUT_15_5MM
 10
1622.501231538596
 20
131.8614066119922
 30
0.0
  0
VERTEX
  5
4E4
  8
CUT_15_5MM
 10
1622.50123151837
 20
40.00000000000546
 30
0.0
  0
VERTEX
  5
4E5
  8
CUT_15_5MM
 10
1672.833095284608
 20
39.99999997978548
 30
0.0
 42
-1.000000000002847
  0
VERTEX
  5
4E6
  8
CUT_15_5MM
 10
1677.500000040446
 20
35.33309522394279
 30
0.0
  0
VERTEX
  5
4E7
  8
CUT_15_5MM
 10
1677.500000020213
 20
25.00000000000546
 30
0.0
  0
VERTEX
  5
4E8
  8
CUT_15_5MM
 10
1732.500000020213
 20
25.00000000000546
 30
0.0
  0
VERTEX
  5
4E9
  8
CUT_15_5MM
 10
1732.499999992339
 20
131.8614066119936
 30
0.0
 42
-0.9999999999978014
  0
VERTEX
  5
4EA
  8
CUT_15_5MM
 10
1737.166904748166
 20
136.5283113678199
 30
0.0
  0
VERTEX
  5
4EB
  8
CUT_15_5MM
 10
1740.000000012558
 20
136.528311388045
 30
0.0
  0
VERTEX
  5
4EC
  8
CUT_15_5MM
 10
1740.000000012558
 20
176.5283113880432
 30
0.0
  0
VERTEX
  5
4ED
  8
CUT_15_5MM
 10
1737.166904788617
 20
176.5283113678234
 30
0.0
 42
-1.000000000000585
  0
VERTEX
  5
4EE
  8
CUT_15_5MM
 10
1732.500000032793
 20
181.1952161236531
 30
0.0
  0
VERTEX
  5
4EF
  8
CUT_15_5MM
 10
1732.500588967916
 20
399.0833657609219
 30
0.0
 42
-0.9999942587762842
  0
VERTEX
  5
4F0
  8
CUT_15_5MM
 10
1737.16750708011
 20
403.7502571601982
 30
0.0
  0
VERTEX
  5
4F1
  8
CUT_15_5MM
 10
1740.001231510723
 20
403.7502571601981
 30
0.0
  0
VERTEX
  5
4F2
  8
CUT_15_5MM
 10
1740.001231510716
 20
443.7502571601981
 30
0.0
  0
VERTEX
  5
4F3
  8
CUT_15_5MM
 10
1737.167511507039
 20
443.750257160198
 30
0.0
 42
-0.9999961212687247
  0
VERTEX
  5
4F4
  8
CUT_15_5MM
 10
1732.500597659959
 20
448.4171528246925
 30
0.0
  0
VERTEX
  5
4F5
  8
CUT_15_5MM
 10
1732.500597660022
 20
771.5833614149487
 30
0.0
 42
-0.9999961212784689
  0
VERTEX
  5
4F6
  8
CUT_15_5MM
 10
1737.1675114262
 20
776.2502571603487
 30
0.0
  0
VERTEX
  5
4F7
  8
CUT_15_5MM
 10
1740.001231510716
 20
776.2502571603472
 30
0.0
  0
VERTEX
  5
4F8
  8
CUT_15_5MM
 10
1740.001231510716
 20
816.2502571603472
 30
0.0
  0
VERTEX
  5
4F9
  8
CUT_15_5MM
 10
1737.167507160935
 20
816.2502571603509
 30
0.0
 42
-0.9999942587518632
  0
VERTEX
  5
4FA
  8
CUT_15_5MM
 10
1732.500588967786
 20
820.9171484786604
 30
0.0
  0
VERTEX
  5
4FB
  8
CUT_15_5MM
 10
1732.499999992339
 20
1038.805298156306
 30
0.0
 42
-0.9999999999969792
  0
VERTEX
  5
4FC
  8
CUT_15_5MM
 10
1737.166904748164
 20
1043.472202912146
 30
0.0
  0
VERTEX
  5
4FD
  8
CUT_15_5MM
 10
1740.000000012558
 20
1043.472202932357
 30
0.0
  0
VERTEX
  5
4FE
  8
CUT_15_5MM
 10
1740.000000012558
 20
1083.472202932357
 30
0.0
  0
VERTEX
  5
4FF
  8
CUT_15_5MM
 10
1737.166904788603
 20
1083.472202912137
 30
0.0
 42
-0.999999999996687
  0
VERTEX
  5
500
  8
CUT_15_5MM
 10
1732.500000032764
 20
1088.139107667967
 30
0.0
  0
VERTEX
  5
501
  8
CUT_15_5MM
 10
1732.500000020227
 20
1195.000000000005
 30
0.0
  0
VERTEX
  5
502
  8
CUT_15_5MM
 10
1677.50000002022
 20
1195.000000000005
 30
0.0
  0
VERTEX
  5
503
  8
CUT_15_5MM
 10
1677.500000000007
 20
1184.66690473562
 30
0.0
 42
-1.000000000001705
  0
VERTEX
  5
504
  8
CUT_15_5MM
 10
1672.833095244175
 20
1179.999999979783
 30
0.0
  0
VERTEX
  5
505
  8
CUT_15_5MM
 10
1622.501231518385
 20
1180.000000000005
 30
0.0
  0
VERTEX
  5
506
  8
CUT_15_5MM
 10
1622.501231498172
 20
1088.139107667965
 30
0.0
 42
-0.9999999999982948
  0
VERTEX
  5
507
  8
CUT_15_5MM
 10
1617.834326742341
 20
1083.472202912139
 30
0.0
  0
VERTEX
  5
508
  8
CUT_15_5MM
 10
1615.001231518385
 20
1083.472202932357
 30
0.0
  0
VERTEX
  5
509
  8
CUT_15_5MM
 10
1615.001231518385
 20
1043.472202932357
 30
0.0
  0
VERTEX
  5
50A
  8
CUT_15_5MM
 10
1617.834326782773
 20
1043.47220291214
 30
0.0
 42
-0.9999999999922046
  0
VERTEX
  5
50B
  8
CUT_15_5MM
 10
1622.501231538591
 20
1038.805298156314
 30
0.0
  0
VERTEX
  5
50C
  8
CUT_15_5MM
 10
1622.501231518385
 20
938.5000000000036
 30
0.0
  0
VERTEX
  5
50D
  8
CUT_15_5MM
 10
1672.833095284608
 20
938.4999999797836
 30
0.0
 42
-0.9999999999980024
  0
VERTEX
  5
50E
  8
CUT_15_5MM
 10
1677.500000040441
 20
933.8330952239547
 30
0.0
  0
VERTEX
  5
50F
  8
CUT_15_5MM
 10
1677.499999999993
 20
928.1669047356081
 30
0.0
 42
-0.4142135623730132
  0
SEQEND
  5
510
  8
CUT_15_5MM
  0
POLYLINE
  5
511
  8
LOGO_VCARVE
 66
     1
 10
0.0
 20
0.0
 30
0.0
 70
     1
  0
VERTEX
  5
512
  8
LOGO_VCARVE
 10
1693.017598629231
 20
615.0145858961587
 30
0.0
  0
VERTEX
  5
513
  8
LOGO_VCARVE
 10
1690.543342663033
 20
612.5409131713968
 30
0.0
  0
VERTEX
  5
514
  8
LOGO_VCARVE
 10
1701.638052809052
 20
612.5409131713968
 30
0.0
  0
VERTEX
  5
515
  8
LOGO_VCARVE
 10
1704.113183637397
 20
615.014585896155
 30
0.0
  0
SEQEND
  5
516
  8
LOGO_VCARVE
  0
POLYLINE
  5
517
  8
LOGO_VCARVE
 66
     1
 10
0.0
 20
0.0
 30
0.0
 70
     1
  0
VERTEX
  5
518
  8
LOGO_VCARVE
 10
1719.998011923824
 20
611.9908581765849
 30
0.0
  0
VERTEX
  5
519
  8
LOGO_VCARVE
 10
1717.515590577583
 20
614.4742272901603
 30
0.0
  0
VERTEX
  5
51A
  8
LOGO_VCARVE
 10
1717.515590577575
 20
604.7569875968875
 30
0.0
  0
VERTEX
  5
51B
  8
LOGO_VCARVE
 10
1719.998011923824
 20
602.2738371988526
 30
0.0
  0
SEQEND
  5
51C
  8
LOGO_VCARVE
  0
POLYLINE
  5
51D
  8
LOGO_VCARVE
 66
     1
 10
0.0
 20
0.0
 30
0.0
 70
     1
  0
VERTEX
  5
51E
  8
LOGO_VCARVE
 10
1716.215239223224
 20
615.014585896155
 30
0.0
  0
VERTEX
  5
51F
  8
LOGO_VCARVE
 10
1705.990871104557
 20
615.014585896155
 30
0.0
  0
VERTEX
  5
520
  8
LOGO_VCARVE
 10
1708.463596061993
 20
612.5409131713895
 30
0.0
  0
VERTEX
  5
521
  8
LOGO_VCARVE
 10
1713.741712308816
 20
612.5409131713895
 30
0.0
  0
SEQEND
  5
522
  8
LOGO_VCARVE
  0
POLYLINE
  5
523
  8
LOGO_VCARVE
 66
     1
 10
0.0
 20
0.0
 30
0.0
 70
     1
  0
VERTEX
  5
524
  8
LOGO_VCARVE
 10
1717.131518803886
 20
604.0556324840218
 30
0.0
  0
VERTEX
  5
525
  8
LOGO_VCARVE
 10
1714.816123222816
 20
601.7399452822356
 30
0.0
  0
VERTEX
  5
526
  8
LOGO_VCARVE
 10
1719.444362703696
 20
601.7399452822356
 30
0.0
  0
SEQEND
  5
527
  8
LOGO_VCARVE
  0
POLYLINE
  5
528
  8
LOGO_VCARVE
 66
     1
 10
0.0
 20
0.0
 30
0.0
 70
     1
  0
VERTEX
  5
529
  8
LOGO_VCARVE
 10
1714.278447527409
 20
602.2893951640544
 30
0.0
  0
VERTEX
  5
52A
  8
LOGO_VCARVE
 10
1716.748766613942
 20
604.7588393884362
 30
0.0
  0
VERTEX
  5
52B
  8
LOGO_VCARVE
 10
1716.748766613942
 20
614.4609877096482
 30
0.0
  0
VERTEX
  5
52C
  8
LOGO_VCARVE
 10
1714.278447527409
 20
611.9915434852664
 30
0.0
  0
SEQEND
  5
52D
  8
LOGO_VCARVE
  0
POLYLINE
  5
52E
  8
LOGO_VCARVE
 66
     1
 10
0.0
 20
0.0
 30
0.0
 70
     1
  0
VERTEX
  5
52F
  8
LOGO_VCARVE
 10
1705.060338561387
 20
604.0638561882224
 30
0.0
  0
VERTEX
  5
530
  8
LOGO_VCARVE
 10
1702.736923410623
 20
601.7402223219178
 30
0.0
  0
VERTEX
  5
531
  8
LOGO_VCARVE
 10
1707.384774384656
 20
601.7402223219178
 30
0.0
  0
SEQEND
  5
532
  8
LOGO_VCARVE
  0
POLYLINE
  5
533
  8
LOGO_VCARVE
 66
     1
 10
0.0
 20
0.0
 30
0.0
 70
     1
  0
VERTEX
  5
534
  8
LOGO_VCARVE
 10
1705.444279105759
 20
604.767427618528
 30
0.0
  0
VERTEX
  5
535
  8
LOGO_VCARVE
 10
1707.917878925342
 20
602.292734221257
 30
0.0
  0
VERTEX
  5
536
  8
LOGO_VCARVE
 10
1707.917878925342
 20
612.0018085344782
 30
0.0
  0
VERTEX
  5
537
  8
LOGO_VCARVE
 10
1705.444279105759
 20
614.4744605867345
 30
0.0
  0
SEQEND
  5
538
  8
LOGO_VCARVE
  0
POLYLINE
  5
539
  8
LOGO_VCARVE
 66
     1
 10
0.0
 20
0.0
 30
0.0
 70
     1
  0
VERTEX
  5
53A
  8
LOGO_VCARVE
 10
1689.998143153156
 20
613.0821247679887
 30
0.0
  0
VERTEX
  5
53B
  8
LOGO_VCARVE
 10
1692.316309131027
 20
615.4000720303266
 30
0.0
  0
VERTEX
  5
53C
  8
LOGO_VCARVE
 10
1689.998143153156
 20
617.7180192926608
 30
0.0
  0
SEQEND
  5
53D
  8
LOGO_VCARVE
  0
POLYLINE
  5
53E
  8
LOGO_VCARVE
 66
     1
 10
0.0
 20
0.0
 30
0.0
 70
     1
  0
VERTEX
  5
53F
  8
LOGO_VCARVE
 10
1702.196980364148
 20
602.28851301139
 30
0.0
  0
VERTEX
  5
540
  8
LOGO_VCARVE
 10
1704.674735778935
 20
604.7651748484968
 30
0.0
  0
VERTEX
  5
541
  8
LOGO_VCARVE
 10
1704.674735778935
 20
614.4925483616571
 30
0.0
  0
VERTEX
  5
542
  8
LOGO_VCARVE
 10
1702.196980364148
 20
612.0150845675817
 30
0.0
  0
SEQEND
  5
543
  8
LOGO_VCARVE
  0
POLYLINE
  5
544
  8
LOGO_VCARVE
 66
     1
 10
0.0
 20
0.0
 30
0.0
 70
     1
  0
VERTEX
  5
545
  8
LOGO_VCARVE
 10
1719.998143153156
 20
617.7140167983271
 30
0.0
  0
VERTEX
  5
546
  8
LOGO_VCARVE
 10
1717.845690647227
 20
615.5608352406198
 30
0.0
  0
VERTEX
  5
547
  8
LOGO_VCARVE
 10
1717.845690647227
 20
615.5595229473947
 30
0.0
  0
VERTEX
  5
548
  8
LOGO_VCARVE
 10
1717.78751231436
 20
615.4991574591477
 30
0.0
  0
VERTEX
  5
549
  8
LOGO_VCARVE
 10
1717.68077913225
 20
615.3941740013361
 30
0.0
  0
VERTEX
  5
54A
  8
LOGO_VCARVE
 10
1719.998143153149
 20
613.0764454545315
 30
0.0
  0
SEQEND
  5
54B
  8
LOGO_VCARVE
  0
POLYLINE
  5
54C
  8
LOGO_VCARVE
 66
     1
 10
0.0
 20
0.0
 30
0.0
 70
     1
  0
VERTEX
  5
54D
  8
LOGO_VCARVE
 10
1690.54144712838
 20
618.2600547177753
 30
0.0
  0
VERTEX
  5
54E
  8
LOGO_VCARVE
 10
1693.017598629231
 20
615.785142604971
 30
0.0
  0
VERTEX
  5
54F
  8
LOGO_VCARVE
 10
1716.982187125664
 20
615.7851426049638
 30
0.0
  0
VERTEX
  5
550
  8
LOGO_VCARVE
 10
1719.459650919736
 20
618.2600547177681
 30
0.0
  0
SEQEND
  5
551
  8
LOGO_VCARVE
  0
POLYLINE
  5
552
  8
CUT_15_5MM
 66
     1
 10
0.0
 20
0.0
 30
0.0
 70
     1
  0
VERTEX
  5
553
  8
CUT_15_5MM
 10
1940.497536988352
 20
923.4999999797874
 30
0.0
 42
-0.4142135623719376
  0
VERTEX
  5
554
  8
CUT_15_5MM
 10
1935.830632232521
 20
923.4999999797839
 30
0.0
  0
VERTEX
  5
555
  8
CUT_15_5MM
 10
1885.498768506739
 20
923.5000000000073
 30
0.0
  0
VERTEX
  5
556
  8
CUT_15_5MM
 10
1885.498179551505
 20
820.9171484786639
 30
0.0
 42
-0.9999942587466256
  0
VERTEX
  5
557
  8
CUT_15_5MM
 10
1880.831261358363
 20
816.2502571603578
 30
0.0
  0
VERTEX
  5
558
  8
CUT_15_5MM
 10
1877.997537008574
 20
816.2502571603509
 30
0.0
  0
VERTEX
  5
559
  8
CUT_15_5MM
 10
1877.997537008574
 20
776.2502571603509
 30
0.0
  0
VERTEX
  5
55A
  8
CUT_15_5MM
 10
1880.831257093101
 20
776.2502571603509
 30
0.0
 42
-0.9999961212827806
  0
VERTEX
  5
55B
  8
CUT_15_5MM
 10
1885.498170859278
 20
771.5833614149499
 30
0.0
  0
VERTEX
  5
55C
  8
CUT_15_5MM
 10
1885.498768506732
 20
617.5000000000073
 30
0.0
  0
VERTEX
  5
55D
  8
CUT_15_5MM
 10
1935.830632272962
 20
617.4999999797839
 30
0.0
 42
-1.0000000000076
  0
VERTEX
  5
55E
  8
CUT_15_5MM
 10
1940.497537028793
 20
612.8330952239544
 30
0.0
  0
VERTEX
  5
55F
  8
CUT_15_5MM
 10
1940.497536988347
 20
607.166904735608
 30
0.0
 42
-1.000000000004409
  0
VERTEX
  5
560
  8
CUT_15_5MM
 10
1935.830632232515
 20
602.499999979781
 30
0.0
  0
VERTEX
  5
561
  8
CUT_15_5MM
 10
1885.498768506732
 20
602.5000000000073
 30
0.0
  0
VERTEX
  5
562
  8
CUT_15_5MM
 10
1885.498170859333
 20
448.4171528246918
 30
0.0
 42
-0.9999961212668123
  0
VERTEX
  5
563
  8
CUT_15_5MM
 10
1880.831257012255
 20
443.7502571602014
 30
0.0
  0
VERTEX
  5
564
  8
CUT_15_5MM
 10
1877.997537008574
 20
443.7502571602017
 30
0.0
  0
VERTEX
  5
565
  8
CUT_15_5MM
 10
1877.997537008574
 20
403.7502571602017
 30
0.0
  0
VERTEX
  5
566
  8
CUT_15_5MM
 10
1880.831261439183
 20
403.7502571602018
 30
0.0
 42
-0.9999942587770274
  0
VERTEX
  5
567
  8
CUT_15_5MM
 10
1885.498179551366
 20
399.0833657609299
 30
0.0
  0
VERTEX
  5
568
  8
CUT_15_5MM
 10
1885.498768506732
 20
296.5000000000073
 30
0.0
  0
VERTEX
  5
569
  8
CUT_15_5MM
 10
1935.830632272955
 20
296.4999999797913
 30
0.0
 42
-1.00000000000268
  0
VERTEX
  5
56A
  8
CUT_15_5MM
 10
1940.497537028794
 20
291.8330952239556
 30
0.0
  0
VERTEX
  5
56B
  8
CUT_15_5MM
 10
1940.497536988347
 20
286.166904735619
 30
0.0
 42
-0.9999999999963337
  0
VERTEX
  5
56C
  8
CUT_15_5MM
 10
1935.830632232512
 20
281.499999979788
 30
0.0
  0
VERTEX
  5
56D
  8
CUT_15_5MM
 10
1885.498768506732
 20
281.5000000000073
 30
0.0
  0
VERTEX
  5
56E
  8
CUT_15_5MM
 10
1885.498768486505
 20
181.1952161236586
 30
0.0
 42
-0.9999999999972654
  0
VERTEX
  5
56F
  8
CUT_15_5MM
 10
1880.831863730677
 20
176.5283113678266
 30
0.0
  0
VERTEX
  5
570
  8
CUT_15_5MM
 10
1877.998768506732
 20
176.5283113880469
 30
0.0
  0
VERTEX
  5
571
  8
CUT_15_5MM
 10
1877.998768506732
 20
136.5283113880469
 30
0.0
  0
VERTEX
  5
572
  8
CUT_15_5MM
 10
1880.831863771127
 20
136.5283113678234
 30
0.0
 42
-0.9999999999982704
  0
VERTEX
  5
573
  8
CUT_15_5MM
 10
1885.498768526958
 20
131.861406611994
 30
0.0
  0
VERTEX
  5
574
  8
CUT_15_5MM
 10
1885.498768506732
 20
40.00000000000728
 30
0.0
  0
VERTEX
  5
575
  8
CUT_15_5MM
 10
1935.830632272962
 20
39.9999999797873
 30
0.0
 42
-1.000000000002847
  0
VERTEX
  5
576
  8
CUT_15_5MM
 10
1940.4975370288
 20
35.33309522394461
 30
0.0
  0
VERTEX
  5
577
  8
CUT_15_5MM
 10
1940.497537008567
 20
25.00000000000728
 30
0.0
  0
VERTEX
  5
578
  8
CUT_15_5MM
 10
1995.497537008574
 20
25.00000000000728
 30
0.0
  0
VERTEX
  5
579
  8
CUT_15_5MM
 10
1995.497536980693
 20
131.8614066119954
 30
0.0
 42
-0.9999999999978014
  0
VERTEX
  5
57A
  8
CUT_15_5MM
 10
2000.164441736521
 20
136.5283113678217
 30
0.0
  0
VERTEX
  5
57B
  8
CUT_15_5MM
 10
2002.99753700092
 20
136.5283113880469
 30
0.0
  0
VERTEX
  5
57C
  8
CUT_15_5MM
 10
2002.99753700092
 20
176.5283113880469
 30
0.0
  0
VERTEX
  5
57D
  8
CUT_15_5MM
 10
2000.164441776971
 20
176.528311367827
 30
0.0
 42
-1.000000000000585
  0
VERTEX
  5
57E
  8
CUT_15_5MM
 10
1995.497537021147
 20
181.1952161236567
 30
0.0
  0
VERTEX
  5
57F
  8
CUT_15_5MM
 10
1995.498125956277
 20
399.0833657609255
 30
0.0
 42
-0.9999942587762842
  0
VERTEX
  5
580
  8
CUT_15_5MM
 10
2000.165044068472
 20
403.7502571602018
 30
0.0
  0
VERTEX
  5
581
  8
CUT_15_5MM
 10
2002.998768499077
 20
403.7502571602017
 30
0.0
  0
VERTEX
  5
582
  8
CUT_15_5MM
 10
2002.998768499077
 20
443.7502571602017
 30
0.0
  0
VERTEX
  5
583
  8
CUT_15_5MM
 10
2000.165048495401
 20
443.7502571602017
 30
0.0
 42
-0.9999961212687247
  0
VERTEX
  5
584
  8
CUT_15_5MM
 10
1995.49813464832
 20
448.4171528246961
 30
0.0
  0
VERTEX
  5
585
  8
CUT_15_5MM
 10
1995.498134648377
 20
771.5833614149526
 30
0.0
 42
-0.9999961212784934
  0
VERTEX
  5
586
  8
CUT_15_5MM
 10
2000.165048414554
 20
776.2502571603524
 30
0.0
  0
VERTEX
  5
587
  8
CUT_15_5MM
 10
2002.998768499077
 20
776.2502571603509
 30
0.0
  0
VERTEX
  5
588
  8
CUT_15_5MM
 10
2002.998768499077
 20
816.2502571603509
 30
0.0
  0
VERTEX
  5
589
  8
CUT_15_5MM
 10
2000.165044149297
 20
816.2502571603544
 30
0.0
 42
-0.9999942587526914
  0
VERTEX
  5
58A
  8
CUT_15_5MM
 10
1995.49812595614
 20
820.917148478664
 30
0.0
  0
VERTEX
  5
58B
  8
CUT_15_5MM
 10
1995.497536980693
 20
1038.805298156309
 30
0.0
 42
-0.9999999999969306
  0
VERTEX
  5
58C
  8
CUT_15_5MM
 10
2000.164441736518
 20
1043.472202912149
 30
0.0
  0
VERTEX
  5
58D
  8
CUT_15_5MM
 10
2002.99753700092
 20
1043.47220293236
 30
0.0
  0
VERTEX
  5
58E
  8
CUT_15_5MM
 10
2002.99753700092
 20
1083.47220293236
 30
0.0
  0
VERTEX
  5
58F
  8
CUT_15_5MM
 10
2000.164441776957
 20
1083.47220291214
 30
0.0
 42
-0.9999999999959074
  0
VERTEX
  5
590
  8
CUT_15_5MM
 10
1995.497537021125
 20
1088.13910766797
 30
0.0
  0
VERTEX
  5
591
  8
CUT_15_5MM
 10
1995.497537008581
 20
1195.000000000007
 30
0.0
  0
VERTEX
  5
592
  8
CUT_15_5MM
 10
1940.497537008574
 20
1195.000000000007
 30
0.0
  0
VERTEX
  5
593
  8
CUT_15_5MM
 10
1940.497536988362
 20
1184.666904735623
 30
0.0
 42
-1.000000000002534
  0
VERTEX
  5
594
  8
CUT_15_5MM
 10
1935.830632232537
 20
1179.999999979785
 30
0.0
  0
VERTEX
  5
595
  8
CUT_15_5MM
 10
1885.498768506739
 20
1180.000000000007
 30
0.0
  0
VERTEX
  5
596
  8
CUT_15_5MM
 10
1885.498768486534
 20
1088.139107667968
 30
0.0
 42
-0.9999999999982948
  0
VERTEX
  5
597
  8
CUT_15_5MM
 10
1880.831863730702
 20
1083.472202912143
 30
0.0
  0
VERTEX
  5
598
  8
CUT_15_5MM
 10
1877.998768506739
 20
1083.47220293236
 30
0.0
  0
VERTEX
  5
599
  8
CUT_15_5MM
 10
1877.998768506739
 20
1043.47220293236
 30
0.0
  0
VERTEX
  5
59A
  8
CUT_15_5MM
 10
1880.831863771135
 20
1043.472202912144
 30
0.0
 42
-0.9999999999922046
  0
VERTEX
  5
59B
  8
CUT_15_5MM
 10
1885.498768526952
 20
1038.805298156318
 30
0.0
  0
VERTEX
  5
59C
  8
CUT_15_5MM
 10
1885.498768506739
 20
938.5000000000073
 30
0.0
  0
VERTEX
  5
59D
  8
CUT_15_5MM
 10
1935.830632272962
 20
938.4999999797873
 30
0.0
 42
-0.9999999999987331
  0
VERTEX
  5
59E
  8
CUT_15_5MM
 10
1940.497537028802
 20
933.8330952239584
 30
0.0
  0
VERTEX
  5
59F
  8
CUT_15_5MM
 10
1940.497536988347
 20
928.1669047356118
 30
0.0
 42
-0.4142135623730132
  0
SEQEND
  5
5A0
  8
CUT_15_5MM
  0
POLYLINE
  5
5A1
  8
LOGO_VCARVE
 66
     1
 10
0.0
 20
0.0
 30
0.0
 70
     1
  0
VERTEX
  5
5A2
  8
LOGO_VCARVE
 10
1953.538984116734
 20
618.2600537790786
 30
0.0
  0
VERTEX
  5
5A3
  8
LOGO_VCARVE
 10
1956.015135617592
 20
615.7851416662743
 30
0.0
  0
VERTEX
  5
5A4
  8
LOGO_VCARVE
 10
1979.979724114019
 20
615.785141666267
 30
0.0
  0
VERTEX
  5
5A5
  8
LOGO_VCARVE
 10
1982.45718790809
 20
618.2600537790713
 30
0.0
  0
SEQEND
  5
5A6
  8
LOGO_VCARVE
  0
POLYLINE
  5
5A7
  8
LOGO_VCARVE
 66
     1
 10
0.0
 20
0.0
 30
0.0
 70
     1
  0
VERTEX
  5
5A8
  8
LOGO_VCARVE
 10
1982.99568014151
 20
617.7140158596303
 30
0.0
  0
VERTEX
  5
5A9
  8
LOGO_VCARVE
 10
1980.843227635589
 20
615.560834301923
 30
0.0
  0
VERTEX
  5
5AA
  8
LOGO_VCARVE
 10
1980.843227635589
 20
615.559522008698
 30
0.0
  0
VERTEX
  5
5AB
  8
LOGO_VCARVE
 10
1980.785049302722
 20
615.4991565204509
 30
0.0
  0
VERTEX
  5
5AC
  8
LOGO_VCARVE
 10
1980.678316120611
 20
615.3941730626393
 30
0.0
  0
VERTEX
  5
5AD
  8
LOGO_VCARVE
 10
1982.99568014151
 20
613.0764445158347
 30
0.0
  0
SEQEND
  5
5AE
  8
LOGO_VCARVE
  0
POLYLINE
  5
5AF
  8
LOGO_VCARVE
 66
     1
 10
0.0
 20
0.0
 30
0.0
 70
     1
  0
VERTEX
  5
5B0
  8
LOGO_VCARVE
 10
1965.194517352502
 20
602.2885120726933
 30
0.0
  0
VERTEX
  5
5B1
  8
LOGO_VCARVE
 10
1967.67227276729
 20
604.7651739098001
 30
0.0
  0
VERTEX
  5
5B2
  8
LOGO_VCARVE
 10
1967.67227276729
 20
614.4925474229603
 30
0.0
  0
VERTEX
  5
5B3
  8
LOGO_VCARVE
 10
1965.194517352502
 20
612.0150836288849
 30
0.0
  0
SEQEND
  5
5B4
  8
LOGO_VCARVE
  0
POLYLINE
  5
5B5
  8
LOGO_VCARVE
 66
     1
 10
0.0
 20
0.0
 30
0.0
 70
     1
  0
VERTEX
  5
5B6
  8
LOGO_VCARVE
 10
1952.99568014151
 20
613.082123829292
 30
0.0
  0
VERTEX
  5
5B7
  8
LOGO_VCARVE
 10
1955.313846119388
 20
615.4000710916298
 30
0.0
  0
VERTEX
  5
5B8
  8
LOGO_VCARVE
 10
1952.99568014151
 20
617.718018353964
 30
0.0
  0
SEQEND
  5
5B9
  8
LOGO_VCARVE
  0
POLYLINE
  5
5BA
  8
LOGO_VCARVE
 66
     1
 10
0.0
 20
0.0
 30
0.0
 70
     1
  0
VERTEX
  5
5BB
  8
LOGO_VCARVE
 10
1968.441816094113
 20
604.7674266798313
 30
0.0
  0
VERTEX
  5
5BC
  8
LOGO_VCARVE
 10
1970.915415913696
 20
602.2927332825602
 30
0.0
  0
VERTEX
  5
5BD
  8
LOGO_VCARVE
 10
1970.915415913696
 20
612.0018075957814
 30
0.0
  0
VERTEX
  5
5BE
  8
LOGO_VCARVE
 10
1968.441816094113
 20
614.4744596480377
 30
0.0
  0
SEQEND
  5
5BF
  8
LOGO_VCARVE
  0
POLYLINE
  5
5C0
  8
LOGO_VCARVE
 66
     1
 10
0.0
 20
0.0
 30
0.0
 70
     1
  0
VERTEX
  5
5C1
  8
LOGO_VCARVE
 10
1968.057875549741
 20
604.0638552495257
 30
0.0
  0
VERTEX
  5
5C2
  8
LOGO_VCARVE
 10
1965.734460398977
 20
601.7402213832211
 30
0.0
  0
VERTEX
  5
5C3
  8
LOGO_VCARVE
 10
1970.382311373018
 20
601.7402213832211
 30
0.0
  0
SEQEND
  5
5C4
  8
LOGO_VCARVE
  0
POLYLINE
  5
5C5
  8
LOGO_VCARVE
 66
     1
 10
0.0
 20
0.0
 30
0.0
 70
     1
  0
VERTEX
  5
5C6
  8
LOGO_VCARVE
 10
1977.275984515771
 20
602.2893942253577
 30
0.0
  0
VERTEX
  5
5C7
  8
LOGO_VCARVE
 10
1979.746303602296
 20
604.7588384497394
 30
0.0
  0
VERTEX
  5
5C8
  8
LOGO_VCARVE
 10
1979.746303602296
 20
614.4609867709514
 30
0.0
  0
VERTEX
  5
5C9
  8
LOGO_VCARVE
 10
1977.275984515771
 20
611.9915425465697
 30
0.0
  0
SEQEND
  5
5CA
  8
LOGO_VCARVE
  0
POLYLINE
  5
5CB
  8
LOGO_VCARVE
 66
     1
 10
0.0
 20
0.0
 30
0.0
 70
     1
  0
VERTEX
  5
5CC
  8
LOGO_VCARVE
 10
1980.129055792248
 20
604.055631545325
 30
0.0
  0
VERTEX
  5
5CD
  8
LOGO_VCARVE
 10
1977.813660211177
 20
601.7399443435388
 30
0.0
  0
VERTEX
  5
5CE
  8
LOGO_VCARVE
 10
1982.441899692058
 20
601.7399443435388
 30
0.0
  0
SEQEND
  5
5CF
  8
LOGO_VCARVE
  0
POLYLINE
  5
5D0
  8
LOGO_VCARVE
 66
     1
 10
0.0
 20
0.0
 30
0.0
 70
     1
  0
VERTEX
  5
5D1
  8
LOGO_VCARVE
 10
1979.212776211585
 20
615.0145849574583
 30
0.0
  0
VERTEX
  5
5D2
  8
LOGO_VCARVE
 10
1968.988408092919
 20
615.0145849574583
 30
0.0
  0
VERTEX
  5
5D3
  8
LOGO_VCARVE
 10
1971.461133050354
 20
612.5409122326928
 30
0.0
  0
VERTEX
  5
5D4
  8
LOGO_VCARVE
 10
1976.73924929717
 20
612.5409122326928
 30
0.0
  0
SEQEND
  5
5D5
  8
LOGO_VCARVE
  0
POLYLINE
  5
5D6
  8
LOGO_VCARVE
 66
     1
 10
0.0
 20
0.0
 30
0.0
 70
     1
  0
VERTEX
  5
5D7
  8
LOGO_VCARVE
 10
1982.995548912178
 20
611.9908572378881
 30
0.0
  0
VERTEX
  5
5D8
  8
LOGO_VCARVE
 10
1980.513127565937
 20
614.4742263514636
 30
0.0
  0
VERTEX
  5
5D9
  8
LOGO_VCARVE
 10
1980.513127565937
 20
604.7569866581907
 30
0.0
  0
VERTEX
  5
5DA
  8
LOGO_VCARVE
 10
1982.995548912178
 20
602.2738362601558
 30
0.0
  0
SEQEND
  5
5DB
  8
LOGO_VCARVE
  0
POLYLINE
  5
5DC
  8
LOGO_VCARVE
 66
     1
 10
0.0
 20
0.0
 30
0.0
 70
     1
  0
VERTEX
  5
5DD
  8
LOGO_VCARVE
 10
1956.015135617592
 20
615.0145849574619
 30
0.0
  0
VERTEX
  5
5DE
  8
LOGO_VCARVE
 10
1953.540879651395
 20
612.5409122327001
 30
0.0
  0
VERTEX
  5
5DF
  8
LOGO_VCARVE
 10
1964.635589797414
 20
612.5409122327001
 30
0.0
  0
VERTEX
  5
5E0
  8
LOGO_VCARVE
 10
1967.110720625758
 20
615.0145849574583
 30
0.0
  0
SEQEND
  5
5E1
  8
LOGO_VCARVE
  0
POLYLINE
  5
5E2
  8
CUT_15_5MM
 66
     1
 10
0.0
 20
0.0
 30
0.0
 70
     1
  0
VERTEX
  5
5E3
  8
CUT_15_5MM
 10
2158.038755331549
 20
988.768060289317
 30
0.0
 42
-0.4142135623711795
  0
VERTEX
  5
5E4
  8
CUT_15_5MM
 10
2158.03875533155
 20
993.434965045145
 30
0.0
  0
VERTEX
  5
5E5
  8
CUT_15_5MM
 10
2158.038755331552
 20
996.268060289316
 30
0.0
  0
VERTEX
  5
5E6
  8
CUT_15_5MM
 10
2118.038755331552
 20
996.2680602893106
 30
0.0
  0
VERTEX
  5
5E7
  8
CUT_15_5MM
 10
2118.038755331553
 20
993.4349650451427
 30
0.0
 42
-0.9999999999988795
  0
VERTEX
  5
5E8
  8
CUT_15_5MM
 10
2113.37185057572
 20
988.768060289317
 30
0.0
  0
VERTEX
  5
5E9
  8
CUT_15_5MM
 10
2105.538573094775
 20
988.7680602893106
 30
0.0
  0
VERTEX
  5
5EA
  8
CUT_15_5MM
 10
2105.538573094789
 20
878.7680602893215
 30
0.0
  0
VERTEX
  5
5EB
  8
CUT_15_5MM
 10
2113.37185059594
 20
878.7680602691015
 30
0.0
 42
-1.000000000004239
  0
VERTEX
  5
5EC
  8
CUT_15_5MM
 10
2118.038755351785
 20
874.1011555132677
 30
0.0
  0
VERTEX
  5
5ED
  8
CUT_15_5MM
 10
2118.038755331552
 20
871.2680602893215
 30
0.0
  0
VERTEX
  5
5EE
  8
CUT_15_5MM
 10
2158.038755331552
 20
871.268060289327
 30
0.0
  0
VERTEX
  5
5EF
  8
CUT_15_5MM
 10
2158.038755351772
 20
874.1011555537222
 30
0.0
 42
-0.9999999999930572
  0
VERTEX
  5
5F0
  8
CUT_15_5MM
 10
2162.705660107597
 20
878.7680603095461
 30
0.0
  0
VERTEX
  5
5F1
  8
CUT_15_5MM
 10
2166.788937548103
 20
878.7680602965884
 30
0.0
  0
VERTEX
  5
5F2
  8
CUT_15_5MM
 10
2166.788937568315
 20
929.1011555537006
 30
0.0
 42
-0.9999999999963946
  0
VERTEX
  5
5F3
  8
CUT_15_5MM
 10
2171.455842324151
 20
933.7680603095295
 30
0.0
  0
VERTEX
  5
5F4
  8
CUT_15_5MM
 10
2177.12203281249
 20
933.7680602690929
 30
0.0
 42
-1.000000000002339
  0
VERTEX
  5
5F5
  8
CUT_15_5MM
 10
2181.788937568319
 20
929.101155513265
 30
0.0
  0
VERTEX
  5
5F6
  8
CUT_15_5MM
 10
2181.788937548103
 20
878.7680602941691
 30
0.0
  0
VERTEX
  5
5F7
  8
CUT_15_5MM
 10
2185.872215029041
 20
878.7680603095506
 30
0.0
 42
-1.000000000002339
  0
VERTEX
  5
5F8
  8
CUT_15_5MM
 10
2190.539119784868
 20
874.1011555537227
 30
0.0
  0
VERTEX
  5
5F9
  8
CUT_15_5MM
 10
2190.539119805093
 20
871.268060289327
 30
0.0
  0
VERTEX
  5
5FA
  8
CUT_15_5MM
 10
2230.539119805093
 20
871.2680602893233
 30
0.0
  0
VERTEX
  5
5FB
  8
CUT_15_5MM
 10
2230.539119784866
 20
874.1011555132757
 30
0.0
 42
-1.000000000002412
  0
VERTEX
  5
5FC
  8
CUT_15_5MM
 10
2235.206024540701
 20
878.7680602691024
 30
0.0
  0
VERTEX
  5
5FD
  8
CUT_15_5MM
 10
2243.039302041856
 20
878.7680602893233
 30
0.0
  0
VERTEX
  5
5FE
  8
CUT_15_5MM
 10
2243.039302041856
 20
988.7680602893124
 30
0.0
  0
VERTEX
  5
5FF
  8
CUT_15_5MM
 10
2235.206024560925
 20
988.768060289316
 30
0.0
 42
-0.9999999999990742
  0
VERTEX
  5
600
  8
CUT_15_5MM
 10
2230.539119805095
 20
993.4349650451445
 30
0.0
  0
VERTEX
  5
601
  8
CUT_15_5MM
 10
2230.539119805093
 20
996.2680602893124
 30
0.0
  0
VERTEX
  5
602
  8
CUT_15_5MM
 10
2190.539119805093
 20
996.268060289316
 30
0.0
  0
VERTEX
  5
603
  8
CUT_15_5MM
 10
2190.539119805093
 20
993.4349650451477
 30
0.0
 42
-1.000000000001315
  0
VERTEX
  5
604
  8
CUT_15_5MM
 10
2185.872215049252
 20
988.7680602893156
 30
0.0
  0
VERTEX
  5
605
  8
CUT_15_5MM
 10
2162.705660087377
 20
988.7680602893159
 30
0.0
 42
-0.4142135623739961
  0
SEQEND
  5
606
  8
CUT_15_5MM
  0
POLYLINE
  5
607
  8
CUT_15_5MM
 66
     1
 10
0.0
 20
0.0
 30
0.0
 70
     1
  0
VERTEX
  5
608
  8
CUT_15_5MM
 10
2044.038573115002
 20
874.1011555132793
 30
0.0
 42
0.9999999999982948
  0
VERTEX
  5
609
  8
CUT_15_5MM
 10
2039.371668359171
 20
878.7680602691079
 30
0.0
  0
VERTEX
  5
60A
  8
CUT_15_5MM
 10
2029.038573094775
 20
878.7680602893306
 30
0.0
  0
VERTEX
  5
60B
  8
CUT_15_5MM
 10
2029.038573115002
 20
929.1011555132645
 30
0.0
 42
0.9999999999968331
  0
VERTEX
  5
60C
  8
CUT_15_5MM
 10
2024.371668359165
 20
933.7680602690951
 30
0.0
  0
VERTEX
  5
60D
  8
CUT_15_5MM
 10
2014.038573094775
 20
933.768060289316
 30
0.0
  0
VERTEX
  5
60E
  8
CUT_15_5MM
 10
2014.038573094775
 20
988.768060289316
 30
0.0
  0
VERTEX
  5
60F
  8
CUT_15_5MM
 10
2039.37166833895
 20
988.7680602893198
 30
0.0
 42
1.000000000001998
  0
VERTEX
  5
610
  8
CUT_15_5MM
 10
2044.038573094782
 20
993.434965045152
 30
0.0
  0
VERTEX
  5
611
  8
CUT_15_5MM
 10
2044.038573094775
 20
996.268060289316
 30
0.0
  0
VERTEX
  5
612
  8
CUT_15_5MM
 10
2084.038573094775
 20
996.268060289316
 30
0.0
  0
VERTEX
  5
613
  8
CUT_15_5MM
 10
2084.038573094774
 20
993.434965045148
 30
0.0
 42
0.9999999999996346
  0
VERTEX
  5
614
  8
CUT_15_5MM
 10
2088.70547785061
 20
988.7680602893117
 30
0.0
  0
VERTEX
  5
615
  8
CUT_15_5MM
 10
2099.038573094775
 20
988.768060289316
 30
0.0
  0
VERTEX
  5
616
  8
CUT_15_5MM
 10
2099.038573094775
 20
878.7680602893306
 30
0.0
  0
VERTEX
  5
617
  8
CUT_15_5MM
 10
2088.705477870826
 20
878.7680603095469
 30
0.0
 42
0.9999999999998538
  0
VERTEX
  5
618
  8
CUT_15_5MM
 10
2084.038573114988
 20
874.1011555537146
 30
0.0
  0
VERTEX
  5
619
  8
CUT_15_5MM
 10
2084.038573094775
 20
871.2680602893306
 30
0.0
  0
VERTEX
  5
61A
  8
CUT_15_5MM
 10
2044.038573094775
 20
871.2680602893306
 30
0.0
  0
SEQEND
  5
61B
  8
CUT_15_5MM
  0
POLYLINE
  5
61C
  8
CUT_15_5MM
 66
     1
 10
0.0
 20
0.0
 30
0.0
 70
     1
  0
VERTEX
  5
61D
  8
CUT_15_5MM
 10
2044.038573115009
 20
1124.934965065354
 30
0.0
 42
-0.9999999999981973
  0
VERTEX
  5
61E
  8
CUT_15_5MM
 10
2039.371668359179
 20
1120.268060309526
 30
0.0
  0
VERTEX
  5
61F
  8
CUT_15_5MM
 10
2029.038573094782
 20
1120.268060289302
 30
0.0
  0
VERTEX
  5
620
  8
CUT_15_5MM
 10
2029.038573115002
 20
1069.934965065368
 30
0.0
 42
-0.9999999999980512
  0
VERTEX
  5
621
  8
CUT_15_5MM
 10
2024.371668359171
 20
1065.268060309541
 30
0.0
  0
VERTEX
  5
622
  8
CUT_15_5MM
 10
2014.038573094782
 20
1065.268060289316
 30
0.0
  0
VERTEX
  5
623
  8
CUT_15_5MM
 10
2014.038573094775
 20
1010.268060289316
 30
0.0
  0
VERTEX
  5
624
  8
CUT_15_5MM
 10
2039.37166833895
 20
1010.268060289312
 30
0.0
 42
-1.00000000000229
  0
VERTEX
  5
625
  8
CUT_15_5MM
 10
2044.038573094782
 20
1005.601155533482
 30
0.0
  0
VERTEX
  5
626
  8
CUT_15_5MM
 10
2044.038573094775
 20
1002.768060289316
 30
0.0
  0
VERTEX
  5
627
  8
CUT_15_5MM
 10
2084.038573094775
 20
1002.768060289316
 30
0.0
  0
VERTEX
  5
628
  8
CUT_15_5MM
 10
2084.038573094774
 20
1005.601155533484
 30
0.0
 42
-0.9999999999997319
  0
VERTEX
  5
629
  8
CUT_15_5MM
 10
2088.70547785061
 20
1010.268060289322
 30
0.0
  0
VERTEX
  5
62A
  8
CUT_15_5MM
 10
2099.038573094775
 20
1010.268060289316
 30
0.0
  0
VERTEX
  5
62B
  8
CUT_15_5MM
 10
2099.038573094782
 20
1120.268060289302
 30
0.0
  0
VERTEX
  5
62C
  8
CUT_15_5MM
 10
2088.705477870833
 20
1120.268060269085
 30
0.0
 42
-0.9999999999988306
  0
VERTEX
  5
62D
  8
CUT_15_5MM
 10
2084.038573115003
 20
1124.934965024919
 30
0.0
  0
VERTEX
  5
62E
  8
CUT_15_5MM
 10
2084.038573094782
 20
1127.768060289302
 30
0.0
  0
VERTEX
  5
62F
  8
CUT_15_5MM
 10
2044.038573094782
 20
1127.768060289302
 30
0.0
  0
SEQEND
  5
630
  8
CUT_15_5MM
  0
POLYLINE
  5
631
  8
CUT_15_5MM
 66
     1
 10
0.0
 20
0.0
 30
0.0
 70
     1
  0
VERTEX
  5
632
  8
CUT_15_5MM
 10
2367.498134641653
 20
681.1669047558358
 30
0.0
 42
1.000000000000999
  0
VERTEX
  5
633
  8
CUT_15_5MM
 10
2372.165039397482
 20
676.5000000000006
 30
0.0
  0
VERTEX
  5
634
  8
CUT_15_5MM
 10
2374.998134641646
 20
676.5000000000036
 30
0.0
  0
VERTEX
  5
635
  8
CUT_15_5MM
 10
2374.998134641646
 20
636.5000000000036
 30
0.0
  0
VERTEX
  5
636
  8
CUT_15_5MM
 10
2372.165039397485
 20
636.5000000000038
 30
0.0
 42
0.9999999999992205
  0
VERTEX
  5
637
  8
CUT_15_5MM
 10
2367.498134641645
 20
631.833095244172
 30
0.0
  0
VERTEX
  5
638
  8
CUT_15_5MM
 10
2367.498134641653
 20
308.6669047558372
 30
0.0
 42
1.000000000002862
  0
VERTEX
  5
639
  8
CUT_15_5MM
 10
2372.165039397489
 20
304.0000000000024
 30
0.0
  0
VERTEX
  5
63A
  8
CUT_15_5MM
 10
2374.998134641646
 20
304.0000000000036
 30
0.0
  0
VERTEX
  5
63B
  8
CUT_15_5MM
 10
2374.998134641646
 20
264.0000000000036
 30
0.0
  0
VERTEX
  5
63C
  8
CUT_15_5MM
 10
2372.165039397478
 20
264.0000000000035
 30
0.0
 42
0.9999999999993666
  0
VERTEX
  5
63D
  8
CUT_15_5MM
 10
2367.498134641652
 20
259.3330952441736
 30
0.0
  0
VERTEX
  5
63E
  8
CUT_15_5MM
 10
2367.498134641646
 20
85.25000000000364
 30
0.0
  0
VERTEX
  5
63F
  8
CUT_15_5MM
 10
2312.498134641646
 20
85.25000000000364
 30
0.0
  0
VERTEX
  5
640
  8
CUT_15_5MM
 10
2312.498134661866
 20
95.5830952239557
 30
0.0
 42
0.9999999999969124
  0
VERTEX
  5
641
  8
CUT_15_5MM
 10
2307.83122990603
 20
100.249999979785
 30
0.0
  0
VERTEX
  5
642
  8
CUT_15_5MM
 10
2257.498134641661
 20
100.2500000000036
 30
0.0
  0
VERTEX
  5
643
  8
CUT_15_5MM
 10
2257.498134661874
 20
259.3330952239555
 30
0.0
 42
0.9999999999975396
  0
VERTEX
  5
644
  8
CUT_15_5MM
 10
2252.831229906045
 20
263.9999999797849
 30
0.0
  0
VERTEX
  5
645
  8
CUT_15_5MM
 10
2249.998134641646
 20
264.0000000000036
 30
0.0
  0
VERTEX
  5
646
  8
CUT_15_5MM
 10
2249.998134641646
 20
304.0000000000036
 30
0.0
  0
VERTEX
  5
647
  8
CUT_15_5MM
 10
2252.831229865609
 20
303.9999999797831
 30
0.0
 42
0.9999999999990986
  0
VERTEX
  5
648
  8
CUT_15_5MM
 10
2257.498134621439
 20
308.666904735619
 30
0.0
  0
VERTEX
  5
649
  8
CUT_15_5MM
 10
2257.498134641661
 20
462.7500000000036
 30
0.0
  0
VERTEX
  5
64A
  8
CUT_15_5MM
 10
2307.831229865595
 20
462.7499999797838
 30
0.0
 42
0.9999999999986845
  0
VERTEX
  5
64B
  8
CUT_15_5MM
 10
2312.498134621437
 20
467.4169047356185
 30
0.0
  0
VERTEX
  5
64C
  8
CUT_15_5MM
 10
2312.498134661867
 20
473.0830952239554
 30
0.0
 42
0.9999999999969672
  0
VERTEX
  5
64D
  8
CUT_15_5MM
 10
2307.831229906029
 20
477.749999979785
 30
0.0
  0
VERTEX
  5
64E
  8
CUT_15_5MM
 10
2257.498134641661
 20
477.7500000000036
 30
0.0
  0
VERTEX
  5
64F
  8
CUT_15_5MM
 10
2257.498134661873
 20
631.8330952239556
 30
0.0
 42
1.000000000001462
  0
VERTEX
  5
650
  8
CUT_15_5MM
 10
2252.831229906043
 20
636.4999999797795
 30
0.0
  0
VERTEX
  5
651
  8
CUT_15_5MM
 10
2249.998134641646
 20
636.5000000000036
 30
0.0
  0
VERTEX
  5
652
  8
CUT_15_5MM
 10
2249.998134641646
 20
676.5000000000036
 30
0.0
  0
VERTEX
  5
653
  8
CUT_15_5MM
 10
2252.831229865609
 20
676.4999999797836
 30
0.0
 42
0.9999999999971255
  0
VERTEX
  5
654
  8
CUT_15_5MM
 10
2257.498134621436
 20
681.1669047356114
 30
0.0
  0
VERTEX
  5
655
  8
CUT_15_5MM
 10
2257.498134641661
 20
840.2500000000036
 30
0.0
  0
VERTEX
  5
656
  8
CUT_15_5MM
 10
2307.831229865594
 20
840.2499999797814
 30
0.0
 42
0.999999999998246
  0
VERTEX
  5
657
  8
CUT_15_5MM
 10
2312.498134621425
 20
844.9169047356155
 30
0.0
  0
VERTEX
  5
658
  8
CUT_15_5MM
 10
2312.498134641646
 20
855.2500000000036
 30
0.0
  0
VERTEX
  5
659
  8
CUT_15_5MM
 10
2367.498134641646
 20
855.2500000000036
 30
0.0
  0
SEQEND
  5
65A
  8
CUT_15_5MM
  0
POLYLINE
  5
65B
  8
LOGO_VCARVE
 66
     1
 10
0.0
 20
0.0
 30
0.0
 70
     1
  0
VERTEX
  5
65C
  8
LOGO_VCARVE
 10
2342.79744056359
 20
477.9614869886227
 30
0.0
  0
VERTEX
  5
65D
  8
LOGO_VCARVE
 10
2340.319685148803
 20
475.4848251515141
 30
0.0
  0
VERTEX
  5
65E
  8
LOGO_VCARVE
 10
2340.319685148803
 20
465.7574516383538
 30
0.0
  0
VERTEX
  5
65F
  8
LOGO_VCARVE
 10
2342.79744056359
 20
468.2349154324293
 30
0.0
  0
SEQEND
  5
660
  8
LOGO_VCARVE
  0
POLYLINE
  5
661
  8
LOGO_VCARVE
 66
     1
 10
0.0
 20
0.0
 30
0.0
 70
     1
  0
VERTEX
  5
662
  8
LOGO_VCARVE
 10
2324.996277774582
 20
462.5359832016802
 30
0.0
  0
VERTEX
  5
663
  8
LOGO_VCARVE
 10
2327.148730280504
 20
464.6891647593875
 30
0.0
  0
VERTEX
  5
664
  8
LOGO_VCARVE
 10
2327.148730280504
 20
464.6904770526126
 30
0.0
  0
VERTEX
  5
665
  8
LOGO_VCARVE
 10
2327.206908613385
 20
464.7508425408596
 30
0.0
  0
VERTEX
  5
666
  8
LOGO_VCARVE
 10
2327.313641795496
 20
464.8558259986712
 30
0.0
  0
VERTEX
  5
667
  8
LOGO_VCARVE
 10
2324.996277774582
 20
467.173554545474
 30
0.0
  0
SEQEND
  5
668
  8
LOGO_VCARVE
  0
POLYLINE
  5
669
  8
LOGO_VCARVE
 66
     1
 10
0.0
 20
0.0
 30
0.0
 70
     1
  0
VERTEX
  5
66A
  8
LOGO_VCARVE
 10
2351.9768222985
 20
465.2354141038559
 30
0.0
  0
VERTEX
  5
66B
  8
LOGO_VCARVE
 10
2354.451078264698
 20
467.7090868286177
 30
0.0
  0
VERTEX
  5
66C
  8
LOGO_VCARVE
 10
2343.356368118679
 20
467.7090868286159
 30
0.0
  0
VERTEX
  5
66D
  8
LOGO_VCARVE
 10
2340.881237290349
 20
465.2354141038559
 30
0.0
  0
SEQEND
  5
66E
  8
LOGO_VCARVE
  0
POLYLINE
  5
66F
  8
LOGO_VCARVE
 66
     1
 10
0.0
 20
0.0
 30
0.0
 70
     1
  0
VERTEX
  5
670
  8
LOGO_VCARVE
 10
2354.996277774582
 20
467.1678752320258
 30
0.0
  0
VERTEX
  5
671
  8
LOGO_VCARVE
 10
2352.678111796704
 20
464.849927969688
 30
0.0
  0
VERTEX
  5
672
  8
LOGO_VCARVE
 10
2354.996277774582
 20
462.5319807073538
 30
0.0
  0
SEQEND
  5
673
  8
LOGO_VCARVE
  0
POLYLINE
  5
674
  8
LOGO_VCARVE
 66
     1
 10
0.0
 20
0.0
 30
0.0
 70
     1
  0
VERTEX
  5
675
  8
LOGO_VCARVE
 10
2324.996409003914
 20
468.2591418234224
 30
0.0
  0
VERTEX
  5
676
  8
LOGO_VCARVE
 10
2327.478830350155
 20
465.7757727098469
 30
0.0
  0
VERTEX
  5
677
  8
LOGO_VCARVE
 10
2327.478830350155
 20
475.4930124031198
 30
0.0
  0
VERTEX
  5
678
  8
LOGO_VCARVE
 10
2324.996409003914
 20
477.9761628011547
 30
0.0
  0
SEQEND
  5
679
  8
LOGO_VCARVE
  0
POLYLINE
  5
67A
  8
LOGO_VCARVE
 66
     1
 10
0.0
 20
0.0
 30
0.0
 70
     1
  0
VERTEX
  5
67B
  8
LOGO_VCARVE
 10
2339.550141821979
 20
475.4825723814829
 30
0.0
  0
VERTEX
  5
67C
  8
LOGO_VCARVE
 10
2337.076542002396
 20
477.9572657787521
 30
0.0
  0
VERTEX
  5
67D
  8
LOGO_VCARVE
 10
2337.076542002396
 20
468.2481914655327
 30
0.0
  0
VERTEX
  5
67E
  8
LOGO_VCARVE
 10
2339.550141821979
 20
465.7755394132764
 30
0.0
  0
SEQEND
  5
67F
  8
LOGO_VCARVE
  0
POLYLINE
  5
680
  8
LOGO_VCARVE
 66
     1
 10
0.0
 20
0.0
 30
0.0
 70
     1
  0
VERTEX
  5
681
  8
LOGO_VCARVE
 10
2327.862902123845
 20
476.1943675159837
 30
0.0
  0
VERTEX
  5
682
  8
LOGO_VCARVE
 10
2330.178297704915
 20
478.5100547177717
 30
0.0
  0
VERTEX
  5
683
  8
LOGO_VCARVE
 10
2325.550058224035
 20
478.5100547177717
 30
0.0
  0
SEQEND
  5
684
  8
LOGO_VCARVE
  0
POLYLINE
  5
685
  8
LOGO_VCARVE
 66
     1
 10
0.0
 20
0.0
 30
0.0
 70
     1
  0
VERTEX
  5
686
  8
LOGO_VCARVE
 10
2339.934082366352
 20
476.1861438117885
 30
0.0
  0
VERTEX
  5
687
  8
LOGO_VCARVE
 10
2342.257497517116
 20
478.5097776780949
 30
0.0
  0
VERTEX
  5
688
  8
LOGO_VCARVE
 10
2337.609646543075
 20
478.5097776780931
 30
0.0
  0
SEQEND
  5
689
  8
LOGO_VCARVE
  0
POLYLINE
  5
68A
  8
LOGO_VCARVE
 66
     1
 10
0.0
 20
0.0
 30
0.0
 70
     1
  0
VERTEX
  5
68B
  8
LOGO_VCARVE
 10
2354.452973799358
 20
461.989945282241
 30
0.0
  0
VERTEX
  5
68C
  8
LOGO_VCARVE
 10
2351.9768222985
 20
464.4648573950435
 30
0.0
  0
VERTEX
  5
68D
  8
LOGO_VCARVE
 10
2328.012233802074
 20
464.4648573950435
 30
0.0
  0
VERTEX
  5
68E
  8
LOGO_VCARVE
 10
2325.534770008002
 20
461.9899452822392
 30
0.0
  0
SEQEND
  5
68F
  8
LOGO_VCARVE
  0
POLYLINE
  5
690
  8
LOGO_VCARVE
 66
     1
 10
0.0
 20
0.0
 30
0.0
 70
     1
  0
VERTEX
  5
691
  8
LOGO_VCARVE
 10
2330.715973400322
 20
477.9606048359528
 30
0.0
  0
VERTEX
  5
692
  8
LOGO_VCARVE
 10
2328.245654313796
 20
475.4911606115711
 30
0.0
  0
VERTEX
  5
693
  8
LOGO_VCARVE
 10
2328.245654313796
 20
465.7890122903591
 30
0.0
  0
VERTEX
  5
694
  8
LOGO_VCARVE
 10
2330.715973400322
 20
468.2584565147408
 30
0.0
  0
SEQEND
  5
695
  8
LOGO_VCARVE
  0
POLYLINE
  5
696
  8
LOGO_VCARVE
 66
     1
 10
0.0
 20
0.0
 30
0.0
 70
     1
  0
VERTEX
  5
697
  8
LOGO_VCARVE
 10
2328.779181704507
 20
465.2354141038541
 30
0.0
  0
VERTEX
  5
698
  8
LOGO_VCARVE
 10
2339.003549823174
 20
465.2354141038559
 30
0.0
  0
VERTEX
  5
699
  8
LOGO_VCARVE
 10
2336.530824865738
 20
467.7090868286177
 30
0.0
  0
VERTEX
  5
69A
  8
LOGO_VCARVE
 10
2331.252708618922
 20
467.7090868286177
 30
0.0
  0
SEQEND
  5
69B
  8
LOGO_VCARVE
  0
POLYLINE
  5
69C
  8
LOGO_VCARVE
 66
     1
 10
0.0
 20
0.0
 30
0.0
 70
     1
  0
VERTEX
  5
69D
  8
LOGO_VCARVE
 10
2204.779181704514
 20
418.7354141038541
 30
0.0
  0
VERTEX
  5
69E
  8
LOGO_VCARVE
 10
2215.003549823181
 20
418.7354141038559
 30
0.0
  0
VERTEX
  5
69F
  8
LOGO_VCARVE
 10
2212.530824865746
 20
421.2090868286177
 30
0.0
  0
VERTEX
  5
6A0
  8
LOGO_VCARVE
 10
2207.252708618922
 20
421.2090868286177
 30
0.0
  0
SEQEND
  5
6A1
  8
LOGO_VCARVE
  0
POLYLINE
  5
6A2
  8
LOGO_VCARVE
 66
     1
 10
0.0
 20
0.0
 30
0.0
 70
     1
  0
VERTEX
  5
6A3
  8
LOGO_VCARVE
 10
2206.715973400322
 20
431.4606048359528
 30
0.0
  0
VERTEX
  5
6A4
  8
LOGO_VCARVE
 10
2204.245654313803
 20
428.9911606115711
 30
0.0
  0
VERTEX
  5
6A5
  8
LOGO_VCARVE
 10
2204.245654313796
 20
419.2890122903573
 30
0.0
  0
VERTEX
  5
6A6
  8
LOGO_VCARVE
 10
2206.715973400329
 20
421.7584565147408
 30
0.0
  0
SEQEND
  5
6A7
  8
LOGO_VCARVE
  0
POLYLINE
  5
6A8
  8
LOGO_VCARVE
 66
     1
 10
0.0
 20
0.0
 30
0.0
 70
     1
  0
VERTEX
  5
6A9
  8
LOGO_VCARVE
 10
2230.452973799358
 20
415.489945282241
 30
0.0
  0
VERTEX
  5
6AA
  8
LOGO_VCARVE
 10
2227.976822298508
 20
417.9648573950435
 30
0.0
  0
VERTEX
  5
6AB
  8
LOGO_VCARVE
 10
2204.012233802074
 20
417.9648573950435
 30
0.0
  0
VERTEX
  5
6AC
  8
LOGO_VCARVE
 10
2201.534770008002
 20
415.4899452822392
 30
0.0
  0
SEQEND
  5
6AD
  8
LOGO_VCARVE
  0
POLYLINE
  5
6AE
  8
LOGO_VCARVE
 66
     1
 10
0.0
 20
0.0
 30
0.0
 70
     1
  0
VERTEX
  5
6AF
  8
LOGO_VCARVE
 10
2215.934082366352
 20
429.6861438117885
 30
0.0
  0
VERTEX
  5
6B0
  8
LOGO_VCARVE
 10
2218.257497517116
 20
432.0097776780949
 30
0.0
  0
VERTEX
  5
6B1
  8
LOGO_VCARVE
 10
2213.609646543082
 20
432.0097776780931
 30
0.0
  0
SEQEND
  5
6B2
  8
LOGO_VCARVE
  0
POLYLINE
  5
6B3
  8
LOGO_VCARVE
 66
     1
 10
0.0
 20
0.0
 30
0.0
 70
     1
  0
VERTEX
  5
6B4
  8
LOGO_VCARVE
 10
2203.862902123852
 20
429.6943675159837
 30
0.0
  0
VERTEX
  5
6B5
  8
LOGO_VCARVE
 10
2206.178297704922
 20
432.0100547177717
 30
0.0
  0
VERTEX
  5
6B6
  8
LOGO_VCARVE
 10
2201.550058224042
 20
432.0100547177699
 30
0.0
  0
SEQEND
  5
6B7
  8
LOGO_VCARVE
  0
POLYLINE
  5
6B8
  8
LOGO_VCARVE
 66
     1
 10
0.0
 20
0.0
 30
0.0
 70
     1
  0
VERTEX
  5
6B9
  8
LOGO_VCARVE
 10
2215.550141821986
 20
428.9825723814829
 30
0.0
  0
VERTEX
  5
6BA
  8
LOGO_VCARVE
 10
2213.076542002396
 20
431.4572657787521
 30
0.0
  0
VERTEX
  5
6BB
  8
LOGO_VCARVE
 10
2213.076542002404
 20
421.7481914655327
 30
0.0
  0
VERTEX
  5
6BC
  8
LOGO_VCARVE
 10
2215.550141821986
 20
419.2755394132764
 30
0.0
  0
SEQEND
  5
6BD
  8
LOGO_VCARVE
  0
POLYLINE
  5
6BE
  8
LOGO_VCARVE
 66
     1
 10
0.0
 20
0.0
 30
0.0
 70
     1
  0
VERTEX
  5
6BF
  8
LOGO_VCARVE
 10
2200.996409003914
 20
421.7591418234206
 30
0.0
  0
VERTEX
  5
6C0
  8
LOGO_VCARVE
 10
2203.478830350155
 20
419.2757727098469
 30
0.0
  0
VERTEX
  5
6C1
  8
LOGO_VCARVE
 10
2203.478830350163
 20
428.9930124031198
 30
0.0
  0
VERTEX
  5
6C2
  8
LOGO_VCARVE
 10
2200.996409003914
 20
431.4761628011547
 30
0.0
  0
SEQEND
  5
6C3
  8
LOGO_VCARVE
  0
POLYLINE
  5
6C4
  8
LOGO_VCARVE
 66
     1
 10
0.0
 20
0.0
 30
0.0
 70
     1
  0
VERTEX
  5
6C5
  8
LOGO_VCARVE
 10
2230.99627777459
 20
420.6678752320258
 30
0.0
  0
VERTEX
  5
6C6
  8
LOGO_VCARVE
 10
2228.678111796711
 20
418.349927969688
 30
0.0
  0
VERTEX
  5
6C7
  8
LOGO_VCARVE
 10
2230.99627777459
 20
416.0319807073538
 30
0.0
  0
SEQEND
  5
6C8
  8
LOGO_VCARVE
  0
POLYLINE
  5
6C9
  8
LOGO_VCARVE
 66
     1
 10
0.0
 20
0.0
 30
0.0
 70
     1
  0
VERTEX
  5
6CA
  8
LOGO_VCARVE
 10
2227.976822298508
 20
418.7354141038559
 30
0.0
  0
VERTEX
  5
6CB
  8
LOGO_VCARVE
 10
2230.451078264705
 20
421.2090868286177
 30
0.0
  0
VERTEX
  5
6CC
  8
LOGO_VCARVE
 10
2219.356368118686
 20
421.2090868286159
 30
0.0
  0
VERTEX
  5
6CD
  8
LOGO_VCARVE
 10
2216.881237290349
 20
418.7354141038559
 30
0.0
  0
SEQEND
  5
6CE
  8
LOGO_VCARVE
  0
POLYLINE
  5
6CF
  8
LOGO_VCARVE
 66
     1
 10
0.0
 20
0.0
 30
0.0
 70
     1
  0
VERTEX
  5
6D0
  8
LOGO_VCARVE
 10
2200.99627777459
 20
416.0359832016802
 30
0.0
  0
VERTEX
  5
6D1
  8
LOGO_VCARVE
 10
2203.148730280511
 20
418.1891647593875
 30
0.0
  0
VERTEX
  5
6D2
  8
LOGO_VCARVE
 10
2203.148730280511
 20
418.1904770526126
 30
0.0
  0
VERTEX
  5
6D3
  8
LOGO_VCARVE
 10
2203.206908613385
 20
418.2508425408578
 30
0.0
  0
VERTEX
  5
6D4
  8
LOGO_VCARVE
 10
2203.313641795496
 20
418.3558259986712
 30
0.0
  0
VERTEX
  5
6D5
  8
LOGO_VCARVE
 10
2200.99627777459
 20
420.673554545474
 30
0.0
  0
SEQEND
  5
6D6
  8
LOGO_VCARVE
  0
POLYLINE
  5
6D7
  8
LOGO_VCARVE
 66
     1
 10
0.0
 20
0.0
 30
0.0
 70
     1
  0
VERTEX
  5
6D8
  8
LOGO_VCARVE
 10
2218.79744056359
 20
431.4614869886227
 30
0.0
  0
VERTEX
  5
6D9
  8
LOGO_VCARVE
 10
2216.319685148803
 20
428.9848251515141
 30
0.0
  0
VERTEX
  5
6DA
  8
LOGO_VCARVE
 10
2216.319685148803
 20
419.2574516383538
 30
0.0
  0
VERTEX
  5
6DB
  8
LOGO_VCARVE
 10
2218.79744056359
 20
421.7349154324293
 30
0.0
  0
SEQEND
  5
6DC
  8
LOGO_VCARVE
  0
POLYLINE
  5
6DD
  8
CUT_15_5MM
 66
     1
 10
0.0
 20
0.0
 30
0.0
 70
     1
  0
VERTEX
  5
6DE
  8
CUT_15_5MM
 10
2243.498134641653
 20
634.6669047558358
 30
0.0
 42
1.000000000000999
  0
VERTEX
  5
6DF
  8
CUT_15_5MM
 10
2248.165039397482
 20
630.0000000000006
 30
0.0
  0
VERTEX
  5
6E0
  8
CUT_15_5MM
 10
2250.998134641653
 20
630.0000000000036
 30
0.0
  0
VERTEX
  5
6E1
  8
CUT_15_5MM
 10
2250.998134641653
 20
590.0000000000036
 30
0.0
  0
VERTEX
  5
6E2
  8
CUT_15_5MM
 10
2248.165039397485
 20
590.0000000000033
 30
0.0
 42
0.999999999998587
  0
VERTEX
  5
6E3
  8
CUT_15_5MM
 10
2243.498134641653
 20
585.333095244172
 30
0.0
  0
VERTEX
  5
6E4
  8
CUT_15_5MM
 10
2243.498134641661
 20
262.1669047558372
 30
0.0
 42
1.000000000003642
  0
VERTEX
  5
6E5
  8
CUT_15_5MM
 10
2248.165039397489
 20
257.5000000000024
 30
0.0
  0
VERTEX
  5
6E6
  8
CUT_15_5MM
 10
2250.998134641653
 20
257.5000000000036
 30
0.0
  0
VERTEX
  5
6E7
  8
CUT_15_5MM
 10
2250.998134641653
 20
217.5000000000036
 30
0.0
  0
VERTEX
  5
6E8
  8
CUT_15_5MM
 10
2248.165039397485
 20
217.5000000000035
 30
0.0
 42
0.9999999999993788
  0
VERTEX
  5
6E9
  8
CUT_15_5MM
 10
2243.498134641659
 20
212.8330952441736
 30
0.0
  0
VERTEX
  5
6EA
  8
CUT_15_5MM
 10
2243.498134641646
 20
38.75000000000364
 30
0.0
  0
VERTEX
  5
6EB
  8
CUT_15_5MM
 10
2188.498134641646
 20
38.75000000000364
 30
0.0
  0
VERTEX
  5
6EC
  8
CUT_15_5MM
 10
2188.498134661873
 20
49.0830952239557
 30
0.0
 42
0.9999999999969124
  0
VERTEX
  5
6ED
  8
CUT_15_5MM
 10
2183.831229906037
 20
53.74999997978497
 30
0.0
  0
VERTEX
  5
6EE
  8
CUT_15_5MM
 10
2133.498134641661
 20
53.75000000000364
 30
0.0
  0
VERTEX
  5
6EF
  8
CUT_15_5MM
 10
2133.498134661873
 20
212.8330952239558
 30
0.0
 42
0.9999999999976005
  0
VERTEX
  5
6F0
  8
CUT_15_5MM
 10
2128.831229906045
 20
217.4999999797849
 30
0.0
  0
VERTEX
  5
6F1
  8
CUT_15_5MM
 10
2125.998134641653
 20
217.5000000000036
 30
0.0
  0
VERTEX
  5
6F2
  8
CUT_15_5MM
 10
2125.998134641653
 20
257.5000000000036
 30
0.0
  0
VERTEX
  5
6F3
  8
CUT_15_5MM
 10
2128.831229865609
 20
257.4999999797831
 30
0.0
 42
0.9999999999998782
  0
VERTEX
  5
6F4
  8
CUT_15_5MM
 10
2133.498134621447
 20
262.166904735619
 30
0.0
  0
VERTEX
  5
6F5
  8
CUT_15_5MM
 10
2133.498134641668
 20
416.2500000000036
 30
0.0
  0
VERTEX
  5
6F6
  8
CUT_15_5MM
 10
2183.831229865602
 20
416.2499999797842
 30
0.0
 42
0.9999999999980512
  0
VERTEX
  5
6F7
  8
CUT_15_5MM
 10
2188.498134621437
 20
420.9169047356185
 30
0.0
  0
VERTEX
  5
6F8
  8
CUT_15_5MM
 10
2188.498134661874
 20
426.5830952239554
 30
0.0
 42
0.9999999999969672
  0
VERTEX
  5
6F9
  8
CUT_15_5MM
 10
2183.831229906036
 20
431.249999979785
 30
0.0
  0
VERTEX
  5
6FA
  8
CUT_15_5MM
 10
2133.498134641661
 20
431.2500000000036
 30
0.0
  0
VERTEX
  5
6FB
  8
CUT_15_5MM
 10
2133.498134661873
 20
585.3330952239556
 30
0.0
 42
1.000000000002241
  0
VERTEX
  5
6FC
  8
CUT_15_5MM
 10
2128.83122990605
 20
589.9999999797795
 30
0.0
  0
VERTEX
  5
6FD
  8
CUT_15_5MM
 10
2125.998134641653
 20
590.0000000000036
 30
0.0
  0
VERTEX
  5
6FE
  8
CUT_15_5MM
 10
2125.998134641653
 20
630.0000000000036
 30
0.0
  0
VERTEX
  5
6FF
  8
CUT_15_5MM
 10
2128.831229865609
 20
629.9999999797818
 30
0.0
 42
0.9999999999977102
  0
VERTEX
  5
700
  8
CUT_15_5MM
 10
2133.498134621444
 20
634.6669047356114
 30
0.0
  0
VERTEX
  5
701
  8
CUT_15_5MM
 10
2133.498134641668
 20
793.7500000000036
 30
0.0
  0
VERTEX
  5
702
  8
CUT_15_5MM
 10
2183.831229865601
 20
793.7499999797814
 30
0.0
 42
0.999999999998246
  0
VERTEX
  5
703
  8
CUT_15_5MM
 10
2188.498134621432
 20
798.4169047356155
 30
0.0
  0
VERTEX
  5
704
  8
CUT_15_5MM
 10
2188.498134641653
 20
808.7500000000036
 30
0.0
  0
VERTEX
  5
705
  8
CUT_15_5MM
 10
2243.498134641653
 20
808.7500000000036
 30
0.0
  0
SEQEND
  5
706
  8
CUT_15_5MM
  0
POLYLINE
  5
707
  8
CUT_15_5MM
 66
     1
 10
0.0
 20
0.0
 30
0.0
 70
     1
  0
VERTEX
  5
708
  8
CUT_15_5MM
 10
2119.498134648362
 20
681.1669047558358
 30
0.0
 42
1.000000000000999
  0
VERTEX
  5
709
  8
CUT_15_5MM
 10
2124.165039404191
 20
676.5000000000006
 30
0.0
  0
VERTEX
  5
70A
  8
CUT_15_5MM
 10
2126.998134648355
 20
676.5000000000036
 30
0.0
  0
VERTEX
  5
70B
  8
CUT_15_5MM
 10
2126.998134648355
 20
636.5000000000036
 30
0.0
  0
VERTEX
  5
70C
  8
CUT_15_5MM
 10
2124.165039404186
 20
636.5000000000032
 30
0.0
 42
0.999999999998587
  0
VERTEX
  5
70D
  8
CUT_15_5MM
 10
2119.498134648354
 20
631.833095244172
 30
0.0
  0
VERTEX
  5
70E
  8
CUT_15_5MM
 10
2119.498134648355
 20
308.6669047558372
 30
0.0
 42
1.000000000002862
  0
VERTEX
  5
70F
  8
CUT_15_5MM
 10
2124.16503940419
 20
304.0000000000024
 30
0.0
  0
VERTEX
  5
710
  8
CUT_15_5MM
 10
2126.998134648355
 20
304.0000000000036
 30
0.0
  0
VERTEX
  5
711
  8
CUT_15_5MM
 10
2126.998134648355
 20
264.0000000000036
 30
0.0
  0
VERTEX
  5
712
  8
CUT_15_5MM
 10
2124.165039404179
 20
264.0000000000035
 30
0.0
 42
0.9999999999986359
  0
VERTEX
  5
713
  8
CUT_15_5MM
 10
2119.49813464836
 20
259.3330952441736
 30
0.0
  0
VERTEX
  5
714
  8
CUT_15_5MM
 10
2119.498134648347
 20
85.25000000000364
 30
0.0
  0
VERTEX
  5
715
  8
CUT_15_5MM
 10
2064.498134648347
 20
85.25000000000364
 30
0.0
  0
VERTEX
  5
716
  8
CUT_15_5MM
 10
2064.498134668567
 20
95.58309522395615
 30
0.0
 42
0.9999999999975456
  0
VERTEX
  5
717
  8
CUT_15_5MM
 10
2059.831229912738
 20
100.249999979785
 30
0.0
  0
VERTEX
  5
718
  8
CUT_15_5MM
 10
2009.498134648362
 20
100.2500000000036
 30
0.0
  0
VERTEX
  5
719
  8
CUT_15_5MM
 10
2009.498134668582
 20
259.3330952239558
 30
0.0
 42
0.9999999999968697
  0
VERTEX
  5
71A
  8
CUT_15_5MM
 10
2004.831229912746
 20
263.9999999797849
 30
0.0
  0
VERTEX
  5
71B
  8
CUT_15_5MM
 10
2001.998134648355
 20
264.0000000000036
 30
0.0
  0
VERTEX
  5
71C
  8
CUT_15_5MM
 10
2001.998134648355
 20
304.0000000000036
 30
0.0
  0
VERTEX
  5
71D
  8
CUT_15_5MM
 10
2004.831229872318
 20
303.9999999797836
 30
0.0
 42
0.9999999999981485
  0
VERTEX
  5
71E
  8
CUT_15_5MM
 10
2009.498134628141
 20
308.666904735619
 30
0.0
  0
VERTEX
  5
71F
  8
CUT_15_5MM
 10
2009.498134648369
 20
462.7500000000036
 30
0.0
  0
VERTEX
  5
720
  8
CUT_15_5MM
 10
2059.831229872304
 20
462.7499999797843
 30
0.0
 42
0.9999999999988306
  0
VERTEX
  5
721
  8
CUT_15_5MM
 10
2064.498134628145
 20
467.4169047356185
 30
0.0
  0
VERTEX
  5
722
  8
CUT_15_5MM
 10
2064.498134668567
 20
473.0830952239558
 30
0.0
 42
0.9999999999976005
  0
VERTEX
  5
723
  8
CUT_15_5MM
 10
2059.831229912737
 20
477.749999979785
 30
0.0
  0
VERTEX
  5
724
  8
CUT_15_5MM
 10
2009.498134648369
 20
477.7500000000036
 30
0.0
  0
VERTEX
  5
725
  8
CUT_15_5MM
 10
2009.498134668574
 20
631.8330952239559
 30
0.0
 42
1.000000000001535
  0
VERTEX
  5
726
  8
CUT_15_5MM
 10
2004.831229912744
 20
636.4999999797795
 30
0.0
  0
VERTEX
  5
727
  8
CUT_15_5MM
 10
2001.998134648355
 20
636.5000000000036
 30
0.0
  0
VERTEX
  5
728
  8
CUT_15_5MM
 10
2001.998134648355
 20
676.5000000000036
 30
0.0
  0
VERTEX
  5
729
  8
CUT_15_5MM
 10
2004.831229872318
 20
676.4999999797818
 30
0.0
 42
0.9999999999967356
  0
VERTEX
  5
72A
  8
CUT_15_5MM
 10
2009.498134628144
 20
681.1669047356114
 30
0.0
  0
VERTEX
  5
72B
  8
CUT_15_5MM
 10
2009.498134648369
 20
840.2500000000036
 30
0.0
  0
VERTEX
  5
72C
  8
CUT_15_5MM
 10
2059.831229872303
 20
840.2499999797816
 30
0.0
 42
0.9999999999974177
  0
VERTEX
  5
72D
  8
CUT_15_5MM
 10
2064.498134628126
 20
844.9169047356155
 30
0.0
  0
VERTEX
  5
72E
  8
CUT_15_5MM
 10
2064.498134648355
 20
855.2500000000036
 30
0.0
  0
VERTEX
  5
72F
  8
CUT_15_5MM
 10
2119.498134648355
 20
855.2500000000036
 30
0.0
  0
SEQEND
  5
730
  8
CUT_15_5MM
  0
POLYLINE
  5
731
  8
LOGO_VCARVE
 66
     1
 10
0.0
 20
0.0
 30
0.0
 70
     1
  0
VERTEX
  5
732
  8
LOGO_VCARVE
 10
2094.797440570292
 20
477.9614869886227
 30
0.0
  0
VERTEX
  5
733
  8
LOGO_VCARVE
 10
2092.319685155504
 20
475.4848251515141
 30
0.0
  0
VERTEX
  5
734
  8
LOGO_VCARVE
 10
2092.319685155504
 20
465.7574516383538
 30
0.0
  0
VERTEX
  5
735
  8
LOGO_VCARVE
 10
2094.797440570292
 20
468.2349154324293
 30
0.0
  0
SEQEND
  5
736
  8
LOGO_VCARVE
  0
POLYLINE
  5
737
  8
LOGO_VCARVE
 66
     1
 10
0.0
 20
0.0
 30
0.0
 70
     1
  0
VERTEX
  5
738
  8
LOGO_VCARVE
 10
2076.996277781291
 20
462.5359832016802
 30
0.0
  0
VERTEX
  5
739
  8
LOGO_VCARVE
 10
2079.148730287212
 20
464.6891647593875
 30
0.0
  0
VERTEX
  5
73A
  8
LOGO_VCARVE
 10
2079.148730287212
 20
464.6904770526126
 30
0.0
  0
VERTEX
  5
73B
  8
LOGO_VCARVE
 10
2079.206908620086
 20
464.7508425408578
 30
0.0
  0
VERTEX
  5
73C
  8
LOGO_VCARVE
 10
2079.313641802197
 20
464.8558259986712
 30
0.0
  0
VERTEX
  5
73D
  8
LOGO_VCARVE
 10
2076.996277781291
 20
467.173554545474
 30
0.0
  0
SEQEND
  5
73E
  8
LOGO_VCARVE
  0
POLYLINE
  5
73F
  8
LOGO_VCARVE
 66
     1
 10
0.0
 20
0.0
 30
0.0
 70
     1
  0
VERTEX
  5
740
  8
LOGO_VCARVE
 10
2103.976822305209
 20
465.2354141038559
 30
0.0
  0
VERTEX
  5
741
  8
LOGO_VCARVE
 10
2106.451078271406
 20
467.7090868286177
 30
0.0
  0
VERTEX
  5
742
  8
LOGO_VCARVE
 10
2095.356368125387
 20
467.7090868286159
 30
0.0
  0
VERTEX
  5
743
  8
LOGO_VCARVE
 10
2092.88123729705
 20
465.2354141038559
 30
0.0
  0
SEQEND
  5
744
  8
LOGO_VCARVE
  0
POLYLINE
  5
745
  8
LOGO_VCARVE
 66
     1
 10
0.0
 20
0.0
 30
0.0
 70
     1
  0
VERTEX
  5
746
  8
LOGO_VCARVE
 10
2106.996277781291
 20
467.1678752320258
 30
0.0
  0
VERTEX
  5
747
  8
LOGO_VCARVE
 10
2104.678111803412
 20
464.849927969688
 30
0.0
  0
VERTEX
  5
748
  8
LOGO_VCARVE
 10
2106.996277781291
 20
462.5319807073538
 30
0.0
  0
SEQEND
  5
749
  8
LOGO_VCARVE
  0
POLYLINE
  5
74A
  8
LOGO_VCARVE
 66
     1
 10
0.0
 20
0.0
 30
0.0
 70
     1
  0
VERTEX
  5
74B
  8
LOGO_VCARVE
 10
2076.996409010615
 20
468.2591418234206
 30
0.0
  0
VERTEX
  5
74C
  8
LOGO_VCARVE
 10
2079.478830356857
 20
465.7757727098469
 30
0.0
  0
VERTEX
  5
74D
  8
LOGO_VCARVE
 10
2079.478830356864
 20
475.4930124031198
 30
0.0
  0
VERTEX
  5
74E
  8
LOGO_VCARVE
 10
2076.996409010615
 20
477.9761628011547
 30
0.0
  0
SEQEND
  5
74F
  8
LOGO_VCARVE
  0
POLYLINE
  5
750
  8
LOGO_VCARVE
 66
     1
 10
0.0
 20
0.0
 30
0.0
 70
     1
  0
VERTEX
  5
751
  8
LOGO_VCARVE
 10
2091.550141828688
 20
475.4825723814829
 30
0.0
  0
VERTEX
  5
752
  8
LOGO_VCARVE
 10
2089.076542009097
 20
477.9572657787521
 30
0.0
  0
VERTEX
  5
753
  8
LOGO_VCARVE
 10
2089.076542009105
 20
468.2481914655327
 30
0.0
  0
VERTEX
  5
754
  8
LOGO_VCARVE
 10
2091.550141828688
 20
465.7755394132764
 30
0.0
  0
SEQEND
  5
755
  8
LOGO_VCARVE
  0
POLYLINE
  5
756
  8
LOGO_VCARVE
 66
     1
 10
0.0
 20
0.0
 30
0.0
 70
     1
  0
VERTEX
  5
757
  8
LOGO_VCARVE
 10
2079.862902130553
 20
476.1943675159837
 30
0.0
  0
VERTEX
  5
758
  8
LOGO_VCARVE
 10
2082.178297711624
 20
478.5100547177717
 30
0.0
  0
VERTEX
  5
759
  8
LOGO_VCARVE
 10
2077.550058230743
 20
478.5100547177699
 30
0.0
  0
SEQEND
  5
75A
  8
LOGO_VCARVE
  0
POLYLINE
  5
75B
  8
LOGO_VCARVE
 66
     1
 10
0.0
 20
0.0
 30
0.0
 70
     1
  0
VERTEX
  5
75C
  8
LOGO_VCARVE
 10
2091.934082373053
 20
476.1861438117885
 30
0.0
  0
VERTEX
  5
75D
  8
LOGO_VCARVE
 10
2094.257497523817
 20
478.5097776780949
 30
0.0
  0
VERTEX
  5
75E
  8
LOGO_VCARVE
 10
2089.609646549783
 20
478.5097776780931
 30
0.0
  0
SEQEND
  5
75F
  8
LOGO_VCARVE
  0
POLYLINE
  5
760
  8
LOGO_VCARVE
 66
     1
 10
0.0
 20
0.0
 30
0.0
 70
     1
  0
VERTEX
  5
761
  8
LOGO_VCARVE
 10
2106.452973806059
 20
461.989945282241
 30
0.0
  0
VERTEX
  5
762
  8
LOGO_VCARVE
 10
2103.976822305209
 20
464.4648573950435
 30
0.0
  0
VERTEX
  5
763
  8
LOGO_VCARVE
 10
2080.012233808775
 20
464.4648573950435
 30
0.0
  0
VERTEX
  5
764
  8
LOGO_VCARVE
 10
2077.534770014703
 20
461.9899452822392
 30
0.0
  0
SEQEND
  5
765
  8
LOGO_VCARVE
  0
POLYLINE
  5
766
  8
LOGO_VCARVE
 66
     1
 10
0.0
 20
0.0
 30
0.0
 70
     1
  0
VERTEX
  5
767
  8
LOGO_VCARVE
 10
2082.715973407023
 20
477.9606048359528
 30
0.0
  0
VERTEX
  5
768
  8
LOGO_VCARVE
 10
2080.245654320504
 20
475.4911606115711
 30
0.0
  0
VERTEX
  5
769
  8
LOGO_VCARVE
 10
2080.245654320497
 20
465.7890122903573
 30
0.0
  0
VERTEX
  5
76A
  8
LOGO_VCARVE
 10
2082.71597340703
 20
468.2584565147408
 30
0.0
  0
SEQEND
  5
76B
  8
LOGO_VCARVE
  0
POLYLINE
  5
76C
  8
LOGO_VCARVE
 66
     1
 10
0.0
 20
0.0
 30
0.0
 70
     1
  0
VERTEX
  5
76D
  8
LOGO_VCARVE
 10
2080.779181711216
 20
465.2354141038541
 30
0.0
  0
VERTEX
  5
76E
  8
LOGO_VCARVE
 10
2091.003549829882
 20
465.2354141038559
 30
0.0
  0
VERTEX
  5
76F
  8
LOGO_VCARVE
 10
2088.530824872447
 20
467.7090868286177
 30
0.0
  0
VERTEX
  5
770
  8
LOGO_VCARVE
 10
2083.252708625623
 20
467.7090868286177
 30
0.0
  0
SEQEND
  5
771
  8
LOGO_VCARVE
  0
POLYLINE
  5
772
  8
CUT_15_5MM
 66
     1
 10
0.0
 20
0.0
 30
0.0
 70
     1
  0
VERTEX
  5
773
  8
CUT_15_5MM
 10
1809.000000025119
 20
296.5000000202126
 30
0.0
 42
-0.4142135623719376
  0
VERTEX
  5
774
  8
CUT_15_5MM
 10
1813.66690478095
 20
296.5000000202161
 30
0.0
  0
VERTEX
  5
775
  8
CUT_15_5MM
 10
1863.998768506732
 20
296.4999999999927
 30
0.0
  0
VERTEX
  5
776
  8
CUT_15_5MM
 10
1863.999357461958
 20
399.0828515213361
 30
0.0
 42
-0.9999942587466378
  0
VERTEX
  5
777
  8
CUT_15_5MM
 10
1868.6662756551
 20
403.7497428396421
 30
0.0
  0
VERTEX
  5
778
  8
CUT_15_5MM
 10
1871.500000004889
 20
403.7497428396491
 30
0.0
  0
VERTEX
  5
779
  8
CUT_15_5MM
 10
1871.500000004889
 20
443.7497428396491
 30
0.0
  0
VERTEX
  5
77A
  8
CUT_15_5MM
 10
1868.666279920362
 20
443.7497428396492
 30
0.0
 42
-0.9999961212819768
  0
VERTEX
  5
77B
  8
CUT_15_5MM
 10
1863.999366154192
 20
448.4166385850502
 30
0.0
  0
VERTEX
  5
77C
  8
CUT_15_5MM
 10
1863.998768506732
 20
602.4999999999927
 30
0.0
  0
VERTEX
  5
77D
  8
CUT_15_5MM
 10
1813.666904740501
 20
602.5000000202164
 30
0.0
 42
-1.00000000000687
  0
VERTEX
  5
77E
  8
CUT_15_5MM
 10
1808.999999984678
 20
607.1669047760456
 30
0.0
  0
VERTEX
  5
77F
  8
CUT_15_5MM
 10
1809.000000025124
 20
612.8330952643922
 30
0.0
 42
-1.000000000003678
  0
VERTEX
  5
780
  8
CUT_15_5MM
 10
1813.666904780963
 20
617.500000020219
 30
0.0
  0
VERTEX
  5
781
  8
CUT_15_5MM
 10
1863.998768506732
 20
617.4999999999927
 30
0.0
  0
VERTEX
  5
782
  8
CUT_15_5MM
 10
1863.999366154137
 20
771.5828471753083
 30
0.0
 42
-0.9999961212659962
  0
VERTEX
  5
783
  8
CUT_15_5MM
 10
1868.666280001223
 20
776.2497428397985
 30
0.0
  0
VERTEX
  5
784
  8
CUT_15_5MM
 10
1871.500000004897
 20
776.2497428397983
 30
0.0
  0
VERTEX
  5
785
  8
CUT_15_5MM
 10
1871.500000004904
 20
816.2497428397983
 30
0.0
  0
VERTEX
  5
786
  8
CUT_15_5MM
 10
1868.666275574287
 20
816.2497428397983
 30
0.0
 42
-0.9999942587778798
  0
VERTEX
  5
787
  8
CUT_15_5MM
 10
1863.999357462097
 20
820.9166342390702
 30
0.0
  0
VERTEX
  5
788
  8
CUT_15_5MM
 10
1863.998768506739
 20
923.4999999999927
 30
0.0
  0
VERTEX
  5
789
  8
CUT_15_5MM
 10
1813.666904740516
 20
923.500000020209
 30
0.0
 42
-1.000000000002046
  0
VERTEX
  5
78A
  8
CUT_15_5MM
 10
1808.999999984684
 20
928.1669047760444
 30
0.0
  0
VERTEX
  5
78B
  8
CUT_15_5MM
 10
1809.000000025131
 20
933.833095264381
 30
0.0
 42
-0.9999999999971986
  0
VERTEX
  5
78C
  8
CUT_15_5MM
 10
1813.666904780959
 20
938.5000000202119
 30
0.0
  0
VERTEX
  5
78D
  8
CUT_15_5MM
 10
1863.998768506739
 20
938.4999999999927
 30
0.0
  0
VERTEX
  5
78E
  8
CUT_15_5MM
 10
1863.998768526959
 20
1038.804783876341
 30
0.0
 42
-0.9999999999964434
  0
VERTEX
  5
78F
  8
CUT_15_5MM
 10
1868.665673282794
 20
1043.471688632173
 30
0.0
  0
VERTEX
  5
790
  8
CUT_15_5MM
 10
1871.498768506739
 20
1043.471688611953
 30
0.0
  0
VERTEX
  5
791
  8
CUT_15_5MM
 10
1871.498768506739
 20
1083.471688611953
 30
0.0
  0
VERTEX
  5
792
  8
CUT_15_5MM
 10
1868.665673242343
 20
1083.471688632177
 30
0.0
 42
-0.9999999999976127
  0
VERTEX
  5
793
  8
CUT_15_5MM
 10
1863.99876848652
 20
1088.138593388006
 30
0.0
  0
VERTEX
  5
794
  8
CUT_15_5MM
 10
1863.998768506739
 20
1179.999999999993
 30
0.0
  0
VERTEX
  5
795
  8
CUT_15_5MM
 10
1813.666904740501
 20
1180.000000020213
 30
0.0
 42
-1.000000000001949
  0
VERTEX
  5
796
  8
CUT_15_5MM
 10
1808.999999984671
 20
1184.666904776055
 30
0.0
  0
VERTEX
  5
797
  8
CUT_15_5MM
 10
1809.000000004904
 20
1194.999999999993
 30
0.0
  0
VERTEX
  5
798
  8
CUT_15_5MM
 10
1754.000000004897
 20
1194.999999999993
 30
0.0
  0
VERTEX
  5
799
  8
CUT_15_5MM
 10
1754.000000032771
 20
1088.138593388005
 30
0.0
 42
-0.9999999999976613
  0
VERTEX
  5
79A
  8
CUT_15_5MM
 10
1749.333095276943
 20
1083.471688632178
 30
0.0
  0
VERTEX
  5
79B
  8
CUT_15_5MM
 10
1746.500000012551
 20
1083.471688611953
 30
0.0
  0
VERTEX
  5
79C
  8
CUT_15_5MM
 10
1746.500000012551
 20
1043.471688611953
 30
0.0
  0
VERTEX
  5
79D
  8
CUT_15_5MM
 10
1749.333095236492
 20
1043.471688632173
 30
0.0
 42
-1.000000000001169
  0
VERTEX
  5
79E
  8
CUT_15_5MM
 10
1753.999999992323
 20
1038.804783876343
 30
0.0
  0
VERTEX
  5
79F
  8
CUT_15_5MM
 10
1753.999411057193
 20
820.9166342390745
 30
0.0
 42
-0.9999942587770514
  0
VERTEX
  5
7A0
  8
CUT_15_5MM
 10
1749.332492945006
 20
816.2497428397982
 30
0.0
  0
VERTEX
  5
7A1
  8
CUT_15_5MM
 10
1746.498768514386
 20
816.2497428397983
 30
0.0
  0
VERTEX
  5
7A2
  8
CUT_15_5MM
 10
1746.498768514393
 20
776.2497428397983
 30
0.0
  0
VERTEX
  5
7A3
  8
CUT_15_5MM
 10
1749.33248851807
 20
776.2497428397982
 30
0.0
 42
-0.9999961212695285
  0
VERTEX
  5
7A4
  8
CUT_15_5MM
 10
1753.999402365158
 20
771.5828471753038
 30
0.0
  0
VERTEX
  5
7A5
  8
CUT_15_5MM
 10
1753.999402365094
 20
448.4166385850476
 30
0.0
 42
-0.9999961212784934
  0
VERTEX
  5
7A6
  8
CUT_15_5MM
 10
1749.332488598916
 20
443.7497428396476
 30
0.0
  0
VERTEX
  5
7A7
  8
CUT_15_5MM
 10
1746.498768514393
 20
443.7497428396491
 30
0.0
  0
VERTEX
  5
7A8
  8
CUT_15_5MM
 10
1746.498768514393
 20
403.7497428396491
 30
0.0
  0
VERTEX
  5
7A9
  8
CUT_15_5MM
 10
1749.332492864174
 20
403.7497428396455
 30
0.0
 42
-0.9999942587518632
  0
VERTEX
  5
7AA
  8
CUT_15_5MM
 10
1753.999411057323
 20
399.082851521336
 30
0.0
  0
VERTEX
  5
7AB
  8
CUT_15_5MM
 10
1754.000000032771
 20
181.1947018436911
 30
0.0
 42
-0.9999999999968819
  0
VERTEX
  5
7AC
  8
CUT_15_5MM
 10
1749.333095276945
 20
176.5277970878508
 30
0.0
  0
VERTEX
  5
7AD
  8
CUT_15_5MM
 10
1746.500000012551
 20
176.5277970676398
 30
0.0
  0
VERTEX
  5
7AE
  8
CUT_15_5MM
 10
1746.500000012551
 20
136.5277970676398
 30
0.0
  0
VERTEX
  5
7AF
  8
CUT_15_5MM
 10
1749.333095236507
 20
136.5277970878598
 30
0.0
 42
-0.99999999999676
  0
VERTEX
  5
7B0
  8
CUT_15_5MM
 10
1753.999999992345
 20
131.8608923320295
 30
0.0
  0
VERTEX
  5
7B1
  8
CUT_15_5MM
 10
1754.000000004889
 20
24.99999999999272
 30
0.0
  0
VERTEX
  5
7B2
  8
CUT_15_5MM
 10
1809.000000004889
 20
24.99999999999272
 30
0.0
  0
VERTEX
  5
7B3
  8
CUT_15_5MM
 10
1809.000000025102
 20
35.33309526437749
 30
0.0
 42
-1.000000000002511
  0
VERTEX
  5
7B4
  8
CUT_15_5MM
 10
1813.666904780927
 20
40.00000002021538
 30
0.0
  0
VERTEX
  5
7B5
  8
CUT_15_5MM
 10
1863.998768506732
 20
39.99999999999272
 30
0.0
  0
VERTEX
  5
7B6
  8
CUT_15_5MM
 10
1863.998768526937
 20
131.8608923320317
 30
0.0
 42
-0.9999999999982886
  0
VERTEX
  5
7B7
  8
CUT_15_5MM
 10
1868.665673282768
 20
136.5277970878569
 30
0.0
  0
VERTEX
  5
7B8
  8
CUT_15_5MM
 10
1871.498768506732
 20
136.5277970676398
 30
0.0
  0
VERTEX
  5
7B9
  8
CUT_15_5MM
 10
1871.498768506732
 20
176.5277970676398
 30
0.0
  0
VERTEX
  5
7BA
  8
CUT_15_5MM
 10
1868.665673242329
 20
176.5277970878561
 30
0.0
 42
-0.9999999999922534
  0
VERTEX
  5
7BB
  8
CUT_15_5MM
 10
1863.998768486511
 20
181.1947018436821
 30
0.0
  0
VERTEX
  5
7BC
  8
CUT_15_5MM
 10
1863.998768506732
 20
281.4999999999927
 30
0.0
  0
VERTEX
  5
7BD
  8
CUT_15_5MM
 10
1813.666904740501
 20
281.5000000202124
 30
0.0
 42
-0.9999999999979293
  0
VERTEX
  5
7BE
  8
CUT_15_5MM
 10
1808.999999984669
 20
286.1669047760416
 30
0.0
  0
VERTEX
  5
7BF
  8
CUT_15_5MM
 10
1809.000000025117
 20
291.8330952643882
 30
0.0
 42
-0.4142135623721118
  0
SEQEND
  5
7C0
  8
CUT_15_5MM
  0
POLYLINE
  5
7C1
  8
LOGO_VCARVE
 66
     1
 10
0.0
 20
0.0
 30
0.0
 70
     1
  0
VERTEX
  5
7C2
  8
LOGO_VCARVE
 10
1793.482401395886
 20
604.9854141038377
 30
0.0
  0
VERTEX
  5
7C3
  8
LOGO_VCARVE
 10
1795.956657362083
 20
607.4590868285995
 30
0.0
  0
VERTEX
  5
7C4
  8
LOGO_VCARVE
 10
1784.861947216064
 20
607.4590868285995
 30
0.0
  0
VERTEX
  5
7C5
  8
LOGO_VCARVE
 10
1782.38681638772
 20
604.9854141038413
 30
0.0
  0
SEQEND
  5
7C6
  8
LOGO_VCARVE
  0
POLYLINE
  5
7C7
  8
LOGO_VCARVE
 66
     1
 10
0.0
 20
0.0
 30
0.0
 70
     1
  0
VERTEX
  5
7C8
  8
LOGO_VCARVE
 10
1766.501988101285
 20
608.0091418234115
 30
0.0
  0
VERTEX
  5
7C9
  8
LOGO_VCARVE
 10
1768.984409447527
 20
605.525772709836
 30
0.0
  0
VERTEX
  5
7CA
  8
LOGO_VCARVE
 10
1768.984409447541
 20
615.2430124031089
 30
0.0
  0
VERTEX
  5
7CB
  8
LOGO_VCARVE
 10
1766.501988101285
 20
617.7261628011438
 30
0.0
  0
SEQEND
  5
7CC
  8
LOGO_VCARVE
  0
POLYLINE
  5
7CD
  8
LOGO_VCARVE
 66
     1
 10
0.0
 20
0.0
 30
0.0
 70
     1
  0
VERTEX
  5
7CE
  8
LOGO_VCARVE
 10
1770.284760801893
 20
604.9854141038413
 30
0.0
  0
VERTEX
  5
7CF
  8
LOGO_VCARVE
 10
1780.509128920559
 20
604.9854141038413
 30
0.0
  0
VERTEX
  5
7D0
  8
LOGO_VCARVE
 10
1778.036403963124
 20
607.4590868286068
 30
0.0
  0
VERTEX
  5
7D1
  8
LOGO_VCARVE
 10
1772.758287716293
 20
607.4590868286068
 30
0.0
  0
SEQEND
  5
7D2
  8
LOGO_VCARVE
  0
POLYLINE
  5
7D3
  8
LOGO_VCARVE
 66
     1
 10
0.0
 20
0.0
 30
0.0
 70
     1
  0
VERTEX
  5
7D4
  8
LOGO_VCARVE
 10
1769.36848122123
 20
615.9443675159746
 30
0.0
  0
VERTEX
  5
7D5
  8
LOGO_VCARVE
 10
1771.683876802301
 20
618.2600547177608
 30
0.0
  0
VERTEX
  5
7D6
  8
LOGO_VCARVE
 10
1767.05563732142
 20
618.2600547177608
 30
0.0
  0
SEQEND
  5
7D7
  8
LOGO_VCARVE
  0
POLYLINE
  5
7D8
  8
LOGO_VCARVE
 66
     1
 10
0.0
 20
0.0
 30
0.0
 70
     1
  0
VERTEX
  5
7D9
  8
LOGO_VCARVE
 10
1772.221552497707
 20
617.7106048359419
 30
0.0
  0
VERTEX
  5
7DA
  8
LOGO_VCARVE
 10
1769.751233411167
 20
615.2411606115602
 30
0.0
  0
VERTEX
  5
7DB
  8
LOGO_VCARVE
 10
1769.751233411167
 20
605.5390122903482
 30
0.0
  0
VERTEX
  5
7DC
  8
LOGO_VCARVE
 10
1772.221552497707
 20
608.0084565147299
 30
0.0
  0
SEQEND
  5
7DD
  8
LOGO_VCARVE
  0
POLYLINE
  5
7DE
  8
LOGO_VCARVE
 66
     1
 10
0.0
 20
0.0
 30
0.0
 70
     1
  0
VERTEX
  5
7DF
  8
LOGO_VCARVE
 10
1781.439661463723
 20
615.936143811774
 30
0.0
  0
VERTEX
  5
7E0
  8
LOGO_VCARVE
 10
1783.763076614487
 20
618.2597776780785
 30
0.0
  0
VERTEX
  5
7E1
  8
LOGO_VCARVE
 10
1779.11522564046
 20
618.2597776780785
 30
0.0
  0
SEQEND
  5
7E2
  8
LOGO_VCARVE
  0
POLYLINE
  5
7E3
  8
LOGO_VCARVE
 66
     1
 10
0.0
 20
0.0
 30
0.0
 70
     1
  0
VERTEX
  5
7E4
  8
LOGO_VCARVE
 10
1781.05572091935
 20
615.2325723814683
 30
0.0
  0
VERTEX
  5
7E5
  8
LOGO_VCARVE
 10
1778.582121099767
 20
617.7072657787394
 30
0.0
  0
VERTEX
  5
7E6
  8
LOGO_VCARVE
 10
1778.582121099767
 20
607.9981914655182
 30
0.0
  0
VERTEX
  5
7E7
  8
LOGO_VCARVE
 10
1781.05572091935
 20
605.5255394132619
 30
0.0
  0
SEQEND
  5
7E8
  8
LOGO_VCARVE
  0
POLYLINE
  5
7E9
  8
LOGO_VCARVE
 66
     1
 10
0.0
 20
0.0
 30
0.0
 70
     1
  0
VERTEX
  5
7EA
  8
LOGO_VCARVE
 10
1796.501856871953
 20
606.9178752320076
 30
0.0
  0
VERTEX
  5
7EB
  8
LOGO_VCARVE
 10
1794.18369089409
 20
604.5999279696698
 30
0.0
  0
VERTEX
  5
7EC
  8
LOGO_VCARVE
 10
1796.501856871953
 20
602.2819807073356
 30
0.0
  0
SEQEND
  5
7ED
  8
LOGO_VCARVE
  0
POLYLINE
  5
7EE
  8
LOGO_VCARVE
 66
     1
 10
0.0
 20
0.0
 30
0.0
 70
     1
  0
VERTEX
  5
7EF
  8
LOGO_VCARVE
 10
1784.303019660962
 20
617.7114869886063
 30
0.0
  0
VERTEX
  5
7F0
  8
LOGO_VCARVE
 10
1781.825264246174
 20
615.2348251514995
 30
0.0
  0
VERTEX
  5
7F1
  8
LOGO_VCARVE
 10
1781.825264246174
 20
605.5074516383393
 30
0.0
  0
VERTEX
  5
7F2
  8
LOGO_VCARVE
 10
1784.303019660962
 20
607.9849154324147
 30
0.0
  0
SEQEND
  5
7F3
  8
LOGO_VCARVE
  0
POLYLINE
  5
7F4
  8
LOGO_VCARVE
 66
     1
 10
0.0
 20
0.0
 30
0.0
 70
     1
  0
VERTEX
  5
7F5
  8
LOGO_VCARVE
 10
1766.501856871953
 20
602.2859832016693
 30
0.0
  0
VERTEX
  5
7F6
  8
LOGO_VCARVE
 10
1768.654309377889
 20
604.4391647593766
 30
0.0
  0
VERTEX
  5
7F7
  8
LOGO_VCARVE
 10
1768.654309377889
 20
604.4404770526016
 30
0.0
  0
VERTEX
  5
7F8
  8
LOGO_VCARVE
 10
1768.712487710756
 20
604.5008425408487
 30
0.0
  0
VERTEX
  5
7F9
  8
LOGO_VCARVE
 10
1768.819220892867
 20
604.6058259986603
 30
0.0
  0
VERTEX
  5
7FA
  8
LOGO_VCARVE
 10
1766.501856871968
 20
606.9235545454649
 30
0.0
  0
SEQEND
  5
7FB
  8
LOGO_VCARVE
  0
POLYLINE
  5
7FC
  8
LOGO_VCARVE
 66
     1
 10
0.0
 20
0.0
 30
0.0
 70
     1
  0
VERTEX
  5
7FD
  8
LOGO_VCARVE
 10
1795.958552896729
 20
601.739945282221
 30
0.0
  0
VERTEX
  5
7FE
  8
LOGO_VCARVE
 10
1793.482401395886
 20
604.2148573950253
 30
0.0
  0
VERTEX
  5
7FF
  8
LOGO_VCARVE
 10
1769.517812899445
 20
604.2148573950326
 30
0.0
  0
VERTEX
  5
800
  8
LOGO_VCARVE
 10
1767.040349105373
 20
601.7399452822283
 30
0.0
  0
SEQEND
  5
801
  8
LOGO_VCARVE
  0
POLYLINE
  5
802
  8
CUT_15_5MM
 66
     1
 10
0.0
 20
0.0
 30
0.0
 70
     1
  0
VERTEX
  5
803
  8
CUT_15_5MM
 10
2158.038755331549
 20
1010.26806028931
 30
0.0
 42
0.4142135623710756
  0
VERTEX
  5
804
  8
CUT_15_5MM
 10
2158.03875533155
 20
1005.601155533483
 30
0.0
  0
VERTEX
  5
805
  8
CUT_15_5MM
 10
2158.038755331552
 20
1002.768060289312
 30
0.0
  0
VERTEX
  5
806
  8
CUT_15_5MM
 10
2118.038755331552
 20
1002.768060289312
 30
0.0
  0
VERTEX
  5
807
  8
CUT_15_5MM
 10
2118.038755331552
 20
1005.601155533481
 30
0.0
 42
0.9999999999981485
  0
VERTEX
  5
808
  8
CUT_15_5MM
 10
2113.371850575721
 20
1010.268060289312
 30
0.0
  0
VERTEX
  5
809
  8
CUT_15_5MM
 10
2105.538573094775
 20
1010.268060289312
 30
0.0
  0
VERTEX
  5
80A
  8
CUT_15_5MM
 10
2105.538573094782
 20
1120.268060289302
 30
0.0
  0
VERTEX
  5
80B
  8
CUT_15_5MM
 10
2113.371850595941
 20
1120.268060309522
 30
0.0
 42
1.000000000002241
  0
VERTEX
  5
80C
  8
CUT_15_5MM
 10
2118.038755351768
 20
1124.934965065352
 30
0.0
  0
VERTEX
  5
80D
  8
CUT_15_5MM
 10
2118.038755331552
 20
1127.768060289302
 30
0.0
  0
VERTEX
  5
80E
  8
CUT_15_5MM
 10
2158.038755331552
 20
1127.768060289302
 30
0.0
  0
VERTEX
  5
80F
  8
CUT_15_5MM
 10
2158.038755351765
 20
1124.934965024906
 30
0.0
 42
0.9999999999967845
  0
VERTEX
  5
810
  8
CUT_15_5MM
 10
2162.705660107601
 20
1120.268060269076
 30
0.0
  0
VERTEX
  5
811
  8
CUT_15_5MM
 10
2166.788937548103
 20
1120.26806028204
 30
0.0
  0
VERTEX
  5
812
  8
CUT_15_5MM
 10
2166.788937568315
 20
1069.934965024928
 30
0.0
 42
0.999999999996687
  0
VERTEX
  5
813
  8
CUT_15_5MM
 10
2171.455842324152
 20
1065.2680602691
 30
0.0
  0
VERTEX
  5
814
  8
CUT_15_5MM
 10
2177.122032812491
 20
1065.268060309536
 30
0.0
 42
1.000000000002534
  0
VERTEX
  5
815
  8
CUT_15_5MM
 10
2181.788937568319
 20
1069.93496506537
 30
0.0
  0
VERTEX
  5
816
  8
CUT_15_5MM
 10
2181.788937548103
 20
1120.268060284459
 30
0.0
  0
VERTEX
  5
817
  8
CUT_15_5MM
 10
2185.872215029041
 20
1120.268060269078
 30
0.0
 42
1.000000000001559
  0
VERTEX
  5
818
  8
CUT_15_5MM
 10
2190.539119784873
 20
1124.934965024903
 30
0.0
  0
VERTEX
  5
819
  8
CUT_15_5MM
 10
2190.539119805086
 20
1127.768060289302
 30
0.0
  0
VERTEX
  5
81A
  8
CUT_15_5MM
 10
2230.539119805086
 20
1127.768060289309
 30
0.0
  0
VERTEX
  5
81B
  8
CUT_15_5MM
 10
2230.539119784866
 20
1124.934965065357
 30
0.0
 42
0.9999999999968819
  0
VERTEX
  5
81C
  8
CUT_15_5MM
 10
2235.206024540696
 20
1120.268060309529
 30
0.0
  0
VERTEX
  5
81D
  8
CUT_15_5MM
 10
2243.039302041856
 20
1120.268060289309
 30
0.0
  0
VERTEX
  5
81E
  8
CUT_15_5MM
 10
2243.039302041856
 20
1010.26806028932
 30
0.0
  0
VERTEX
  5
81F
  8
CUT_15_5MM
 10
2235.206024560925
 20
1010.268060289316
 30
0.0
 42
0.9999999999988795
  0
VERTEX
  5
820
  8
CUT_15_5MM
 10
2230.539119805093
 20
1005.601155533488
 30
0.0
  0
VERTEX
  5
821
  8
CUT_15_5MM
 10
2230.539119805093
 20
1002.76806028932
 30
0.0
  0
VERTEX
  5
822
  8
CUT_15_5MM
 10
2190.539119805093
 20
1002.768060289312
 30
0.0
  0
VERTEX
  5
823
  8
CUT_15_5MM
 10
2190.539119805093
 20
1005.601155533481
 30
0.0
 42
1.000000000001559
  0
VERTEX
  5
824
  8
CUT_15_5MM
 10
2185.87221504925
 20
1010.268060289312
 30
0.0
  0
VERTEX
  5
825
  8
CUT_15_5MM
 10
2162.705660087377
 20
1010.268060289313
 30
0.0
 42
0.4142135623735129
  0
SEQEND
  5
826
  8
CUT_15_5MM
  0
POLYLINE
  5
827
  8
CUT_15_5MM
 66
     1
 10
0.0
 20
0.0
 30
0.0
 70
     1
  0
VERTEX
  5
828
  8
CUT_15_5MM
 10
2309.206206817904
 20
1120.26806026908
 30
0.0
 42
-0.9999999999978563
  0
VERTEX
  5
829
  8
CUT_15_5MM
 10
2304.539302062077
 20
1124.934965024912
 30
0.0
  0
VERTEX
  5
82A
  8
CUT_15_5MM
 10
2304.539302041856
 20
1127.768060289298
 30
0.0
  0
VERTEX
  5
82B
  8
CUT_15_5MM
 10
2264.539302041856
 20
1127.768060289298
 30
0.0
  0
VERTEX
  5
82C
  8
CUT_15_5MM
 10
2264.539302062083
 20
1124.934965065345
 30
0.0
 42
-0.9999999999962484
  0
VERTEX
  5
82D
  8
CUT_15_5MM
 10
2259.872397306237
 20
1120.268060309515
 30
0.0
  0
VERTEX
  5
82E
  8
CUT_15_5MM
 10
2249.539302041856
 20
1120.268060289302
 30
0.0
  0
VERTEX
  5
82F
  8
CUT_15_5MM
 10
2249.539302041856
 20
1010.268060289316
 30
0.0
  0
VERTEX
  5
830
  8
CUT_15_5MM
 10
2259.872397286018
 20
1010.268060289308
 30
0.0
 42
-1.000000000001608
  0
VERTEX
  5
831
  8
CUT_15_5MM
 10
2264.539302041849
 20
1005.60115553348
 30
0.0
  0
VERTEX
  5
832
  8
CUT_15_5MM
 10
2264.539302041856
 20
1002.768060289312
 30
0.0
  0
VERTEX
  5
833
  8
CUT_15_5MM
 10
2304.539302041856
 20
1002.768060289312
 30
0.0
  0
VERTEX
  5
834
  8
CUT_15_5MM
 10
2304.539302041856
 20
1005.601155533481
 30
0.0
 42
-1.00000000000151
  0
VERTEX
  5
835
  8
CUT_15_5MM
 10
2309.206206797677
 20
1010.268060289315
 30
0.0
  0
VERTEX
  5
836
  8
CUT_15_5MM
 10
2334.539302041856
 20
1010.268060289312
 30
0.0
  0
VERTEX
  5
837
  8
CUT_15_5MM
 10
2334.539302041856
 20
1065.268060289312
 30
0.0
  0
VERTEX
  5
838
  8
CUT_15_5MM
 10
2324.206206817908
 20
1065.268060269085
 30
0.0
 42
-0.9999999999995127
  0
VERTEX
  5
839
  8
CUT_15_5MM
 10
2319.539302062072
 20
1069.934965024921
 30
0.0
  0
VERTEX
  5
83A
  8
CUT_15_5MM
 10
2319.539302041856
 20
1120.268060289298
 30
0.0
  0
SEQEND
  5
83B
  8
CUT_15_5MM
  0
POLYLINE
  5
83C
  8
CUT_15_5MM
 66
     1
 10
0.0
 20
0.0
 30
0.0
 70
     1
  0
VERTEX
  5
83D
  8
CUT_15_5MM
 10
2309.2062068179
 20
878.7680603095374
 30
0.0
 42
0.9999999999986359
  0
VERTEX
  5
83E
  8
CUT_15_5MM
 10
2304.53930206207
 20
874.1011555537018
 30
0.0
  0
VERTEX
  5
83F
  8
CUT_15_5MM
 10
2304.539302041849
 20
871.2680602893197
 30
0.0
  0
VERTEX
  5
840
  8
CUT_15_5MM
 10
2264.539302041849
 20
871.2680602893197
 30
0.0
  0
VERTEX
  5
841
  8
CUT_15_5MM
 10
2264.539302062069
 20
874.1011555132714
 30
0.0
 42
0.9999999999980999
  0
VERTEX
  5
842
  8
CUT_15_5MM
 10
2259.872397306238
 20
878.7680602690989
 30
0.0
  0
VERTEX
  5
843
  8
CUT_15_5MM
 10
2249.539302041849
 20
878.7680602893233
 30
0.0
  0
VERTEX
  5
844
  8
CUT_15_5MM
 10
2249.539302041856
 20
988.7680602893088
 30
0.0
  0
VERTEX
  5
845
  8
CUT_15_5MM
 10
2259.872397286018
 20
988.7680602893095
 30
0.0
 42
1.000000000001608
  0
VERTEX
  5
846
  8
CUT_15_5MM
 10
2264.539302041849
 20
993.4349650451375
 30
0.0
  0
VERTEX
  5
847
  8
CUT_15_5MM
 10
2264.539302041856
 20
996.2680602893051
 30
0.0
  0
VERTEX
  5
848
  8
CUT_15_5MM
 10
2304.539302041856
 20
996.2680602893051
 30
0.0
  0
VERTEX
  5
849
  8
CUT_15_5MM
 10
2304.539302041856
 20
993.4349650451368
 30
0.0
 42
1.000000000001535
  0
VERTEX
  5
84A
  8
CUT_15_5MM
 10
2309.206206797677
 20
988.7680602893025
 30
0.0
  0
VERTEX
  5
84B
  8
CUT_15_5MM
 10
2334.539302041856
 20
988.7680602893051
 30
0.0
  0
VERTEX
  5
84C
  8
CUT_15_5MM
 10
2334.539302041856
 20
933.7680602893051
 30
0.0
  0
VERTEX
  5
84D
  8
CUT_15_5MM
 10
2324.206206817901
 20
933.7680603095326
 30
0.0
 42
0.9999999999983921
  0
VERTEX
  5
84E
  8
CUT_15_5MM
 10
2319.53930206207
 20
929.1011555536944
 30
0.0
  0
VERTEX
  5
84F
  8
CUT_15_5MM
 10
2319.539302041849
 20
878.7680602893197
 30
0.0
  0
SEQEND
  5
850
  8
CUT_15_5MM
  0
ENDSEC
  0
EOF
